%TF.GenerationSoftware,KiCad,Pcbnew,8.0.6-8.0.6-0~ubuntu24.04.1*%
%TF.CreationDate,2024-12-02T23:57:07-05:00*%
%TF.ProjectId,hack_badge,6861636b-5f62-4616-9467-652e6b696361,v1*%
%TF.SameCoordinates,Original*%
%TF.FileFunction,Copper,L1,Top*%
%TF.FilePolarity,Positive*%
%FSLAX46Y46*%
G04 Gerber Fmt 4.6, Leading zero omitted, Abs format (unit mm)*
G04 Created by KiCad (PCBNEW 8.0.6-8.0.6-0~ubuntu24.04.1) date 2024-12-02 23:57:07*
%MOMM*%
%LPD*%
G01*
G04 APERTURE LIST*
G04 Aperture macros list*
%AMRoundRect*
0 Rectangle with rounded corners*
0 $1 Rounding radius*
0 $2 $3 $4 $5 $6 $7 $8 $9 X,Y pos of 4 corners*
0 Add a 4 corners polygon primitive as box body*
4,1,4,$2,$3,$4,$5,$6,$7,$8,$9,$2,$3,0*
0 Add four circle primitives for the rounded corners*
1,1,$1+$1,$2,$3*
1,1,$1+$1,$4,$5*
1,1,$1+$1,$6,$7*
1,1,$1+$1,$8,$9*
0 Add four rect primitives between the rounded corners*
20,1,$1+$1,$2,$3,$4,$5,0*
20,1,$1+$1,$4,$5,$6,$7,0*
20,1,$1+$1,$6,$7,$8,$9,0*
20,1,$1+$1,$8,$9,$2,$3,0*%
G04 Aperture macros list end*
%TA.AperFunction,SMDPad,CuDef*%
%ADD10RoundRect,0.166667X-0.333333X-0.333333X0.333333X-0.333333X0.333333X0.333333X-0.333333X0.333333X0*%
%TD*%
%TA.AperFunction,ComponentPad*%
%ADD11RoundRect,0.250000X-0.650000X-0.650000X0.650000X-0.650000X0.650000X0.650000X-0.650000X0.650000X0*%
%TD*%
%TA.AperFunction,ComponentPad*%
%ADD12C,1.800000*%
%TD*%
%TA.AperFunction,SMDPad,CuDef*%
%ADD13RoundRect,0.250000X-0.250000X-0.250000X0.250000X-0.250000X0.250000X0.250000X-0.250000X0.250000X0*%
%TD*%
%TA.AperFunction,SMDPad,CuDef*%
%ADD14RoundRect,0.166667X0.333333X0.333333X-0.333333X0.333333X-0.333333X-0.333333X0.333333X-0.333333X0*%
%TD*%
%TA.AperFunction,ComponentPad*%
%ADD15RoundRect,0.250000X0.650000X0.650000X-0.650000X0.650000X-0.650000X-0.650000X0.650000X-0.650000X0*%
%TD*%
%TA.AperFunction,SMDPad,CuDef*%
%ADD16RoundRect,0.250000X0.250000X0.250000X-0.250000X0.250000X-0.250000X-0.250000X0.250000X-0.250000X0*%
%TD*%
%TA.AperFunction,ComponentPad*%
%ADD17RoundRect,0.250000X-2.300000X2.300000X-2.300000X-2.300000X2.300000X-2.300000X2.300000X2.300000X0*%
%TD*%
%TA.AperFunction,ComponentPad*%
%ADD18RoundRect,0.250000X2.300000X-2.300000X2.300000X2.300000X-2.300000X2.300000X-2.300000X-2.300000X0*%
%TD*%
%TA.AperFunction,ComponentPad*%
%ADD19C,1.400000*%
%TD*%
%TA.AperFunction,ComponentPad*%
%ADD20O,1.400000X1.400000*%
%TD*%
%TA.AperFunction,ComponentPad*%
%ADD21RoundRect,0.250000X0.500000X0.500000X-0.500000X0.500000X-0.500000X-0.500000X0.500000X-0.500000X0*%
%TD*%
%TA.AperFunction,ComponentPad*%
%ADD22O,1.500000X1.500000*%
%TD*%
%TA.AperFunction,ComponentPad*%
%ADD23C,1.600000*%
%TD*%
%TA.AperFunction,ComponentPad*%
%ADD24R,1.120000X1.120000*%
%TD*%
%TA.AperFunction,ComponentPad*%
%ADD25C,1.120000*%
%TD*%
%TA.AperFunction,ComponentPad*%
%ADD26RoundRect,0.250000X-0.500000X-0.500000X0.500000X-0.500000X0.500000X0.500000X-0.500000X0.500000X0*%
%TD*%
%TA.AperFunction,ViaPad*%
%ADD27C,0.600000*%
%TD*%
%TA.AperFunction,Conductor*%
%ADD28C,0.508000*%
%TD*%
G04 APERTURE END LIST*
D10*
%TO.P,D5,1,K*%
%TO.N,/GND*%
X95020000Y-91772000D03*
D11*
X95250000Y-93472000D03*
D12*
%TO.P,D5,2,A*%
%TO.N,/R3D5*%
X97790000Y-93472000D03*
D10*
X98020000Y-91772000D03*
D13*
%TO.P,D5,3*%
%TO.N,N/C*%
X96520000Y-91972000D03*
%TD*%
D14*
%TO.P,D3,1,K*%
%TO.N,/GND*%
X57380000Y-60628000D03*
D15*
X57150000Y-58928000D03*
D12*
%TO.P,D3,2,A*%
%TO.N,/R2D3*%
X54610000Y-58928000D03*
D14*
X54380000Y-60628000D03*
D16*
%TO.P,D3,3*%
%TO.N,N/C*%
X55880000Y-60428000D03*
%TD*%
D14*
%TO.P,D6,1,K*%
%TO.N,/GND*%
X85320000Y-60628000D03*
D15*
X85090000Y-58928000D03*
D12*
%TO.P,D6,2,A*%
%TO.N,/R4D6*%
X82550000Y-58928000D03*
D14*
X82320000Y-60628000D03*
D16*
%TO.P,D6,3*%
%TO.N,N/C*%
X83820000Y-60428000D03*
%TD*%
D10*
%TO.P,D2,1,K*%
%TO.N,/GND*%
X67080000Y-91772000D03*
D11*
X67310000Y-93472000D03*
D12*
%TO.P,D2,2,A*%
%TO.N,/R1D2*%
X69850000Y-93472000D03*
D10*
X70080000Y-91772000D03*
D13*
%TO.P,D2,3*%
%TO.N,N/C*%
X68580000Y-91972000D03*
%TD*%
D17*
%TO.P,BT1,1,+*%
%TO.N,/APOS*%
X61976000Y-63400000D03*
X61976000Y-89000000D03*
%TD*%
D18*
%TO.P,BT2,1,+*%
%TO.N,/BPOS*%
X90424000Y-89000000D03*
X90424000Y-63400000D03*
%TD*%
D19*
%TO.P,R1,1*%
%TO.N,/A3V*%
X80264000Y-93472000D03*
D20*
%TO.P,R1,2*%
%TO.N,/R1D2*%
X72644000Y-93472000D03*
%TD*%
D21*
%TO.P,D4,1,K*%
%TO.N,/BVDD*%
X95250000Y-58928000D03*
D22*
%TO.P,D4,2,A*%
%TO.N,/BPOS*%
X87630000Y-58928000D03*
%TD*%
D23*
%TO.P,C2,1*%
%TO.N,/BVDD*%
X92202000Y-55098000D03*
%TO.P,C2,2*%
%TO.N,/GND*%
X92202000Y-52598000D03*
%TD*%
D24*
%TO.P,U2,1,VDD*%
%TO.N,/BVDD*%
X89662000Y-53848000D03*
D25*
%TO.P,U2,2,GND*%
%TO.N,/GND*%
X88392000Y-53848000D03*
%TO.P,U2,3,OUT*%
%TO.N,/B3V*%
X87122000Y-53848000D03*
%TD*%
D24*
%TO.P,U1,1,VDD*%
%TO.N,/AVDD*%
X62738000Y-98552000D03*
D25*
%TO.P,U1,2,GND*%
%TO.N,/GND*%
X64008000Y-98552000D03*
%TO.P,U1,3,OUT*%
%TO.N,/A3V*%
X65278000Y-98552000D03*
%TD*%
D23*
%TO.P,C1,1*%
%TO.N,/AVDD*%
X60198000Y-97302000D03*
%TO.P,C1,2*%
%TO.N,/GND*%
X60198000Y-99802000D03*
%TD*%
D19*
%TO.P,R2,1*%
%TO.N,/A3V*%
X68580000Y-58928000D03*
D20*
%TO.P,R2,2*%
%TO.N,/R2D3*%
X60960000Y-58928000D03*
%TD*%
D19*
%TO.P,R3,1*%
%TO.N,/B3V*%
X83820000Y-93472000D03*
D20*
%TO.P,R3,2*%
%TO.N,/R3D5*%
X91440000Y-93472000D03*
%TD*%
D26*
%TO.P,D1,1,K*%
%TO.N,/AVDD*%
X56896000Y-93472000D03*
D22*
%TO.P,D1,2,A*%
%TO.N,/APOS*%
X64516000Y-93472000D03*
%TD*%
D19*
%TO.P,R4,1*%
%TO.N,/B3V*%
X72136000Y-58928000D03*
D20*
%TO.P,R4,2*%
%TO.N,/R4D6*%
X79756000Y-58928000D03*
%TD*%
D27*
%TO.N,/GND*%
X73660000Y-76200000D03*
X78740000Y-76200000D03*
%TD*%
D28*
%TO.N,/GND*%
X88392000Y-55118000D02*
X85090000Y-58420000D01*
X85320000Y-59158000D02*
X85090000Y-58928000D01*
%TO.N,/R4D6*%
X82320000Y-60628000D02*
X82320000Y-59158000D01*
%TO.N,/GND*%
X85320000Y-60628000D02*
X85320000Y-59158000D01*
%TO.N,/R4D6*%
X82320000Y-59158000D02*
X82550000Y-58928000D01*
%TO.N,/GND*%
X88392000Y-53848000D02*
X88392000Y-55118000D01*
X85090000Y-58420000D02*
X85090000Y-58928000D01*
%TO.N,/R2D3*%
X54380000Y-60628000D02*
X54380000Y-59158000D01*
%TO.N,/GND*%
X57380000Y-59158000D02*
X57150000Y-58928000D01*
X57380000Y-60628000D02*
X57380000Y-59158000D01*
%TO.N,/R2D3*%
X54380000Y-59158000D02*
X54610000Y-58928000D01*
%TO.N,/R3D5*%
X98020000Y-91772000D02*
X98020000Y-93242000D01*
%TO.N,/GND*%
X95020000Y-93242000D02*
X95250000Y-93472000D01*
%TO.N,/R3D5*%
X98020000Y-93242000D02*
X97790000Y-93472000D01*
%TO.N,/GND*%
X95020000Y-91772000D02*
X95020000Y-93242000D01*
X64008000Y-98552000D02*
X64008000Y-97790000D01*
X67080000Y-91772000D02*
X67080000Y-93242000D01*
X67080000Y-93242000D02*
X67310000Y-93472000D01*
%TO.N,/R1D2*%
X70080000Y-91772000D02*
X70080000Y-93242000D01*
%TO.N,/GND*%
X64008000Y-97790000D02*
X67310000Y-94488000D01*
%TO.N,/R1D2*%
X70080000Y-93242000D02*
X69850000Y-93472000D01*
%TO.N,/GND*%
X67310000Y-94488000D02*
X67310000Y-93472000D01*
%TO.N,/APOS*%
X61976000Y-89000000D02*
X61976000Y-63400000D01*
%TO.N,/GND*%
X73660000Y-76200000D02*
X78740000Y-76200000D01*
%TO.N,/BPOS*%
X90424000Y-63400000D02*
X90424000Y-89000000D01*
%TD*%
M02*
