M48
INCH
T1C0.0118
T2C0.0236
T3C0.0276
T4C0.0295
T5C0.0315
T6C0.0354
T7C0.0787
%
G90
G05
T1
X2.9Y-3.0
X3.1Y-3.0
T2
X2.47Y-3.88
X2.52Y-3.88
X2.57Y-3.88
X3.43Y-2.12
X3.48Y-2.12
X3.53Y-2.12
T3
X2.4Y-2.32
X2.7Y-2.32
X2.84Y-2.32
X2.86Y-3.68
X3.14Y-2.32
X3.16Y-3.68
X3.3Y-3.68
X3.6Y-3.68
T4
X2.24Y-3.68
X2.54Y-3.68
X3.45Y-2.32
X3.75Y-2.32
T5
X2.37Y-3.8308
X2.37Y-3.9292
X3.63Y-2.0708
X3.63Y-2.1692
T6
X2.15Y-2.32
X2.25Y-2.32
X2.65Y-3.68
X2.75Y-3.68
X3.25Y-2.32
X3.35Y-2.32
X3.75Y-3.68
X3.85Y-3.68
T7
X2.44Y-2.4961
X2.44Y-3.5039
X3.56Y-2.4961
X3.56Y-3.5039
M30
