%TF.GenerationSoftware,KiCad,Pcbnew,8.0.6-8.0.6-0~ubuntu24.04.1*%
%TF.CreationDate,2024-12-02T23:57:07-05:00*%
%TF.ProjectId,hack_badge,6861636b-5f62-4616-9467-652e6b696361,v1*%
%TF.SameCoordinates,Original*%
%TF.FileFunction,Soldermask,Top*%
%TF.FilePolarity,Negative*%
%FSLAX46Y46*%
G04 Gerber Fmt 4.6, Leading zero omitted, Abs format (unit mm)*
G04 Created by KiCad (PCBNEW 8.0.6-8.0.6-0~ubuntu24.04.1) date 2024-12-02 23:57:07*
%MOMM*%
%LPD*%
G01*
G04 APERTURE LIST*
G04 Aperture macros list*
%AMRoundRect*
0 Rectangle with rounded corners*
0 $1 Rounding radius*
0 $2 $3 $4 $5 $6 $7 $8 $9 X,Y pos of 4 corners*
0 Add a 4 corners polygon primitive as box body*
4,1,4,$2,$3,$4,$5,$6,$7,$8,$9,$2,$3,0*
0 Add four circle primitives for the rounded corners*
1,1,$1+$1,$2,$3*
1,1,$1+$1,$4,$5*
1,1,$1+$1,$6,$7*
1,1,$1+$1,$8,$9*
0 Add four rect primitives between the rounded corners*
20,1,$1+$1,$2,$3,$4,$5,0*
20,1,$1+$1,$4,$5,$6,$7,0*
20,1,$1+$1,$6,$7,$8,$9,0*
20,1,$1+$1,$8,$9,$2,$3,0*%
G04 Aperture macros list end*
%ADD10RoundRect,0.166667X-0.333333X-0.333333X0.333333X-0.333333X0.333333X0.333333X-0.333333X0.333333X0*%
%ADD11RoundRect,0.250000X-0.650000X-0.650000X0.650000X-0.650000X0.650000X0.650000X-0.650000X0.650000X0*%
%ADD12C,1.800000*%
%ADD13RoundRect,0.250000X-0.250000X-0.250000X0.250000X-0.250000X0.250000X0.250000X-0.250000X0.250000X0*%
%ADD14RoundRect,0.166667X0.333333X0.333333X-0.333333X0.333333X-0.333333X-0.333333X0.333333X-0.333333X0*%
%ADD15RoundRect,0.250000X0.650000X0.650000X-0.650000X0.650000X-0.650000X-0.650000X0.650000X-0.650000X0*%
%ADD16RoundRect,0.250000X0.250000X0.250000X-0.250000X0.250000X-0.250000X-0.250000X0.250000X-0.250000X0*%
%ADD17RoundRect,0.250000X-2.300000X2.300000X-2.300000X-2.300000X2.300000X-2.300000X2.300000X2.300000X0*%
%ADD18RoundRect,0.250000X2.300000X-2.300000X2.300000X2.300000X-2.300000X2.300000X-2.300000X-2.300000X0*%
%ADD19C,1.400000*%
%ADD20O,1.400000X1.400000*%
%ADD21RoundRect,0.250000X0.500000X0.500000X-0.500000X0.500000X-0.500000X-0.500000X0.500000X-0.500000X0*%
%ADD22O,1.500000X1.500000*%
%ADD23C,1.600000*%
%ADD24RoundRect,0.070000X0.560000X0.560000X-0.560000X0.560000X-0.560000X-0.560000X0.560000X-0.560000X0*%
%ADD25C,1.260000*%
%ADD26RoundRect,0.070000X-0.560000X-0.560000X0.560000X-0.560000X0.560000X0.560000X-0.560000X0.560000X0*%
%ADD27RoundRect,0.250000X-0.500000X-0.500000X0.500000X-0.500000X0.500000X0.500000X-0.500000X0.500000X0*%
G04 APERTURE END LIST*
D10*
%TO.C,D5*%
X95020000Y-91772000D03*
D11*
X95250000Y-93472000D03*
D12*
X97790000Y-93472000D03*
D10*
X98020000Y-91772000D03*
D13*
X96520000Y-91972000D03*
%TD*%
D14*
%TO.C,D3*%
X57380000Y-60628000D03*
D15*
X57150000Y-58928000D03*
D12*
X54610000Y-58928000D03*
D14*
X54380000Y-60628000D03*
D16*
X55880000Y-60428000D03*
%TD*%
D14*
%TO.C,D6*%
X85320000Y-60628000D03*
D15*
X85090000Y-58928000D03*
D12*
X82550000Y-58928000D03*
D14*
X82320000Y-60628000D03*
D16*
X83820000Y-60428000D03*
%TD*%
D10*
%TO.C,D2*%
X67080000Y-91772000D03*
D11*
X67310000Y-93472000D03*
D12*
X69850000Y-93472000D03*
D10*
X70080000Y-91772000D03*
D13*
X68580000Y-91972000D03*
%TD*%
D17*
%TO.C,BT1*%
X61976000Y-63400000D03*
X61976000Y-89000000D03*
%TD*%
D18*
%TO.C,BT2*%
X90424000Y-89000000D03*
X90424000Y-63400000D03*
%TD*%
D19*
%TO.C,R1*%
X80264000Y-93472000D03*
D20*
X72644000Y-93472000D03*
%TD*%
D21*
%TO.C,D4*%
X95250000Y-58928000D03*
D22*
X87630000Y-58928000D03*
%TD*%
D23*
%TO.C,C2*%
X92202000Y-55098000D03*
X92202000Y-52598000D03*
%TD*%
D24*
%TO.C,U2*%
X89662000Y-53848000D03*
D25*
X88392000Y-53848000D03*
X87122000Y-53848000D03*
%TD*%
D26*
%TO.C,U1*%
X62738000Y-98552000D03*
D25*
X64008000Y-98552000D03*
X65278000Y-98552000D03*
%TD*%
D23*
%TO.C,C1*%
X60198000Y-97302000D03*
X60198000Y-99802000D03*
%TD*%
D19*
%TO.C,R2*%
X68580000Y-58928000D03*
D20*
X60960000Y-58928000D03*
%TD*%
D19*
%TO.C,R3*%
X83820000Y-93472000D03*
D20*
X91440000Y-93472000D03*
%TD*%
D27*
%TO.C,D1*%
X56896000Y-93472000D03*
D22*
X64516000Y-93472000D03*
%TD*%
D19*
%TO.C,R4*%
X72136000Y-58928000D03*
D20*
X79756000Y-58928000D03*
%TD*%
M02*
