<?xml version="1.0" encoding="UTF-8" standalone="no"?>
<!-- Created with Inkscape (http://www.inkscape.org/) -->

<svg
   version="1.1"
   id="svg1"
   width="173.85828"
   height="55.520302"
   viewBox="0 0 173.85828 55.520302"
   sodipodi:docname="hackPGH_logo_02.svg"
   inkscape:version="1.4 (1:1.4+202410161351+e7c3feb100)"
   xmlns:inkscape="http://www.inkscape.org/namespaces/inkscape"
   xmlns:sodipodi="http://sodipodi.sourceforge.net/DTD/sodipodi-0.dtd"
   xmlns="http://www.w3.org/2000/svg"
   xmlns:svg="http://www.w3.org/2000/svg">
  <defs
     id="defs1" />
  <sodipodi:namedview
     id="namedview1"
     pagecolor="#ffffff"
     bordercolor="#999999"
     borderopacity="1"
     inkscape:showpageshadow="2"
     inkscape:pageopacity="0"
     inkscape:pagecheckerboard="0"
     inkscape:deskcolor="#d1d1d1"
     inkscape:zoom="3.7578947"
     inkscape:cx="107.10784"
     inkscape:cy="33.130252"
     inkscape:window-width="1920"
     inkscape:window-height="1011"
     inkscape:window-x="0"
     inkscape:window-y="0"
     inkscape:window-maximized="1"
     inkscape:current-layer="g1" />
  <g
     inkscape:groupmode="layer"
     inkscape:label="Image"
     id="g1"
     transform="translate(-404.9469,-392.11332)">
    <path
       id="path1"
       style="fill:#000000;fill-opacity:1;stroke-width:0.238234"
       d="m 406.47884,445.75661 c -0.27431,-3.62639 -1.67388,-47.4851 -1.52019,-47.63879 0.2095,-0.2095 171.8831,-6.1952 172.07848,-5.99982 0.17379,0.17379 1.9195,49.19458 1.75743,49.34988 -0.0574,0.055 -37.41194,1.39677 -83.01,2.98162 -45.59805,1.58486 -84.31364,2.94963 -86.03465,3.03284 l -3.12909,0.15128 z m 22.08607,-11.46593 c 0.14345,-0.23371 -0.64065,-22.86344 -0.79625,-22.98065 -0.0655,-0.0493 -1.5932,-0.0476 -3.39484,0.004 l -3.27573,0.0935 0.006,0.98912 c 0.003,0.54402 0.16142,5.11654 0.35116,10.16115 0.18974,5.04461 0.34776,9.78845 0.35117,10.54187 l 0.006,1.36984 h 3.32122 c 1.82667,0 3.37057,-0.0804 3.43089,-0.17867 z m 13.01518,-1.08462 c -0.003,-0.41893 -0.16177,-4.83551 -0.35198,-9.81461 -0.1902,-4.97909 -0.34824,-9.83309 -0.35119,-10.78664 l -0.005,-1.73374 -3.39484,0.0661 -3.39484,0.0661 0.0907,4.31185 0.0907,4.31186 -0.56714,0.15179 c -0.31192,0.0835 -1.41371,0.15324 -2.44841,0.15503 l -1.88127,0.003 0.15407,1.8227 c 0.0847,1.00247 0.15408,2.24967 0.15408,2.77153 v 0.94885 l 2.35058,-0.11319 2.35058,-0.11319 0.15088,1.78492 c 0.083,0.98171 0.15088,2.93014 0.15088,4.32985 0,1.39971 0.0443,2.5896 0.0985,2.64419 0.0542,0.0546 1.60865,0.0668 3.4544,0.0272 l 3.3559,-0.0721 z m 10.78626,-0.0275 c 0.70259,-0.46293 0.77473,-0.86729 0.50537,-2.83253 -0.14413,-1.05151 -0.18234,-1.09547 -1.0125,-1.16486 -0.78184,-0.0654 -0.88383,-0.15761 -1.08796,-0.98414 -0.29439,-1.19197 0.0231,-1.68725 1.14275,-1.78249 l 0.86925,-0.0739 v -1.15731 c 0,-1.8773 -0.038,-1.91097 -2.15787,-1.91097 -2.78842,0 -4.11749,0.35391 -4.96836,1.32299 -0.86264,0.9825 -1.0665,1.94385 -0.92619,4.36767 0.12817,2.214 0.82862,3.67289 2.09656,4.3667 1.10744,0.60598 4.53167,0.51256 5.53895,-0.15112 z m 8.20068,0.009 c 0.14818,-0.11313 -0.45775,-12.42379 -0.6617,-13.44355 -0.34979,-1.74899 -1.30902,-2.79372 -3.02238,-3.29181 -1.07649,-0.31294 -2.05657,-0.36274 -5.15631,-0.26197 -2.10495,0.0684 -4.45833,0.26036 -5.22974,0.42653 l -1.40255,0.30214 0.13803,2.13056 c 0.0759,1.17181 0.17239,2.16493 0.21438,2.20692 0.042,0.042 1.52227,-0.0413 3.28951,-0.18509 3.94626,-0.32108 4.91639,-0.18391 5.08938,0.71961 0.0682,0.35617 0.19526,3.05971 0.28235,6.00786 0.0871,2.94815 0.19613,5.42437 0.24229,5.50271 0.0668,0.11333 6.06301,0.003 6.21674,-0.11391 z m 14.00731,-0.40209 c 2.15657,-0.37555 2.11341,-0.31356 1.91996,-2.75771 l -0.16749,-2.11617 -2.01434,0.22134 c -2.49355,0.27401 -3.65723,0.0335 -4.07579,-0.84226 -0.1912,-0.40006 -0.37698,-2.62678 -0.513,-6.14886 -0.11729,-3.03692 -0.25148,-5.5574 -0.2982,-5.60107 -0.0467,-0.0437 -0.82705,0.10875 -1.73409,0.33869 -1.38998,0.35239 -1.80835,0.58657 -2.66207,1.49015 -1.41553,1.49818 -1.59388,2.36266 -1.48836,7.21424 0.084,3.86388 0.11894,4.11425 0.75489,5.41409 1.12692,2.30335 2.58555,2.99985 6.33547,3.02521 1.36507,0.009 3.13943,-0.0977 3.94302,-0.23765 z m 11.47997,-0.54472 c 0.0719,-0.0667 -0.8504,-24.75055 -0.92766,-24.82781 -0.0429,-0.0429 -1.44142,-0.0136 -3.10781,0.0651 l -3.0298,0.14316 -0.003,1.21453 c -0.006,2.3799 0.75112,23.13799 0.85616,23.45833 0.0871,0.26568 0.67023,0.29423 3.14102,0.15378 1.66872,-0.0949 3.05085,-0.18807 3.0714,-0.20713 z m 10.67597,-0.38033 c 0.077,-0.1246 -1.04478,-2.14669 -2.49284,-4.49354 l -2.63285,-4.26701 2.26866,-3.95636 c 1.24777,-2.176 2.26866,-4.0803 2.26866,-4.23179 0,-0.18141 -0.2541,-0.2246 -0.74448,-0.12652 -0.40946,0.0819 -1.84745,0.14889 -3.19553,0.14889 h -2.45105 l -1.36535,2.56102 -1.36535,2.56102 0.0486,3.57352 0.0486,3.57351 1.47481,2.44123 1.47481,2.44122 3.26166,7.1e-4 c 1.80607,4.8e-4 3.32415,-0.10042 3.40168,-0.22586 z m 9.3273,-0.31856 c 0.0316,-0.0316 -0.12276,-5.20179 -0.34307,-11.48924 l -0.40057,-11.43174 -3.33402,0.0781 c -1.83371,0.043 -3.36926,0.11339 -3.41232,0.15645 -0.0431,0.0431 0.0905,4.67134 0.2969,10.28505 0.20636,5.61371 0.37504,10.78608 0.37483,11.49416 l -4.7e-4,1.28742 3.38056,-0.16137 c 1.8593,-0.0888 3.40643,-0.18726 3.43805,-0.21888 z m 25.10216,-2.13503 c -0.001,-0.94996 -0.0691,-2.12922 -0.15029,-2.62058 -0.13879,-0.8397 -0.19947,-0.89359 -1.00987,-0.89689 -1.224,-0.005 -1.98677,-0.45981 -2.48815,-1.48363 -0.3497,-0.71411 -0.47896,-1.85572 -0.66069,-5.83486 -0.12426,-2.72089 -0.28853,-6.27249 -0.36505,-7.89246 l -0.13911,-2.9454 -0.86783,0.13996 c -1.45263,0.23427 -3.40866,1.38017 -4.12841,2.41854 -1.08589,1.5666 -1.40386,3.32167 -1.40417,7.75043 -7.1e-4,10.44997 1.80092,12.93007 9.48899,13.06237 l 1.7272,0.0297 z m 4.62955,1.10698 c 1.34892,-0.21009 2.58712,-0.46513 2.75156,-0.56676 0.23621,-0.14599 0.2558,-1.55161 0.0933,-6.69471 l -0.20566,-6.50992 -3.4544,0.0568 c -1.89992,0.0312 -3.88322,0.11467 -4.40733,0.18547 l -0.95294,0.12872 0.0754,2.36477 0.0754,2.36476 h 1.14039 1.1404 l 0.15407,1.8227 c 0.0847,1.00249 0.15407,3.03939 0.15407,4.52646 0,3.15234 -0.35533,2.91222 3.43576,2.32176 z m 13.91662,-0.46163 c 0.0442,-0.0393 -0.0899,-4.71669 -0.29794,-10.39407 -0.2081,-5.67739 -0.37827,-10.83985 -0.37817,-11.47214 l 1.4e-4,-1.14962 -3.31613,0.0776 c -1.82385,0.0427 -3.3687,0.13117 -3.43299,0.19668 -0.0963,0.0982 0.65974,22.94958 0.76125,23.00806 0.0936,0.0539 6.59601,-0.2061 6.66384,-0.26647 z m 12.88097,-0.49725 c 0.0946,-0.0816 -0.31066,-13.17979 -0.60893,-19.68332 l -0.15023,-3.27572 h -2.31566 c -1.2736,0 -2.822,0.0694 -3.44089,0.15423 -1.10355,0.15126 -1.12275,0.16847 -0.99699,0.89338 0.0705,0.40653 0.15457,2.34723 0.18678,4.31266 l 0.0585,3.57352 -2.3705,0.11912 c -1.69268,0.085 -2.36371,0.20427 -2.3467,0.41691 0.0131,0.16378 0.0399,1.3661 0.0595,2.6718 l 0.0357,2.37401 2.4419,0.0679 2.4419,0.0679 0.14573,3.93087 c 0.0801,2.16198 0.16055,4.11767 0.17868,4.34597 0.0302,0.38085 0.30327,0.40269 3.30867,0.26466 1.80165,-0.0827 3.31925,-0.18799 3.37242,-0.23387 z m -51.63944,-5.31674 c 3.36863,-0.35455 5.17648,-1.38822 6.06425,-3.46735 0.31462,-0.73685 0.40353,-1.62822 0.39207,-3.93087 -0.0298,-5.97555 -1.0972,-7.68402 -5.21372,-8.34461 -0.95038,-0.15251 -2.45789,-0.19429 -3.60038,-0.0998 l -1.96543,0.16256 0.003,1.69902 c 10e-4,0.93446 0.0691,2.10105 0.15028,2.5924 l 0.14767,0.89338 1.33868,0.004 c 0.73627,0.002 1.48923,0.099 1.67325,0.21547 0.40072,0.2537 0.78027,2.68681 0.58697,3.76282 -0.18554,1.03279 -0.49167,1.23412 -2.1371,1.40552 l -1.40503,0.14635 0.0744,2.59337 0.0744,2.59337 0.87851,-0.004 c 0.48319,-0.002 1.80551,-0.1018 2.93851,-0.22105 z m -35.05545,-6.19738 c 0,-2.46475 0.14572,-2.33613 -2.89102,-2.55169 l -2.1119,-0.14991 v 2.37832 c 0,1.30807 0.0442,2.42298 0.0983,2.47757 0.054,0.0546 1.17969,0.0653 2.50146,0.0239 l 2.40321,-0.0754 z m 58.07743,-5.35872 4.11734,0.0112 -0.0674,-2.38999 -0.0674,-2.38998 -0.95294,-0.16821 c -1.67669,-0.29596 -6.6464,-0.50732 -7.99076,-0.33985 l -1.30037,0.162 0.074,2.73097 0.074,2.73098 0.99807,-0.17918 c 0.54894,-0.0986 2.85087,-0.17413 5.11541,-0.16796 z" />
  </g>
</svg>
