<?xml version="1.0" encoding="UTF-8" standalone="no"?>
<!-- Created with Inkscape (http://www.inkscape.org/) -->

<svg
   width="301.3559mm"
   height="87.965569mm"
   viewBox="0 0 301.3559 87.965569"
   version="1.1"
   id="svg1"
   xml:space="preserve"
   inkscape:version="1.4 (1:1.4+202410161351+e7c3feb100)"
   sodipodi:docname="hackPGH_logo_01.svg"
   xmlns:inkscape="http://www.inkscape.org/namespaces/inkscape"
   xmlns:sodipodi="http://sodipodi.sourceforge.net/DTD/sodipodi-0.dtd"
   xmlns="http://www.w3.org/2000/svg"
   xmlns:svg="http://www.w3.org/2000/svg"><sodipodi:namedview
     id="namedview1"
     pagecolor="#ffffff"
     bordercolor="#999999"
     borderopacity="1"
     inkscape:showpageshadow="2"
     inkscape:pageopacity="0"
     inkscape:pagecheckerboard="0"
     inkscape:deskcolor="#d1d1d1"
     inkscape:document-units="mm"
     inkscape:zoom="0.69397447"
     inkscape:cx="594.40227"
     inkscape:cy="123.20338"
     inkscape:window-width="1920"
     inkscape:window-height="1011"
     inkscape:window-x="0"
     inkscape:window-y="0"
     inkscape:window-maximized="1"
     inkscape:current-layer="layer1" /><defs
     id="defs1" /><g
     inkscape:label="Layer 1"
     inkscape:groupmode="layer"
     id="layer1"
     transform="translate(52.635554,-207.20112)"><path
       style="fill:#000000"
       d="m -3.4883676,294.90485 c 0.10868,-0.1939 0.8524437,-1.14416 1.6528083,-2.1117 1.65188308,-1.9969 3.4650123,-3.64272 8.2032199,-7.44623 3.358939,-2.69633 4.3188694,-3.77585 5.2632244,-5.91892 1.025386,-2.32696 1.280994,-6.07679 0.482714,-7.08151 -0.193194,-0.24315 -0.127337,-0.44756 0.232936,-0.72298 1.350193,-1.03218 1.625148,0.18931 0.995744,4.4236 -0.652016,4.38642 -1.719855,5.94825 -6.7111714,9.81581 -3.254379,2.52168 -6.66702282,5.73493 -8.1969742,7.71803 -0.5964254,0.77308 -1.3174404,1.46654 -1.6022555,1.54102 -0.3754187,0.0982 -0.4634982,0.0385 -0.3202455,-0.21712 z m -0.7279907,-2.01867 c 5.098e-4,-2.1979 0.7629336,-19.60827 0.8615961,-19.67502 1.3892147,-0.93988 3.38173888,-1.98088 3.79150268,-1.98088 0.2981399,0 1.17073872,-0.18669 1.93910852,-0.41487 0.7683696,-0.22818 1.4500536,-0.36186 1.5148526,-0.29706 0.0648,0.0648 1.072325,2.89963 2.238948,6.29962 2.03028,5.91702 2.100305,6.1989 1.634878,6.58091 -0.26744,0.21951 -1.731485,1.40995 -3.253432,2.64541 -3.71342422,3.01444 -6.1139461,5.30901 -7.5430011,7.21007 l -1.1849038,1.57627 z m 3.2139701,1.03212 c 1.04562338,-1.48709 4.7556708,-5.0406 7.3505788,-7.04043 l 2.495208,-1.923 1.051686,2.96688 c 1.0078604,2.84325 1.0312924,2.9818 0.5622944,3.32474 -1.3208764,0.96585 -9.61276132,3.53171 -11.41313972,3.53171 H -1.6070091 Z m -21.5542808,-0.85044 c -3.415609,-1.17565 -7.419916,-3.15889 -10.367432,-5.13475 -2.403836,-1.61141 -6.763332,-5.22061 -6.931048,-5.73817 -0.04993,-0.15408 1.310539,-0.95634 3.02326,-1.78281 1.733701,-0.83659 4.110918,-2.26098 5.362997,-3.21344 2.437092,-1.85388 8.06238,-7.24243 11.75477,-11.26007 l 2.310055,-2.51355 -1.772267,2.3737 -1.772268,2.37369 0.171286,1.72735 c 0.421254,4.24819 0.478499,5.29839 0.322653,5.91933 -0.09148,0.36448 -1.068301,1.9882 -2.170716,3.60827 -3.114323,4.57669 -6.24121,9.91183 -5.879977,10.0325 0.693699,0.23174 5.269821,-5.38514 10.001782,-12.2765 1.49883,-2.18282 3.247942,-4.65085 3.886915,-5.48452 0.638973,-0.83368 1.326815,-1.90524 1.528537,-2.38125 0.201723,-0.47602 0.62334,-1.08117 0.936929,-1.3448 0.313588,-0.26362 0.504441,-0.65057 0.424117,-0.85989 -0.228001,-0.59417 0.290152,-0.44665 0.754251,0.21473 0.39435,0.56198 0.384079,0.60334 -0.183434,0.73875 -0.411434,0.0982 -0.709501,0.47395 -0.944393,1.19063 -0.188769,0.57595 -0.607125,1.29381 -0.929679,1.59524 -0.322555,0.30143 -1.045181,1.33243 -1.605838,2.29111 -0.560656,0.95868 -1.498363,2.3194 -2.083793,3.02382 -1.187144,1.42843 -1.784347,2.65043 -1.784347,3.65113 0,0.36717 -0.598785,1.81909 -1.330633,3.2265 -0.731848,1.4074 -1.295568,2.66411 -1.252711,2.79268 0.0974,0.29219 11.05001,-15.99204 11.05001,-16.42903 0,-0.21907 0.280346,-0.26628 0.8957418,-0.15083 1.0296268,0.19316 1.4529251,-0.20578 0.912974,-0.86043 -0.3162579,-0.38344 -0.2927984,-0.39626 0.2226384,-0.12165 0.31688,0.16882 0.7526182,0.23923 0.968307,0.15646 0.2156888,-0.0828 0.7708414,0.0453 1.2336725,0.28468 0.4628311,0.23934 1.0093586,0.37075 1.2145055,0.29203 0.4530778,-0.17386 0.4913099,-1.55995 0.065094,-2.35994 -0.2783343,-0.52243 -0.2656308,-0.54305 0.1322916,-0.2148 0.2421059,0.19972 0.4401925,0.69116 0.4401925,1.09209 0,1.11971 0.4558596,1.33048 2.3105925,1.06832 1.88861018,-0.26696 1.96052138,-0.30276 3.6697223,-1.82685 1.1481658,-1.02381 1.4503198,-1.15986 2.6532038,-1.19459 1.308104,-0.0378 1.382033,-10e-4 2.032681,1.01109 0.371363,0.57765 0.615029,1.14765 0.541479,1.26666 -0.323845,0.52399 -3.570626,1.89873 -5.8497698,2.47688 -1.36870302,0.3472 -2.8418902,0.88287 -3.2737495,1.19038 -0.4318592,0.30751 -1.4644178,0.82193 -2.2945747,1.14315 -1.5041785,0.58204 -1.5234988,0.60375 -5.6104179,6.30589 -4.047804,5.64756 -6.411665,9.35162 -8.359647,13.09917 -0.606224,1.16626 -1.159727,1.91379 -1.411955,1.90691 -0.228171,-0.006 -1.583574,-0.4136 -3.012008,-0.90527 z m 7.521107,-13.96992 c 0.608589,-1.05299 1.985944,-3.19476 3.06079,-4.75949 1.074846,-1.56473 2.0322329,-3.05301 2.127527,-3.30729 0.747902,-1.99571 -5.321528,6.73859 -6.839644,9.84268 -0.765586,1.5654 -0.768253,1.58487 -0.119155,0.86993 0.365177,-0.40221 1.161894,-1.59283 1.770482,-2.64583 z m 33.904631,-1.72673 c -4.094606,-5.02478 -5.094211,-6.49343 -5.094211,-7.48456 0,-0.3035 -0.505736,-1.485 -1.123858,-2.62558 l -1.123857,-2.07377 0.736247,-1.50118 c 0.46147,-0.94092 0.864152,-1.45209 1.07896,-1.36966 0.271945,0.10435 16.124512,10.83332 16.552409,11.20262 0.391542,0.33792 -6.193163,8.85095 -6.816779,8.81307 -0.09625,-0.006 -1.990258,-2.23827 -4.208911,-4.96094 z m 38.465464,-3.13028 c -0.30465,-4.02748 -1.859008,-52.73701 -1.688324,-52.90769 0.232672,-0.23267 190.893561,-6.8804 191.110561,-6.66341 0.19301,0.19301 2.13178,54.63555 1.95178,54.80803 -0.0638,0.0611 -41.54973,1.55125 -92.19098,3.31139 -50.64125,1.76014 -93.638832,3.27586 -95.550178,3.36827 l -3.475174,0.16801 z m 24.528812,-12.73409 c 0.159313,-0.25955 -0.711504,-25.39215 -0.884321,-25.52232 -0.07276,-0.0548 -1.769401,-0.0529 -3.770312,0.004 l -3.638021,0.10387 0.0069,1.09852 c 0.0038,0.60418 0.179281,5.68242 0.390003,11.28498 0.210722,5.60255 0.386224,10.87106 0.390003,11.70781 l 0.0069,1.52135 h 3.688552 c 2.028703,0 3.743362,-0.0893 3.810352,-0.19844 z m 14.454681,-1.20457 c -0.004,-0.46527 -0.17967,-5.37032 -0.39091,-10.90011 -0.21124,-5.52979 -0.38676,-10.92064 -0.39004,-11.97966 l -0.006,-1.9255 -3.770311,0.0734 -3.770312,0.0734 0.100693,4.78876 0.100693,4.78875 -0.62986,0.16857 c -0.346423,0.0927 -1.570065,0.1702 -2.719204,0.17219 l -2.089345,0.004 0.171116,2.02429 c 0.09411,1.11337 0.171115,2.4985 0.171115,3.07809 v 1.05378 l 2.610556,-0.1257 2.610557,-0.12571 0.167568,1.98234 c 0.09216,1.09028 0.167569,3.25421 0.167569,4.80873 0,1.55452 0.04923,2.87601 0.109393,2.93664 0.06017,0.0606 1.786572,0.0742 3.836458,0.0302 l 3.727064,-0.0801 z m 11.979234,-0.0305 c 0.78029,-0.51413 0.86041,-0.96322 0.56126,-3.14581 -0.16007,-1.16781 -0.2025,-1.21663 -1.12448,-1.2937 -0.86832,-0.0726 -0.98159,-0.17504 -1.2083,-1.09299 -0.32694,-1.32379 0.0257,-1.87386 1.26915,-1.97963 l 0.96539,-0.0821 v -1.28531 c 0,-2.08494 -0.0422,-2.12233 -2.39654,-2.12233 -3.09682,0 -4.57289,0.39305 -5.51786,1.46932 -0.958054,1.09116 -1.184464,2.15883 -1.028634,4.85074 0.14235,2.45886 0.920274,4.07911 2.328454,4.84966 1.22992,0.673 5.03287,0.56924 6.15156,-0.16784 z m 9.10768,0.01 c 0.16457,-0.12565 -0.50837,-13.79788 -0.73488,-14.93042 -0.38848,-1.94243 -1.4538,-3.10272 -3.35667,-3.65589 -1.19555,-0.34756 -2.28402,-0.40286 -5.72659,-0.29095 -2.33777,0.076 -4.95144,0.28916 -5.80816,0.47371 l -1.55768,0.33555 0.1533,2.36621 c 0.0843,1.30141 0.19146,2.40436 0.23809,2.451 0.0466,0.0466 1.69064,-0.0459 3.65334,-0.20556 4.38272,-0.35659 5.46014,-0.20425 5.65227,0.7992 0.0757,0.39557 0.21685,3.39812 0.31358,6.67234 0.0967,3.27422 0.21782,6.02431 0.26909,6.11131 0.0742,0.12587 6.73357,0.004 6.90431,-0.1265 z m 15.55654,-0.44655 c 2.39508,-0.41709 2.34715,-0.34824 2.1323,-3.06273 l -0.18601,-2.35021 -2.23713,0.24583 c -2.76934,0.3043 -4.06173,0.0372 -4.52658,-0.93542 -0.21234,-0.44431 -0.41867,-2.9173 -0.56974,-6.82893 -0.13026,-3.37281 -0.27929,-6.17206 -0.33117,-6.22056 -0.0519,-0.0485 -0.91853,0.12077 -1.92589,0.37616 -1.54372,0.39135 -2.00835,0.65144 -2.9565,1.65495 -1.57208,1.66388 -1.77016,2.62397 -1.65298,8.01215 0.0933,4.29122 0.1321,4.56929 0.83839,6.01289 1.25156,2.5581 2.87151,3.33163 7.03619,3.3598 1.51604,0.0103 3.48665,-0.10852 4.37912,-0.26393 z m 12.74966,-0.60497 c 0.0798,-0.0741 -0.94445,-27.48799 -1.03026,-27.5738 -0.0477,-0.0477 -1.60084,-0.0151 -3.45154,0.0724 l -3.36489,0.15899 -0.004,1.34885 c -0.007,2.64313 0.8342,25.69709 0.95085,26.05285 0.0967,0.29507 0.74436,0.32677 3.48842,0.17079 1.85329,-0.10535 3.38828,-0.20887 3.4111,-0.23004 z m 11.85674,-0.42239 c 0.0855,-0.13838 -1.16032,-2.38413 -2.76855,-4.99054 l -2.92404,-4.73894 2.51958,-4.39394 c 1.38576,-2.41666 2.51958,-4.53159 2.51958,-4.69982 0,-0.20148 -0.28222,-0.24945 -0.82683,-0.14052 -0.45475,0.0909 -2.05178,0.16536 -3.54896,0.16536 h -2.72214 l -1.51636,2.84427 -1.51635,2.84427 0.054,3.96875 0.0539,3.96875 1.63793,2.71123 1.63792,2.71122 3.62241,7.5e-4 c 2.00582,4.2e-4 3.6918,-0.11152 3.7779,-0.25084 z m 10.35891,-0.3538 c 0.0351,-0.0351 -0.13633,-5.77711 -0.38101,-12.75996 l -0.44488,-12.6961 -3.70276,0.0868 c -2.03652,0.0477 -3.7419,0.12593 -3.78973,0.17376 -0.0478,0.0478 0.10056,5.18799 0.32975,11.42258 0.22918,6.23459 0.41651,11.97904 0.41628,12.76543 l -4.1e-4,1.42981 3.75445,-0.17922 c 2.06495,-0.0986 3.78319,-0.20797 3.81831,-0.24309 z m 27.87849,-2.37116 c -0.002,-1.05503 -0.0767,-2.36472 -0.16691,-2.91042 -0.15414,-0.93257 -0.22153,-0.99242 -1.12156,-0.99609 -1.35938,-0.006 -2.20651,-0.51067 -2.76334,-1.64773 -0.38838,-0.79308 -0.53194,-2.06095 -0.73377,-6.4802 -0.138,-3.02181 -0.32044,-6.96623 -0.40542,-8.76537 l -0.1545,-3.27116 -0.96381,0.15544 c -1.6133,0.26018 -3.78566,1.53282 -4.58502,2.68603 -1.20599,1.73987 -1.55913,3.68904 -1.55947,8.60764 -8.1e-4,11.60574 2.0001,14.36015 10.53849,14.50708 l 1.91823,0.033 z m 5.14159,1.22941 c 1.4981,-0.23332 2.87325,-0.51658 3.05588,-0.62945 0.26233,-0.16213 0.28409,-1.72321 0.10364,-7.43514 l -0.2284,-7.22993 -3.83646,0.063 c -2.11005,0.0347 -4.31271,0.12736 -4.89479,0.20599 l -1.05834,0.14296 0.0837,2.62631 0.0837,2.62631 h 1.26652 1.26652 l 0.17112,2.02429 c 0.0941,1.11336 0.17111,3.37555 0.17111,5.02708 0,3.501 -0.39464,3.23432 3.81576,2.57856 z m 15.4558,-0.51269 c 0.0491,-0.0437 -0.0998,-5.23836 -0.33089,-11.54367 -0.2311,-6.30531 -0.4201,-12.03874 -0.42,-12.74097 l 1.7e-4,-1.27677 -3.68289,0.0862 c -2.02558,0.0474 -3.74129,0.14567 -3.81269,0.21843 -0.10698,0.10903 0.7327,25.48782 0.84544,25.55277 0.10394,0.0599 7.32555,-0.22889 7.40086,-0.29594 z m 14.30564,-0.55225 c 0.10501,-0.0906 -0.34503,-14.63749 -0.67629,-21.86031 l -0.16685,-3.63802 h -2.57177 c -1.41447,0 -3.13412,0.0771 -3.82145,0.17129 -1.2256,0.16799 -1.24694,0.18711 -1.10727,0.99219 0.0783,0.45149 0.17168,2.60684 0.20744,4.78965 l 0.065,3.96875 -2.6327,0.13229 c -1.87988,0.0945 -2.62514,0.22686 -2.60624,0.46302 0.0145,0.1819 0.0443,1.51719 0.0661,2.96731 l 0.0397,2.63657 2.71198,0.0754 2.71198,0.0754 0.16183,4.36562 c 0.089,2.4011 0.17831,4.57308 0.19844,4.82664 0.0336,0.42297 0.33682,0.44723 3.67462,0.29393 2.00091,-0.0919 3.68636,-0.20878 3.74543,-0.25974 z m -57.35083,-5.90477 c 3.74121,-0.39376 5.749,-1.54176 6.73496,-3.85085 0.34942,-0.81834 0.44816,-1.8083 0.43543,-4.36562 -0.033,-6.63646 -1.21855,-8.53388 -5.79036,-9.26753 -1.05549,-0.16938 -2.72974,-0.21579 -3.99859,-0.11084 l -2.18281,0.18054 0.003,1.88693 c 0.002,1.03782 0.0767,2.33342 0.16691,2.87913 l 0.164,0.99218 1.48674,0.004 c 0.8177,0.002 1.65395,0.10992 1.85832,0.23931 0.44504,0.28175 0.86656,2.98397 0.65188,4.17899 -0.20605,1.14702 -0.54604,1.37062 -2.37346,1.56097 l -1.56042,0.16254 0.0827,2.8802 0.0827,2.88019 0.97568,-0.005 c 0.53663,-0.003 2.0052,-0.11306 3.26351,-0.24549 z m -38.93262,-6.88282 c 0,-2.73735 0.16184,-2.59451 -3.21077,-2.83391 l -2.34548,-0.16648 v 2.64135 c 0,1.45275 0.0491,2.69097 0.10911,2.7516 0.06,0.0606 1.31017,0.0726 2.77813,0.0265 l 2.66901,-0.0837 z m 64.50085,-5.9514 4.57273,0.0125 -0.0748,-2.65432 -0.0748,-2.65432 -1.05833,-0.18681 c -1.86215,-0.32869 -7.38151,-0.56343 -8.87455,-0.37744 l -1.4442,0.17991 0.0822,3.03303 0.0822,3.03303 1.10846,-0.199 c 0.60964,-0.10945 3.16617,-0.19339 5.68117,-0.18654 z m -244.909669,36.9546 c -1.036772,-1.61567 -3.004192,-5.55512 -3.703477,-7.41564 -0.37835,-1.00663 -0.439776,-1.43576 -0.216713,-1.51397 0.368135,-0.12908 20.030087,-5.97174 28.3224,-8.41616 l 5.786102,-1.70564 -0.186081,1.89009 c -0.102344,1.03955 -0.209173,1.91333 -0.237398,1.94173 -0.112046,0.11276 -28.366139,16.28844 -28.640663,16.39699 -0.161712,0.0639 -0.667588,-0.46588 -1.12417,-1.1774 z m 56.396746,-3.56342 c -0.299142,-0.32742 -1.2670354,-1.7264 -2.1508734,-3.10885 l -1.606979,-2.51354 1.634597,-0.82735 1.634596,-0.82735 1.4930474,2.69008 c 2.010834,3.623 2.017706,3.65318 1.022646,4.49046 -1.005367,0.84596 -1.328296,0.86135 -2.027034,0.0966 z m -19.0778857,-5.24037 c -0.6275488,-0.27866 -1.4806813,-0.84633 -1.8958493,-1.2615 l -0.754852,-0.75485 1.015329,0.27101 c 0.7644151,0.20403 1.2921387,0.17965 2.1354425,-0.0987 1.0197477,-0.33654 2.3607192,-1.41848 2.3607192,-1.90469 0,-0.1084 -0.7441406,-0.13478 -1.6536458,-0.0586 -1.4022447,0.11741 -1.5788111,0.0866 -1.161404,-0.2025 2.0630304,-1.42898 2.5504665,-1.84842 2.5504665,-2.1947 0,-0.21736 -0.2083594,-0.39949 -0.4630209,-0.40473 -0.3642912,-0.007 -0.3057086,-0.13827 0.2747403,-0.61335 0.8724096,-0.71404 0.7582468,-1.30311 -0.3407699,-1.75833 -0.4155858,-0.17214 -0.962054,-0.5411 -1.2143739,-0.81991 -0.4440885,-0.49072 -0.4330316,-0.50179 0.3456584,-0.34605 1.0151386,0.20303 1.3163741,-0.23489 0.7530141,-1.09468 -0.3913182,-0.59723 -0.3913182,-0.70242 0,-1.29965 0.5800429,-0.88526 0.2965845,-1.20226 -1.0750398,-1.20226 -1.3609369,0 -1.8513601,-0.45682 -0.6207114,-0.57817 0.4644985,-0.0458 0.8933994,-0.23212 0.9531132,-0.41402 0.079872,-0.2433 -0.3782612,-0.33073 -1.7331647,-0.33073 -1.3143188,0 -1.9360588,-0.11365 -2.1711118,-0.39687 -0.386588,-0.46581 -0.175449,-0.50939 0.560271,-0.11565 0.394938,0.21137 0.8178637,0.16957 1.7023979,-0.16823 0.6473028,-0.24721 1.1769141,-0.52923 1.1769141,-0.62671 0,-0.0975 -0.2976562,-0.58068 -0.6614583,-1.07379 -0.8773691,-1.1892 -0.8365434,-1.30172 0.1061534,-0.29256 1.0229538,1.09507 1.6125483,1.08116 1.6172511,-0.0382 0.00425,-1.01148 0.2526401,-2.05045 0.4902667,-2.05068 0.092168,-9e-5 0.1256887,0.60461 0.07449,1.34378 l -0.093089,1.34395 2.0433735,1.89736 c 2.5724112,2.3886 3.2256566,2.69343 4.90736368,2.29 1.44788202,-0.34734 2.25281112,-1.06771 1.97984642,-1.77184 -0.1008227,-0.26009 -0.2361219,-0.87956 -0.3006648,-1.37662 -0.120424,-0.92741 -0.5195708,-1.6098 -0.941612,-1.6098 -0.1310572,0 -0.031948,0.32742 0.2202432,0.7276 l 0.458529,0.72761 -0.726888,-0.7014 c -0.88612982,-0.85506 -1.76855702,-1.10472 -2.6799315,-0.75821 -1.0440612,0.39695 -1.1199807,1.00773 -0.3112101,2.50373 0.4907442,0.90773 0.5519717,1.12471 0.1906627,0.67567 -0.2927218,-0.3638 -0.7444236,-1.05207 -1.0037818,-1.52949 l -0.4715605,-0.86804 0.9905917,-0.93456 c 0.5448254,-0.51402 0.9887684,-1.01637 0.9865401,-1.11634 -0.00896,-0.40183 -0.4397473,-0.82388 -1.0953551,-1.07314 -0.6384364,-0.24273 -0.681278,-0.35602 -0.5557587,-1.46962 0.1729978,-1.53484 -0.2415188,-2.10928 -1.3727228,-1.90234 l -0.8085702,0.14791 0.7464418,-0.40801 c 0.410543,-0.22441 1.363043,-0.8755 2.1166667,-1.44689 0.7704604,-0.58414 1.66898538,-1.03937 2.05277478,-1.04001 0.8376402,-0.001 5.10382692,2.48154 5.81311492,3.38325 0.283686,0.36065 0.515793,0.86806 0.515793,1.12757 0,0.82889 0.308935,1.31822 1.085918,1.72002 1.084102,0.56061 1.647561,1.78631 1.444292,3.14181 -0.144737,0.96517 -0.07789,1.18258 0.53845,1.75108 0.8996771,0.82985 1.4292571,2.07824 1.4292571,3.36922 0,0.79701 0.178955,1.18562 0.826336,1.79443 1.639099,1.54145 1.763376,2.65961 0.558167,5.02201 -0.430858,0.84456 -0.978534,1.30052 -2.7472581,2.28723 -1.215016,0.67781 -2.903733,1.43149 -3.752704,1.67484 -1.537522,0.44072 -1.546159,0.44004 -2.199324,-0.17358 -0.360657,-0.33882 -0.8884868,-0.99262 -1.1729548,-1.4529 -0.2844679,-0.46028 -0.8036425,-0.90876 -1.1537212,-0.99663 -0.97559642,-0.24486 -2.11667752,-1.33259 -2.6585519,-2.53425 -0.5013867,-1.11188 -0.9165213,-1.03843 -0.9251041,0.16366 -0.00223,0.3121 -0.2482833,1.35818 -0.5467888,2.32462 -0.3959564,1.28196 -0.8488004,2.07661 -1.6744375,2.93829 -1.3034201,1.36033 -2.1551342,1.49322 -4.083198,0.63709 z m 14.8552393,-1.70222 c 1.096324,-0.14921 1.463732,-0.3695 2.574515,-1.54359 0.712629,-0.75325 1.2980184,-1.5038 1.3008634,-1.66788 0.0028,-0.16408 0.183766,-0.44655 0.402047,-0.62771 0.544082,-0.45155 0.497609,-1.14974 -0.113331,-1.70263 -0.6213324,-0.5623 -0.8354554,-0.50428 -4.5631224,1.23641 -2.281435,1.06534 -2.8857659,1.46709 -3.1437509,2.08993 -0.2736523,0.66065 -0.2489903,0.85532 0.1722489,1.35961 0.799008,0.95654 1.244997,1.25933 1.680951,1.14121 0.225915,-0.0612 0.986225,-0.18962 1.689579,-0.28535 z m -6.16186882,-4.91946 c 0.2709562,-0.50629 0.3325962,-0.51705 0.7577467,-0.13229 0.92911592,0.84083 1.82480522,0.53062 3.40498012,-1.17928 l 1.476857,-1.5981 1.473813,0.0768 1.473814,0.0767 0.08303,-0.86148 c 0.05475,-0.56812 -0.115947,-1.14093 -0.501269,-1.68206 -0.509446,-0.71545 -0.699887,-0.80181 -1.486614,-0.67415 -0.496275,0.0805 -1.699455,0.72822 -2.673732,1.4393 -0.9742772,0.71108 -2.2476632,1.57306 -2.8297466,1.91552 -0.98656612,0.58042 -1.02576642,0.58521 -0.57807682,0.0706 0.51645692,-0.59367 0.44084502,-0.70236 -0.6738816,-0.96872 -0.4350077,-0.10394 -0.8889058,-0.49393 -1.14000008,-0.9795 -0.4355095,-0.84218 -0.8264027,-0.90003 -1.2750974,-0.1887 -0.36773,0.58298 0.4012596,1.69909 1.54713458,2.24552 l 0.8968857,0.4277 -0.8125845,0.75906 c -0.78689338,0.73507 -0.79763228,0.77559 -0.33966248,1.28164 0.59990128,0.66289 0.82929328,0.65741 1.19640538,-0.0285 z m 4.67855482,-9.23847 c 0.37,-0.29104 0.949688,-0.52916 1.288197,-0.52916 0.338508,0 0.85691,-0.25916 1.152004,-0.57591 0.521797,-0.56008 0.523503,-0.59821 0.06213,-1.38819 -0.260924,-0.44677 -0.658824,-0.84781 -0.884224,-0.89122 -0.677273,-0.13043 -3.3979909,2.25568 -3.3979909,2.9801 0,0.5677 0.2792989,0.85595 0.8843089,0.91266 0.122568,0.0115 0.525578,-0.21724 0.895577,-0.50828 z m -2.8382192,-3.98436 c 0,-1.12686 0.3960486,-1.65608 1.8106462,-2.41948 1.668278,-0.9003 0.767913,-1.83236 -2.2075212,-2.28523 -1.01864592,-0.15504 -2.09704092,-0.35491 -2.39643352,-0.44415 -0.34762218,-0.10362 -0.77791348,0.0321 -1.19062498,0.37564 l -0.6462749,0.53789 0.7128501,0.009 c 1.25996658,0.0156 2.04748128,0.99132 2.35340668,2.91596 0.4080181,2.56693 1.56395162,3.53558 1.56395162,1.31056 z M -13.136357,263.2408 c -2.105759,-2.10576 -2.183657,-2.1551 -2.685536,-1.70091 -0.508896,0.46055 -0.511417,0.45193 -0.163361,-0.55831 0.194431,-0.56434 0.450728,-1.79323 0.56955,-2.73087 l 0.216039,-1.70479 0.185719,2.11666 c 0.102145,1.16417 0.211882,2.27231 0.243858,2.46253 0.03198,0.19022 0.625167,0.85566 1.318201,1.47876 1.17786,1.059 2.781439,2.80559 2.575864,2.80559 -0.05042,0 -1.067569,-0.9759 -2.260334,-2.16866 z m 23.862178,0.56122 c -0.09585,-0.30201 -0.133643,-0.57869 -0.08397,-0.61485 0.04967,-0.0362 0.472456,-0.32953 0.939531,-0.65194 l 0.849228,-0.58619 -0.584644,1.20021 c -0.650596,1.33561 -0.863953,1.45994 -1.12014,0.65277 z m 13.083555,-3.13518 c -9.921869,-3.51878 -10.23439,-3.6509 -11.221682,-4.74371 -0.666195,-0.7374 -1.023526,-1.39253 -1.038685,-1.90433 -0.01271,-0.42912 0.01289,-0.7802 0.05689,-0.78019 0.044,1e-5 5.360471,0.65486 11.81438,1.45522 6.453909,0.80037 11.880357,1.45521 12.058775,1.45521 0.237707,0 0.276491,0.3712 0.145136,1.38907 -0.205012,1.58861 -1.191818,6.00332 -1.441737,6.44994 -0.112118,0.20036 -3.519764,-0.89068 -10.373076,-3.32121 z m -41.255352,2.52606 c 0,-0.0549 0.20836,-0.2633 0.463021,-0.46302 0.419644,-0.32911 0.429002,-0.31975 0.09989,0.0999 -0.345644,0.44073 -0.562916,0.58089 -0.562916,0.36313 z m -35.180926,-11.91134 c 0.0078,-2.89116 0.320403,-6.66227 0.573188,-6.91506 0.09093,-0.0909 23.688115,3.27535 32.887947,4.69167 l 3.968749,0.611 -0.09032,1.18941 c -0.04968,0.65418 -0.12142,1.22147 -0.159425,1.26065 -0.03801,0.0392 -3.926421,0.30436 -8.640924,0.58929 -20.285216,1.22599 -26.107949,1.58371 -27.291096,1.67664 l -1.256771,0.0987 z m 37.87834,1.82477 c 0.0054,-0.43656 0.06469,-0.58312 0.131773,-0.32569 0.06708,0.25743 0.06267,0.61462 -0.0098,0.79375 -0.07248,0.17913 -0.127362,-0.0315 -0.12197,-0.46806 z m 0.258632,-4.3115 c -0.04146,-2.23451 0.0091,-2.51416 0.552925,-3.05798 0.668426,-0.66842 4.0597753,-2.14569 5.4868624,-2.39007 0.5556188,-0.0952 0.2381134,0.0897 -0.79375,0.46212 -2.4496284,0.88411 -4.3963484,1.9192 -4.6494034,2.47214 -0.119637,0.26141 -0.292556,1.48733 -0.384264,2.72425 l -0.166741,2.24896 z m 24.0831026,0.0188 0.08064,-1.24998 6.4822924,-2.08066 c 3.56526,-1.14435 9.009756,-2.90358 12.09888,-3.90939 3.089123,-1.0058 5.792198,-1.82873 6.006834,-1.82873 0.225528,0 0.506665,0.41879 0.666064,0.99218 0.325435,1.17068 1.159984,6.68471 1.029609,6.80284 -0.117112,0.10612 -24.745368,2.52373 -25.709235,2.52373 -0.7121424,0 -0.7331444,-0.0401 -0.6550874,-1.24999 z m -41.5707846,-9.09621 c -9.083806,-3.62469 -16.578646,-6.65297 -16.655201,-6.72953 -0.376117,-0.37612 4.679439,-8.88292 5.862683,-9.86493 0.311531,-0.25854 2.114935,0.92739 9.883074,6.49918 21.435986,15.37523 20.222269,14.46789 19.734529,14.75293 -0.249,0.14553 -0.832645,0.65154 -1.296988,1.12448 -0.464343,0.47295 -0.882021,0.84827 -0.928173,0.83406 -0.04615,-0.0142 -7.516118,-2.9915 -16.599924,-6.61619 z m 39.1378856,4.78813 c 0,-0.32318 -0.260574,-1.05122 -0.579055,-1.61788 l -0.579055,-1.03029 0.800793,-0.85782 c 0.440437,-0.4718 4.3505804,-4.84641 8.6892084,-9.72136 4.338628,-4.87495 8.161703,-9.15229 8.495722,-9.5052 l 0.607307,-0.64165 0.545133,0.64165 c 2.503823,2.94715 5.956643,8.16515 5.618584,8.49095 -0.270598,0.26079 -22.8806864,14.54234 -23.2679074,14.69705 -0.204971,0.0819 -0.33073,-0.0913 -0.33073,-0.45545 z m -17.5855026,-2.2701 c -0.246645,-0.37643 -0.399066,-0.73379 -0.338714,-0.79414 0.470233,-0.47024 7.9835328,-4.56795 8.1672743,-4.4544 0.1296383,0.0801 0.4131346,0.48879 0.6299918,0.90814 0.3676027,0.71087 0.3565815,0.78888 -0.1628563,1.15271 -0.3064283,0.21463 -0.4875113,0.5029 -0.4024067,0.6406 0.3662194,0.59256 -1.9886694,1.88891 -4.8936407,2.69391 -2.4434164,0.67711 -2.4603328,0.67628 -2.9996484,-0.14682 z m 4.8358937,0.23909 c 0.1909961,-0.0764 0.4191992,-0.067 0.507118,0.0209 0.087919,0.0879 -0.068351,0.15045 -0.3472656,0.13896 -0.3082245,-0.0127 -0.3709192,-0.0754 -0.1598524,-0.15985 z m -4.7885977,-2.38592 c 0.100246,-0.26182 0.4111895,-0.66175 0.6909856,-0.88871 0.4799013,-0.3893 0.4844834,-0.45954 0.080885,-1.24001 -0.2353094,-0.45504 -0.3579152,-1.04325 -0.2724573,-1.30713 0.1047891,-0.32357 0.078383,-0.37343 -0.081103,-0.15314 -0.2680423,0.37022 -9.0738543,-15.47877 -9.0738543,-16.33143 0,-0.27524 0.114528,-0.57122 0.254505,-0.65773 0.140745,-0.087 -0.510731,-1.66097 -1.45749,-3.52134 -0.941597,-1.85023 -1.778405,-3.72124 -1.859574,-4.1578 l -0.14758,-0.79375 0.676471,0.79375 c 0.372059,0.43656 1.467351,2.1332 2.433983,3.77031 1.207013,2.04422 1.907133,2.97656 2.235186,2.97656 0.685775,0 2.081833,1.36331 2.034844,1.98712 -0.0325,0.43149 7.9723352,15.0584 8.8706357,16.20894 0.210633,0.26978 0.3850567,0.25664 0.8776802,-0.0661 0.674522,-0.44196 1.5477163,-0.54735 1.3069188,-0.15773 -0.083316,0.13481 -1.1321399,0.78584 -2.3307191,1.44675 -1.1985791,0.6609 -2.6837628,1.50896 -3.3004083,1.88458 -0.9412123,0.57333 -1.0919183,0.60654 -0.9389083,0.2069 z m 2.456957,-3.38646 c 0,-0.21828 -0.1785937,-0.39688 -0.396875,-0.39688 -0.2182812,0 -0.396875,0.1786 -0.396875,0.39688 0,0.21828 0.1785938,0.39687 0.396875,0.39687 0.2182813,0 0.396875,-0.17859 0.396875,-0.39687 z m -1.0583333,-1.74184 c 0,-0.6448 -0.6182712,-0.55366 -0.7470045,0.11012 -0.050634,0.26108 0.084339,0.44109 0.3307292,0.44109 0.2454368,0 0.4162753,-0.22621 0.4162753,-0.55121 z m 1.8520833,0.30224 c 0,-0.31217 -0.5160312,-0.64611 -0.7055555,-0.45658 -0.1895243,0.18952 0.1444157,0.70555 0.4565871,0.70555 0.1369326,0 0.2489684,-0.11203 0.2489684,-0.24897 z m -3.65566,-0.6021 c -0.189855,-0.18986 -0.31309,-0.20548 -0.31309,-0.0397 0,0.35316 0.312899,0.66606 0.489479,0.48948 0.07519,-0.0752 -0.0042,-0.27759 -0.176389,-0.44979 z m 0.9522273,-1.4893 c 0.075823,-0.22771 -0.051396,-0.32305 -0.3530253,-0.26458 -0.259362,0.0503 -0.524911,0.25161 -0.590109,0.44741 -0.07582,0.22771 0.0514,0.32305 0.353025,0.26458 0.259362,-0.0503 0.524911,-0.25161 0.5901093,-0.44741 z m 1.5128077,0.22371 c -0.089937,-0.14552 -0.2825839,-0.26459 -0.4281048,-0.26459 -0.1455208,0 -0.1909986,0.11907 -0.1010618,0.26459 0.089937,0.14552 0.282584,0.26458 0.4281048,0.26458 0.1455208,0 0.1909987,-0.11906 0.1010618,-0.26458 z m -1.0307725,-2.04501 c -0.2689531,-0.26896 -0.4908677,0.13597 -0.2701971,0.49302 0.1666967,0.26972 0.2290173,0.26993 0.3186382,0.001 0.061276,-0.18382 0.039478,-0.40616 -0.048441,-0.49408 z m -5.5222925,3.32294 c -5.48922,-7.3922 -15.661671,-21.20175 -15.881614,-21.55999 -0.422402,-0.68801 6.907068,-3.88933 11.715507,-5.11704 2.545729,-0.64998 3.10629,-0.66147 3.271849,-0.067 0.259699,0.93242 2.661798,8.83136 4.56096,14.99804 1.0727,3.48311 1.9080811,6.37521 1.8564015,6.42689 -0.05168,0.0517 -1.1710115,-1.80966 -2.4874045,-4.13631 -1.624701,-2.87157 -2.348017,-4.40397 -2.252015,-4.77109 0.165282,-0.63203 -1.110742,-1.95856 -2.410304,-2.5057 -0.618209,-0.26028 -1.092786,-0.86524 -1.956792,-2.49441 -1.256572,-2.36938 -3.319421,-5.07002 -3.872668,-5.07002 -1.058978,0 -0.484632,2.26918 1.521689,6.01202 1.182798,2.20655 1.35059,2.69246 1.138248,3.29625 -0.221784,0.63064 0.292145,1.69761 4.693135,9.74353 l 4.942193,9.03534 -0.520698,0.66196 -0.520699,0.66196 z m 16.1101992,4.36447 c -0.41888872,-0.2218 -1.07373252,-0.34551 -1.45520832,-0.27491 -0.6249743,0.11566 -0.7655756,-0.0221 -1.42119668,-1.39211 l -0.7276042,-1.52048 v -14.32433 -14.32432 l 0.7276042,0.006 c 2.24400198,0.0177 8.6419684,1.94374 12.4258198,3.74073 2.137643,1.01519 2.168785,1.04386 1.902538,1.75167 -1.384402,3.68039 -10.3955663,26.42596 -10.5234194,26.56274 -0.091805,0.0982 -0.5096447,-0.003 -0.9285334,-0.22471 z"
       id="path1" /></g></svg>
