  0
SECTION
  2
HEADER
  9
$ACADVER
  1
AC1014
  9
$HANDSEED
  5
FFFF
  9
$INSUNITS
 70
     4
  9
$MEASUREMENT
 70
     1
  0
ENDSEC
  0
SECTION
  2
TABLES
  0
TABLE
  2
VPORT
  5
8
330
0
100
AcDbSymbolTable
 70
     4
  0
VPORT
  5
2E
330
8
100
AcDbSymbolTableRecord
100
AcDbViewportTableRecord
  2
*ACTIVE
 70
     0
 10
0.0
 20
0.0
 11
1.0
 21
1.0
 12
210.0
 22
148.5
 13
0.0
 23
0.0
 14
10.0
 24
10.0
 15
10.0
 25
10.0
 16
0.0
 26
0.0
 36
1.0
 17
0.0
 27
0.0
 37
0.0
 40
341.0
 41
1.24
 42
50.0
 43
0.0
 44
0.0
 50
0.0
 51
0.0
 71
     0
 72
   100
 73
     1
 74
     3
 75
     0
 76
     0
 77
     0
 78
     0
  0
ENDTAB
  0
TABLE
  2
LTYPE
  5
5
330
0
100
AcDbSymbolTable
 70
     1
  0
LTYPE
  5
14
330
5
100
AcDbSymbolTableRecord
100
AcDbLinetypeTableRecord
  2
BYBLOCK
 70
     0
  3

 72
    65
 73
     0
 40
0.0
  0
LTYPE
  5
15
330
5
100
AcDbSymbolTableRecord
100
AcDbLinetypeTableRecord
  2
BYLAYER
 70
     0
  3

 72
    65
 73
     0
 40
0.0
  0
LTYPE
  5
16
330
5
100
AcDbSymbolTableRecord
100
AcDbLinetypeTableRecord
  2
CONTINUOUS
 70
     0
  3
Solid line
 72
    65
 73
     0
 40
0.0
  0
ENDTAB
  0
TABLE
  2
LAYER
  5
2
100
AcDbSymbolTable
 70
2
  0
LAYER
  5
50
100
AcDbSymbolTableRecord
100
AcDbLayerTableRecord
  2
0
 70
0
  6
CONTINUOUS
  0
LAYER
  5
51
100
AcDbSymbolTableRecord
100
AcDbLayerTableRecord
  2
Layer_1
 70
0
  6
CONTINUOUS
  0
ENDTAB
  0
TABLE
  2
STYLE
  5
3
330
0
100
AcDbSymbolTable
 70
     1
  0
STYLE
  5
11
330
3
100
AcDbSymbolTableRecord
100
AcDbTextStyleTableRecord
  2
STANDARD
 70
     0
 40
0.0
 41
1.0
 50
0.0
 71
     0
 42
2.5
  3
txt
  4

  0
ENDTAB
  0
TABLE
  2
VIEW
  5
6
330
0
100
AcDbSymbolTable
 70
     0
  0
ENDTAB
  0
TABLE
  2
UCS
  5
7
330
0
100
AcDbSymbolTable
 70
     0
  0
ENDTAB
  0
TABLE
  2
APPID
  5
9
330
0
100
AcDbSymbolTable
 70
     2
  0
APPID
  5
12
330
9
100
AcDbSymbolTableRecord
100
AcDbRegAppTableRecord
  2
ACAD
 70
     0
  0
ENDTAB
  0
TABLE
  2
DIMSTYLE
  5
A
330
0
100
AcDbSymbolTable
 70
     1
  0
DIMSTYLE
105
27
330
A
100
AcDbSymbolTableRecord
100
AcDbDimStyleTableRecord
  2
ISO-25
 70
     0
  3

  4

  5

  6

  7

 40
1.0
 41
2.5
 42
0.625
 43
3.75
 44
1.25
 45
0.0
 46
0.0
 47
0.0
 48
0.0
140
2.5
141
2.5
142
0.0
143
0.03937007874016
144
1.0
145
0.0
146
1.0
147
0.625
 71
     0
 72
     0
 73
     0
 74
     0
 75
     0
 76
     0
 77
     1
 78
     8
170
     0
171
     3
172
     1
173
     0
174
     0
175
     0
176
     0
177
     0
178
     0
270
     2
271
     2
272
     2
273
     2
274
     3
340
11
275
     0
280
     0
281
     0
282
     0
283
     0
284
     8
285
     0
286
     0
287
     3
288
     0
  0
ENDTAB
  0
TABLE
  2
BLOCK_RECORD
  5
1
330
0
100
AcDbSymbolTable
 70
     1
  0
BLOCK_RECORD
  5
1F
330
1
100
AcDbSymbolTableRecord
100
AcDbBlockTableRecord
  2
*MODEL_SPACE
  0
BLOCK_RECORD
  5
1B
330
1
100
AcDbSymbolTableRecord
100
AcDbBlockTableRecord
  2
*PAPER_SPACE
  0
ENDTAB
  0
ENDSEC
  0
SECTION
  2
BLOCKS
  0
BLOCK
  5
20
330
1F
100
AcDbEntity
  8
0
100
AcDbBlockBegin
  2
*MODEL_SPACE
 70
     0
 10
0.0
 20
0.0
 30
0.0
  3
*MODEL_SPACE
  1

  0
ENDBLK
  5
21
330
1F
100
AcDbEntity
  8
0
100
AcDbBlockEnd
  0
BLOCK
  5
1C
330
1B
100
AcDbEntity
 67
     1
  8
0
100
AcDbBlockBegin
  2
*PAPER_SPACE
  1

  0
ENDBLK
  5
1D
330
1B
100
AcDbEntity
 67
     1
  8
0
100
AcDbBlockEnd
  0
ENDSEC
  0
SECTION
  2
ENTITIES
  0
SPLINE
  5
100
100
AcDbEntity
  8
Layer_1
 62
7
100
AcDbSpline
 70
8
 71
3
 72
8
 73
4
 74
0
 40
0
 40
0
 40
0
 40
0
 40
1
 40
1
 40
1
 40
1
 10
49.147232
 20
0.261719
 30
0.0
 10
49.255912
 20
0.455619
 30
0.0
 10
49.999676
 20
1.405879
 30
0.0
 10
50.800041
 20
2.373419
 30
0.0
  0
SPLINE
  5
101
100
AcDbEntity
  8
Layer_1
 62
7
100
AcDbSpline
 70
8
 71
3
 72
8
 73
4
 74
0
 40
0
 40
0
 40
0
 40
0
 40
1
 40
1
 40
1
 40
1
 10
50.800041
 20
2.373419
 30
0.0
 10
52.451924
 20
4.370319
 30
0.0
 10
54.265053
 20
6.016139
 30
0.0
 10
59.003261
 20
9.819649
 30
0.0
  0
SPLINE
  5
102
100
AcDbEntity
  8
Layer_1
 62
7
100
AcDbSpline
 70
8
 71
3
 72
8
 73
4
 74
0
 40
0
 40
0
 40
0
 40
0
 40
1
 40
1
 40
1
 40
1
 10
59.003261
 20
9.819649
 30
0.0
 10
62.362200
 20
12.515979
 30
0.0
 10
63.322130
 20
13.595499
 30
0.0
 10
64.266485
 20
15.738569
 30
0.0
  0
SPLINE
  5
103
100
AcDbEntity
  8
Layer_1
 62
7
100
AcDbSpline
 70
8
 71
3
 72
8
 73
4
 74
0
 40
0
 40
0
 40
0
 40
0
 40
1
 40
1
 40
1
 40
1
 10
64.266485
 20
15.738569
 30
0.0
 10
65.291871
 20
18.065529
 30
0.0
 10
65.547479
 20
21.815359
 30
0.0
 10
64.749199
 20
22.820079
 30
0.0
  0
SPLINE
  5
104
100
AcDbEntity
  8
Layer_1
 62
7
100
AcDbSpline
 70
8
 71
3
 72
8
 73
4
 74
0
 40
0
 40
0
 40
0
 40
0
 40
1
 40
1
 40
1
 40
1
 10
64.749199
 20
22.820079
 30
0.0
 10
64.556005
 20
23.063229
 30
0.0
 10
64.621862
 20
23.267639
 30
0.0
 10
64.982135
 20
23.543059
 30
0.0
  0
SPLINE
  5
105
100
AcDbEntity
  8
Layer_1
 62
7
100
AcDbSpline
 70
8
 71
3
 72
8
 73
4
 74
0
 40
0
 40
0
 40
0
 40
0
 40
1
 40
1
 40
1
 40
1
 10
64.982135
 20
23.543059
 30
0.0
 10
66.332328
 20
24.575239
 30
0.0
 10
66.607283
 20
23.353749
 30
0.0
 10
65.977879
 20
19.119459
 30
0.0
  0
SPLINE
  5
106
100
AcDbEntity
  8
Layer_1
 62
7
100
AcDbSpline
 70
8
 71
3
 72
8
 73
4
 74
0
 40
0
 40
0
 40
0
 40
0
 40
1
 40
1
 40
1
 40
1
 10
65.977879
 20
19.119459
 30
0.0
 10
65.325863
 20
14.733039
 30
0.0
 10
64.258024
 20
13.171209
 30
0.0
 10
59.266708
 20
9.303649
 30
0.0
  0
SPLINE
  5
107
100
AcDbEntity
  8
Layer_1
 62
7
100
AcDbSpline
 70
8
 71
3
 72
8
 73
4
 74
0
 40
0
 40
0
 40
0
 40
0
 40
1
 40
1
 40
1
 40
1
 10
59.266708
 20
9.303649
 30
0.0
 10
56.012329
 20
6.781969
 30
0.0
 10
52.599685
 20
3.568719
 30
0.0
 10
51.069733
 20
1.585619
 30
0.0
  0
SPLINE
  5
108
100
AcDbEntity
  8
Layer_1
 62
7
100
AcDbSpline
 70
8
 71
3
 72
8
 73
4
 74
0
 40
0
 40
0
 40
0
 40
0
 40
1
 40
1
 40
1
 40
1
 10
51.069733
 20
1.585619
 30
0.0
 10
50.473308
 20
0.812539
 30
0.0
 10
49.752293
 20
0.119079
 30
0.0
 10
49.467478
 20
0.044599
 30
0.0
  0
SPLINE
  5
109
100
AcDbEntity
  8
Layer_1
 62
7
100
AcDbSpline
 70
8
 71
3
 72
8
 73
4
 74
0
 40
0
 40
0
 40
0
 40
0
 40
1
 40
1
 40
1
 40
1
 10
49.467478
 20
0.044599
 30
0.0
 10
49.092059
 20
-0.053601
 30
0.0
 10
49.003980
 20
0.006099
 30
0.0
 10
49.147232
 20
0.261719
 30
0.0
  0
SPLINE
  5
10a
100
AcDbEntity
  8
Layer_1
 62
7
100
AcDbSpline
 70
8
 71
3
 72
8
 73
4
 74
0
 40
0
 40
0
 40
0
 40
0
 40
1
 40
1
 40
1
 40
1
 10
48.419242
 20
2.280389
 30
0.0
 10
48.419751
 20
4.478289
 30
0.0
 10
49.182175
 20
21.888659
 30
0.0
 10
49.280838
 20
21.955409
 30
0.0
  0
SPLINE
  5
10b
100
AcDbEntity
  8
Layer_1
 62
7
100
AcDbSpline
 70
8
 71
3
 72
8
 73
4
 74
0
 40
0
 40
0
 40
0
 40
0
 40
1
 40
1
 40
1
 40
1
 10
49.280838
 20
21.955409
 30
0.0
 10
50.670052
 20
22.895289
 30
0.0
 10
52.662577
 20
23.936289
 30
0.0
 10
53.072340
 20
23.936289
 30
0.0
  0
SPLINE
  5
10c
100
AcDbEntity
  8
Layer_1
 62
7
100
AcDbSpline
 70
8
 71
3
 72
8
 73
4
 74
0
 40
0
 40
0
 40
0
 40
0
 40
1
 40
1
 40
1
 40
1
 10
53.072340
 20
23.936289
 30
0.0
 10
53.370480
 20
23.936289
 30
0.0
 10
54.243079
 20
24.122979
 30
0.0
 10
55.011449
 20
24.351159
 30
0.0
  0
SPLINE
  5
10d
100
AcDbEntity
  8
Layer_1
 62
7
100
AcDbSpline
 70
8
 71
3
 72
8
 73
4
 74
0
 40
0
 40
0
 40
0
 40
0
 40
1
 40
1
 40
1
 40
1
 10
55.011449
 20
24.351159
 30
0.0
 10
55.779819
 20
24.579339
 30
0.0
 10
56.461503
 20
24.713019
 30
0.0
 10
56.526302
 20
24.648219
 30
0.0
  0
SPLINE
  5
10e
100
AcDbEntity
  8
Layer_1
 62
7
100
AcDbSpline
 70
8
 71
3
 72
8
 73
4
 74
0
 40
0
 40
0
 40
0
 40
0
 40
1
 40
1
 40
1
 40
1
 10
56.526302
 20
24.648219
 30
0.0
 10
56.591102
 20
24.583419
 30
0.0
 10
57.598627
 20
21.748589
 30
0.0
 10
58.765250
 20
18.348599
 30
0.0
  0
SPLINE
  5
10f
100
AcDbEntity
  8
Layer_1
 62
7
100
AcDbSpline
 70
8
 71
3
 72
8
 73
4
 74
0
 40
0
 40
0
 40
0
 40
0
 40
1
 40
1
 40
1
 40
1
 10
58.765250
 20
18.348599
 30
0.0
 10
60.795530
 20
12.431579
 30
0.0
 10
60.865555
 20
12.149699
 30
0.0
 10
60.400128
 20
11.767689
 30
0.0
  0
SPLINE
  5
110
100
AcDbEntity
  8
Layer_1
 62
7
100
AcDbSpline
 70
8
 71
3
 72
8
 73
4
 74
0
 40
0
 40
0
 40
0
 40
0
 40
1
 40
1
 40
1
 40
1
 10
60.400128
 20
11.767689
 30
0.0
 10
60.132688
 20
11.548179
 30
0.0
 10
58.668643
 20
10.357739
 30
0.0
 10
57.146696
 20
9.122279
 30
0.0
  0
SPLINE
  5
111
100
AcDbEntity
  8
Layer_1
 62
7
100
AcDbSpline
 70
8
 71
3
 72
8
 73
4
 74
0
 40
0
 40
0
 40
0
 40
0
 40
1
 40
1
 40
1
 40
1
 10
57.146696
 20
9.122279
 30
0.0
 10
53.433271
 20
6.107839
 30
0.0
 10
51.032749
 20
3.813269
 30
0.0
 10
49.603694
 20
1.912209
 30
0.0
  0
LWPOLYLINE
  5
112
100
AcDbEntity
  8
Layer_1
 62
7
100
AcDbPolyline
 90
1
 70
1
 10
49.147232
 20
0.261719
 30
0.0
  0
SPLINE
  5
113
100
AcDbEntity
  8
Layer_1
 62
7
100
AcDbSpline
 70
8
 71
3
 72
8
 73
4
 74
0
 40
0
 40
0
 40
0
 40
0
 40
1
 40
1
 40
1
 40
1
 10
51.633212
 20
1.248269
 30
0.0
 10
52.678835
 20
2.735359
 30
0.0
 10
56.388883
 20
6.288869
 30
0.0
 10
58.983791
 20
8.288699
 30
0.0
  0
LWPOLYLINE
  5
114
100
AcDbEntity
  8
Layer_1
 62
7
100
AcDbPolyline
 90
3
 70
0
 10
49.603694
 20
1.912209
 30
0.0
 10
48.418791
 20
0.335939
 30
0.0
 10
48.419242
 20
2.280389
 30
0.0
  0
SPLINE
  5
115
100
AcDbEntity
  8
Layer_1
 62
7
100
AcDbSpline
 70
8
 71
3
 72
8
 73
4
 74
0
 40
0
 40
0
 40
0
 40
0
 40
1
 40
1
 40
1
 40
1
 10
62.530685
 20
7.244819
 30
0.0
 10
63.538545
 20
4.401569
 30
0.0
 10
63.561977
 20
4.263019
 30
0.0
 10
63.092979
 20
3.920079
 30
0.0
  0
SPLINE
  5
116
100
AcDbEntity
  8
Layer_1
 62
7
100
AcDbSpline
 70
8
 71
3
 72
8
 73
4
 74
0
 40
0
 40
0
 40
0
 40
0
 40
1
 40
1
 40
1
 40
1
 10
63.092979
 20
3.920079
 30
0.0
 10
61.772103
 20
2.954229
 30
0.0
 10
53.480218
 20
0.388369
 30
0.0
 10
51.679839
 20
0.388369
 30
0.0
  0
LWPOLYLINE
  5
117
100
AcDbEntity
  8
Layer_1
 62
7
100
AcDbPolyline
 90
3
 70
0
 10
58.983791
 20
8.288699
 30
0.0
 10
61.478999
 20
10.211699
 30
0.0
 10
62.530685
 20
7.244819
 30
0.0
  0
SPLINE
  5
118
100
AcDbEntity
  8
Layer_1
 62
7
100
AcDbSpline
 70
8
 71
3
 72
8
 73
4
 74
0
 40
0
 40
0
 40
0
 40
0
 40
1
 40
1
 40
1
 40
1
 10
30.078931
 20
2.098709
 30
0.0
 10
26.663322
 20
3.274359
 30
0.0
 10
22.659015
 20
5.257599
 30
0.0
 10
19.711499
 20
7.233459
 30
0.0
  0
SPLINE
  5
119
100
AcDbEntity
  8
Layer_1
 62
7
100
AcDbSpline
 70
8
 71
3
 72
8
 73
4
 74
0
 40
0
 40
0
 40
0
 40
0
 40
1
 40
1
 40
1
 40
1
 10
19.711499
 20
7.233459
 30
0.0
 10
17.307663
 20
8.844869
 30
0.0
 10
12.948167
 20
12.454069
 30
0.0
 10
12.780451
 20
12.971629
 30
0.0
  0
SPLINE
  5
11a
100
AcDbEntity
  8
Layer_1
 62
7
100
AcDbSpline
 70
8
 71
3
 72
8
 73
4
 74
0
 40
0
 40
0
 40
0
 40
0
 40
1
 40
1
 40
1
 40
1
 10
12.780451
 20
12.971629
 30
0.0
 10
12.730521
 20
13.125709
 30
0.0
 10
14.090990
 20
13.927969
 30
0.0
 10
15.803711
 20
14.754439
 30
0.0
  0
SPLINE
  5
11b
100
AcDbEntity
  8
Layer_1
 62
7
100
AcDbSpline
 70
8
 71
3
 72
8
 73
4
 74
0
 40
0
 40
0
 40
0
 40
0
 40
1
 40
1
 40
1
 40
1
 10
15.803711
 20
14.754439
 30
0.0
 10
17.537412
 20
15.591029
 30
0.0
 10
19.914629
 20
17.015419
 30
0.0
 10
21.166708
 20
17.967879
 30
0.0
  0
SPLINE
  5
11c
100
AcDbEntity
  8
Layer_1
 62
7
100
AcDbSpline
 70
8
 71
3
 72
8
 73
4
 74
0
 40
0
 40
0
 40
0
 40
0
 40
1
 40
1
 40
1
 40
1
 10
21.166708
 20
17.967879
 30
0.0
 10
23.603800
 20
19.821759
 30
0.0
 10
29.229088
 20
25.210309
 30
0.0
 10
32.921478
 20
29.227949
 30
0.0
  0
LWPOLYLINE
  5
11d
100
AcDbEntity
  8
Layer_1
 62
7
100
AcDbPolyline
 90
3
 70
0
 10
51.679839
 20
0.388369
 30
0.0
 10
51.028591
 20
0.388369
 30
0.0
 10
51.633212
 20
1.248269
 30
0.0
  0
SPLINE
  5
11e
100
AcDbEntity
  8
Layer_1
 62
7
100
AcDbSpline
 70
8
 71
3
 72
8
 73
4
 74
0
 40
0
 40
0
 40
0
 40
0
 40
1
 40
1
 40
1
 40
1
 10
31.858284
 20
25.266759
 30
0.0
 10
32.279538
 20
21.018569
 30
0.0
 10
32.336783
 20
19.968369
 30
0.0
 10
32.180937
 20
19.347429
 30
0.0
  0
SPLINE
  5
11f
100
AcDbEntity
  8
Layer_1
 62
7
100
AcDbSpline
 70
8
 71
3
 72
8
 73
4
 74
0
 40
0
 40
0
 40
0
 40
0
 40
1
 40
1
 40
1
 40
1
 10
32.180937
 20
19.347429
 30
0.0
 10
32.089457
 20
18.982949
 30
0.0
 10
31.112636
 20
17.359229
 30
0.0
 10
30.010221
 20
15.739159
 30
0.0
  0
SPLINE
  5
120
100
AcDbEntity
  8
Layer_1
 62
7
100
AcDbSpline
 70
8
 71
3
 72
8
 73
4
 74
0
 40
0
 40
0
 40
0
 40
0
 40
1
 40
1
 40
1
 40
1
 10
30.010221
 20
15.739159
 30
0.0
 10
26.895898
 20
11.162469
 30
0.0
 10
23.769011
 20
5.827329
 30
0.0
 10
24.130244
 20
5.706659
 30
0.0
  0
SPLINE
  5
121
100
AcDbEntity
  8
Layer_1
 62
7
100
AcDbSpline
 70
8
 71
3
 72
8
 73
4
 74
0
 40
0
 40
0
 40
0
 40
0
 40
1
 40
1
 40
1
 40
1
 10
24.130244
 20
5.706659
 30
0.0
 10
24.823943
 20
5.474919
 30
0.0
 10
29.400065
 20
11.091799
 30
0.0
 10
34.132026
 20
17.983159
 30
0.0
  0
SPLINE
  5
122
100
AcDbEntity
  8
Layer_1
 62
7
100
AcDbSpline
 70
8
 71
3
 72
8
 73
4
 74
0
 40
0
 40
0
 40
0
 40
0
 40
1
 40
1
 40
1
 40
1
 10
34.132026
 20
17.983159
 30
0.0
 10
35.630856
 20
20.165979
 30
0.0
 10
37.379968
 20
22.634009
 30
0.0
 10
38.018941
 20
23.467679
 30
0.0
  0
SPLINE
  5
123
100
AcDbEntity
  8
Layer_1
 62
7
100
AcDbSpline
 70
8
 71
3
 72
8
 73
4
 74
0
 40
0
 40
0
 40
0
 40
0
 40
1
 40
1
 40
1
 40
1
 10
38.018941
 20
23.467679
 30
0.0
 10
38.657914
 20
24.301359
 30
0.0
 10
39.345756
 20
25.372919
 30
0.0
 10
39.547478
 20
25.848929
 30
0.0
  0
SPLINE
  5
124
100
AcDbEntity
  8
Layer_1
 62
7
100
AcDbSpline
 70
8
 71
3
 72
8
 73
4
 74
0
 40
0
 40
0
 40
0
 40
0
 40
1
 40
1
 40
1
 40
1
 10
39.547478
 20
25.848929
 30
0.0
 10
39.749201
 20
26.324949
 30
0.0
 10
40.170818
 20
26.930099
 30
0.0
 10
40.484407
 20
27.193729
 30
0.0
  0
SPLINE
  5
125
100
AcDbEntity
  8
Layer_1
 62
7
100
AcDbSpline
 70
8
 71
3
 72
8
 73
4
 74
0
 40
0
 40
0
 40
0
 40
0
 40
1
 40
1
 40
1
 40
1
 10
40.484407
 20
27.193729
 30
0.0
 10
40.797995
 20
27.457349
 30
0.0
 10
40.988848
 20
27.844299
 30
0.0
 10
40.908524
 20
28.053619
 30
0.0
  0
SPLINE
  5
126
100
AcDbEntity
  8
Layer_1
 62
7
100
AcDbSpline
 70
8
 71
3
 72
8
 73
4
 74
0
 40
0
 40
0
 40
0
 40
0
 40
1
 40
1
 40
1
 40
1
 10
40.908524
 20
28.053619
 30
0.0
 10
40.680523
 20
28.647789
 30
0.0
 10
41.198676
 20
28.500269
 30
0.0
 10
41.662775
 20
27.838889
 30
0.0
  0
SPLINE
  5
127
100
AcDbEntity
  8
Layer_1
 62
7
100
AcDbSpline
 70
8
 71
3
 72
8
 73
4
 74
0
 40
0
 40
0
 40
0
 40
0
 40
1
 40
1
 40
1
 40
1
 10
41.662775
 20
27.838889
 30
0.0
 10
42.057125
 20
27.276909
 30
0.0
 10
42.046854
 20
27.235549
 30
0.0
 10
41.479341
 20
27.100139
 30
0.0
  0
SPLINE
  5
128
100
AcDbEntity
  8
Layer_1
 62
7
100
AcDbSpline
 70
8
 71
3
 72
8
 73
4
 74
0
 40
0
 40
0
 40
0
 40
0
 40
1
 40
1
 40
1
 40
1
 10
41.479341
 20
27.100139
 30
0.0
 10
41.067907
 20
27.001939
 30
0.0
 10
40.769840
 20
26.626189
 30
0.0
 10
40.534948
 20
25.909509
 30
0.0
  0
SPLINE
  5
129
100
AcDbEntity
  8
Layer_1
 62
7
100
AcDbSpline
 70
8
 71
3
 72
8
 73
4
 74
0
 40
0
 40
0
 40
0
 40
0
 40
1
 40
1
 40
1
 40
1
 10
40.534948
 20
25.909509
 30
0.0
 10
40.346179
 20
25.333559
 30
0.0
 10
39.927823
 20
24.615699
 30
0.0
 10
39.605269
 20
24.314269
 30
0.0
  0
SPLINE
  5
12a
100
AcDbEntity
  8
Layer_1
 62
7
100
AcDbSpline
 70
8
 71
3
 72
8
 73
4
 74
0
 40
0
 40
0
 40
0
 40
0
 40
1
 40
1
 40
1
 40
1
 10
39.605269
 20
24.314269
 30
0.0
 10
39.282714
 20
24.012839
 30
0.0
 10
38.560088
 20
22.981839
 30
0.0
 10
37.999431
 20
22.023159
 30
0.0
  0
SPLINE
  5
12b
100
AcDbEntity
  8
Layer_1
 62
7
100
AcDbSpline
 70
8
 71
3
 72
8
 73
4
 74
0
 40
0
 40
0
 40
0
 40
0
 40
1
 40
1
 40
1
 40
1
 10
37.999431
 20
22.023159
 30
0.0
 10
37.438775
 20
21.064479
 30
0.0
 10
36.501068
 20
19.703759
 30
0.0
 10
35.915638
 20
18.999339
 30
0.0
  0
SPLINE
  5
12c
100
AcDbEntity
  8
Layer_1
 62
7
100
AcDbSpline
 70
8
 71
3
 72
8
 73
4
 74
0
 40
0
 40
0
 40
0
 40
0
 40
1
 40
1
 40
1
 40
1
 10
35.915638
 20
18.999339
 30
0.0
 10
34.728494
 20
17.570909
 30
0.0
 10
34.131291
 20
16.348909
 30
0.0
 10
34.131291
 20
15.348209
 30
0.0
  0
SPLINE
  5
12d
100
AcDbEntity
  8
Layer_1
 62
7
100
AcDbSpline
 70
8
 71
3
 72
8
 73
4
 74
0
 40
0
 40
0
 40
0
 40
0
 40
1
 40
1
 40
1
 40
1
 10
34.131291
 20
15.348209
 30
0.0
 10
34.131291
 20
14.981039
 30
0.0
 10
33.532506
 20
13.529119
 30
0.0
 10
32.800658
 20
12.121709
 30
0.0
  0
SPLINE
  5
12e
100
AcDbEntity
  8
Layer_1
 62
7
100
AcDbSpline
 70
8
 71
3
 72
8
 73
4
 74
0
 40
0
 40
0
 40
0
 40
0
 40
1
 40
1
 40
1
 40
1
 10
32.800658
 20
12.121709
 30
0.0
 10
32.068810
 20
10.714309
 30
0.0
 10
31.505090
 20
9.457599
 30
0.0
 10
31.547947
 20
9.329029
 30
0.0
  0
SPLINE
  5
12f
100
AcDbEntity
  8
Layer_1
 62
7
100
AcDbSpline
 70
8
 71
3
 72
8
 73
4
 74
0
 40
0
 40
0
 40
0
 40
0
 40
1
 40
1
 40
1
 40
1
 10
31.547947
 20
9.329029
 30
0.0
 10
31.645347
 20
9.036839
 30
0.0
 10
42.597957
 20
25.321069
 30
0.0
 10
42.597957
 20
25.758059
 30
0.0
  0
SPLINE
  5
130
100
AcDbEntity
  8
Layer_1
 62
7
100
AcDbSpline
 70
8
 71
3
 72
8
 73
4
 74
0
 40
0
 40
0
 40
0
 40
0
 40
1
 40
1
 40
1
 40
1
 10
42.597957
 20
25.758059
 30
0.0
 10
42.597957
 20
25.977129
 30
0.0
 10
42.878303
 20
26.024339
 30
0.0
 10
43.493699
 20
25.908889
 30
0.0
  0
SPLINE
  5
131
100
AcDbEntity
  8
Layer_1
 62
7
100
AcDbSpline
 70
8
 71
3
 72
8
 73
4
 74
0
 40
0
 40
0
 40
0
 40
0
 40
1
 40
1
 40
1
 40
1
 10
43.493699
 20
25.908889
 30
0.0
 10
44.523326
 20
25.715729
 30
0.0
 10
44.946624
 20
26.114669
 30
0.0
 10
44.406673
 20
26.769319
 30
0.0
  0
SPLINE
  5
132
100
AcDbEntity
  8
Layer_1
 62
7
100
AcDbSpline
 70
8
 71
3
 72
8
 73
4
 74
0
 40
0
 40
0
 40
0
 40
0
 40
1
 40
1
 40
1
 40
1
 10
44.406673
 20
26.769319
 30
0.0
 10
44.090415
 20
27.152759
 30
0.0
 10
44.113874
 20
27.165579
 30
0.0
 10
44.629311
 20
26.890969
 30
0.0
  0
SPLINE
  5
133
100
AcDbEntity
  8
Layer_1
 62
7
100
AcDbSpline
 70
8
 71
3
 72
8
 73
4
 74
0
 40
0
 40
0
 40
0
 40
0
 40
1
 40
1
 40
1
 40
1
 10
44.629311
 20
26.890969
 30
0.0
 10
44.946191
 20
26.722149
 30
0.0
 10
45.381929
 20
26.651739
 30
0.0
 10
45.597618
 20
26.734509
 30
0.0
  0
SPLINE
  5
134
100
AcDbEntity
  8
Layer_1
 62
7
100
AcDbSpline
 70
8
 71
3
 72
8
 73
4
 74
0
 40
0
 40
0
 40
0
 40
0
 40
1
 40
1
 40
1
 40
1
 10
45.597618
 20
26.734509
 30
0.0
 10
45.813307
 20
26.817309
 30
0.0
 10
46.368460
 20
26.689209
 30
0.0
 10
46.831291
 20
26.449829
 30
0.0
  0
SPLINE
  5
135
100
AcDbEntity
  8
Layer_1
 62
7
100
AcDbSpline
 70
8
 71
3
 72
8
 73
4
 74
0
 40
0
 40
0
 40
0
 40
0
 40
1
 40
1
 40
1
 40
1
 10
46.831291
 20
26.449829
 30
0.0
 10
47.294122
 20
26.210489
 30
0.0
 10
47.840649
 20
26.079079
 30
0.0
 10
48.045796
 20
26.157799
 30
0.0
  0
SPLINE
  5
136
100
AcDbEntity
  8
Layer_1
 62
7
100
AcDbSpline
 70
8
 71
3
 72
8
 73
4
 74
0
 40
0
 40
0
 40
0
 40
0
 40
1
 40
1
 40
1
 40
1
 10
48.045796
 20
26.157799
 30
0.0
 10
48.498874
 20
26.331659
 30
0.0
 10
48.537106
 20
27.717749
 30
0.0
 10
48.110890
 20
28.517739
 30
0.0
  0
SPLINE
  5
137
100
AcDbEntity
  8
Layer_1
 62
7
100
AcDbSpline
 70
8
 71
3
 72
8
 73
4
 74
0
 40
0
 40
0
 40
0
 40
0
 40
1
 40
1
 40
1
 40
1
 10
48.110890
 20
28.517739
 30
0.0
 10
47.832556
 20
29.040169
 30
0.0
 10
47.845259
 20
29.060789
 30
0.0
 10
48.243182
 20
28.732539
 30
0.0
  0
SPLINE
  5
138
100
AcDbEntity
  8
Layer_1
 62
7
100
AcDbSpline
 70
8
 71
3
 72
8
 73
4
 74
0
 40
0
 40
0
 40
0
 40
0
 40
1
 40
1
 40
1
 40
1
 10
48.243182
 20
28.732539
 30
0.0
 10
48.485288
 20
28.532819
 30
0.0
 10
48.683374
 20
28.041379
 30
0.0
 10
48.683374
 20
27.640449
 30
0.0
  0
SPLINE
  5
139
100
AcDbEntity
  8
Layer_1
 62
7
100
AcDbSpline
 70
8
 71
3
 72
8
 73
4
 74
0
 40
0
 40
0
 40
0
 40
0
 40
1
 40
1
 40
1
 40
1
 10
48.683374
 20
27.640449
 30
0.0
 10
48.683374
 20
26.520739
 30
0.0
 10
49.139234
 20
26.309969
 30
0.0
 10
50.993967
 20
26.572129
 30
0.0
  0
SPLINE
  5
13a
100
AcDbEntity
  8
Layer_1
 62
7
100
AcDbSpline
 70
8
 71
3
 72
8
 73
4
 74
0
 40
0
 40
0
 40
0
 40
0
 40
1
 40
1
 40
1
 40
1
 10
50.993967
 20
26.572129
 30
0.0
 10
52.882577
 20
26.839089
 30
0.0
 10
52.954488
 20
26.874889
 30
0.0
 10
54.663689
 20
28.398979
 30
0.0
  0
SPLINE
  5
13b
100
AcDbEntity
  8
Layer_1
 62
7
100
AcDbSpline
 70
8
 71
3
 72
8
 73
4
 74
0
 40
0
 40
0
 40
0
 40
0
 40
1
 40
1
 40
1
 40
1
 10
54.663689
 20
28.398979
 30
0.0
 10
55.811855
 20
29.422789
 30
0.0
 10
56.114009
 20
29.558839
 30
0.0
 10
57.316893
 20
29.593569
 30
0.0
  0
SPLINE
  5
13c
100
AcDbEntity
  8
Layer_1
 62
7
100
AcDbSpline
 70
8
 71
3
 72
8
 73
4
 74
0
 40
0
 40
0
 40
0
 40
0
 40
1
 40
1
 40
1
 40
1
 10
57.316893
 20
29.593569
 30
0.0
 10
58.624997
 20
29.631369
 30
0.0
 10
58.698926
 20
29.594569
 30
0.0
 10
59.349574
 20
28.582479
 30
0.0
  0
SPLINE
  5
13d
100
AcDbEntity
  8
Layer_1
 62
7
100
AcDbSpline
 70
8
 71
3
 72
8
 73
4
 74
0
 40
0
 40
0
 40
0
 40
0
 40
1
 40
1
 40
1
 40
1
 10
59.349574
 20
28.582479
 30
0.0
 10
59.720937
 20
28.004829
 30
0.0
 10
59.964603
 20
27.434829
 30
0.0
 10
59.891053
 20
27.315819
 30
0.0
  0
SPLINE
  5
13e
100
AcDbEntity
  8
Layer_1
 62
7
100
AcDbSpline
 70
8
 71
3
 72
8
 73
4
 74
0
 40
0
 40
0
 40
0
 40
0
 40
1
 40
1
 40
1
 40
1
 10
59.891053
 20
27.315819
 30
0.0
 10
59.567208
 20
26.791829
 30
0.0
 10
56.320427
 20
25.417089
 30
0.0
 10
54.041283
 20
24.838939
 30
0.0
  0
SPLINE
  5
13f
100
AcDbEntity
  8
Layer_1
 62
7
100
AcDbSpline
 70
8
 71
3
 72
8
 73
4
 74
0
 40
0
 40
0
 40
0
 40
0
 40
1
 40
1
 40
1
 40
1
 10
54.041283
 20
24.838939
 30
0.0
 10
52.672580
 20
24.491739
 30
0.0
 10
51.199393
 20
23.956069
 30
0.0
 10
50.767534
 20
23.648559
 30
0.0
  0
SPLINE
  5
140
100
AcDbEntity
  8
Layer_1
 62
7
100
AcDbSpline
 70
8
 71
3
 72
8
 73
4
 74
0
 40
0
 40
0
 40
0
 40
0
 40
1
 40
1
 40
1
 40
1
 10
50.767534
 20
23.648559
 30
0.0
 10
50.335674
 20
23.341049
 30
0.0
 10
49.303116
 20
22.826629
 30
0.0
 10
48.472959
 20
22.505409
 30
0.0
  0
SPLINE
  5
141
100
AcDbEntity
  8
Layer_1
 62
7
100
AcDbSpline
 70
8
 71
3
 72
8
 73
4
 74
0
 40
0
 40
0
 40
0
 40
0
 40
1
 40
1
 40
1
 40
1
 10
48.472959
 20
22.505409
 30
0.0
 10
46.968780
 20
21.923369
 30
0.0
 10
46.949460
 20
21.901659
 30
0.0
 10
42.862541
 20
16.199519
 30
0.0
  0
SPLINE
  5
142
100
AcDbEntity
  8
Layer_1
 62
7
100
AcDbSpline
 70
8
 71
3
 72
8
 73
4
 74
0
 40
0
 40
0
 40
0
 40
0
 40
1
 40
1
 40
1
 40
1
 10
42.862541
 20
16.199519
 30
0.0
 10
38.814737
 20
10.551959
 30
0.0
 10
36.450876
 20
6.847899
 30
0.0
 10
34.502894
 20
3.100349
 30
0.0
  0
SPLINE
  5
143
100
AcDbEntity
  8
Layer_1
 62
7
100
AcDbSpline
 70
8
 71
3
 72
8
 73
4
 74
0
 40
0
 40
0
 40
0
 40
0
 40
1
 40
1
 40
1
 40
1
 10
34.502894
 20
3.100349
 30
0.0
 10
33.896670
 20
1.934089
 30
0.0
 10
33.343167
 20
1.186559
 30
0.0
 10
33.090939
 20
1.193439
 30
0.0
  0
SPLINE
  5
144
100
AcDbEntity
  8
Layer_1
 62
7
100
AcDbSpline
 70
8
 71
3
 72
8
 73
4
 74
0
 40
0
 40
0
 40
0
 40
0
 40
1
 40
1
 40
1
 40
1
 10
33.090939
 20
1.193439
 30
0.0
 10
32.862768
 20
1.199439
 30
0.0
 10
31.507365
 20
1.607039
 30
0.0
 10
30.078931
 20
2.098709
 30
0.0
  0
LWPOLYLINE
  5
145
100
AcDbEntity
  8
Layer_1
 62
7
100
AcDbPolyline
 90
5
 70
0
 10
32.921478
 20
29.227949
 30
0.0
 10
35.231533
 20
31.741499
 30
0.0
 10
33.459266
 20
29.367799
 30
0.0
 10
31.686998
 20
26.994109
 30
0.0
 10
31.858284
 20
25.266759
 30
0.0
  0
SPLINE
  5
146
100
AcDbEntity
  8
Layer_1
 62
7
100
AcDbSpline
 70
8
 71
3
 72
8
 73
4
 74
0
 40
0
 40
0
 40
0
 40
0
 40
1
 40
1
 40
1
 40
1
 10
37.600038
 20
16.068629
 30
0.0
 10
38.208627
 20
17.121619
 30
0.0
 10
39.585982
 20
19.263389
 30
0.0
 10
40.660828
 20
20.828119
 30
0.0
  0
SPLINE
  5
147
100
AcDbEntity
  8
Layer_1
 62
7
100
AcDbSpline
 70
8
 71
3
 72
8
 73
4
 74
0
 40
0
 40
0
 40
0
 40
0
 40
1
 40
1
 40
1
 40
1
 10
40.660828
 20
20.828119
 30
0.0
 10
41.735674
 20
22.392849
 30
0.0
 10
42.693061
 20
23.881129
 30
0.0
 10
42.788355
 20
24.135409
 30
0.0
  0
SPLINE
  5
148
100
AcDbEntity
  8
Layer_1
 62
7
100
AcDbSpline
 70
8
 71
3
 72
8
 73
4
 74
0
 40
0
 40
0
 40
0
 40
0
 40
1
 40
1
 40
1
 40
1
 10
42.788355
 20
24.135409
 30
0.0
 10
43.536257
 20
26.131119
 30
0.0
 10
37.466827
 20
17.396819
 30
0.0
 10
35.948711
 20
14.292729
 30
0.0
  0
SPLINE
  5
149
100
AcDbEntity
  8
Layer_1
 62
7
100
AcDbSpline
 70
8
 71
3
 72
8
 73
4
 74
0
 40
0
 40
0
 40
0
 40
0
 40
1
 40
1
 40
1
 40
1
 10
35.948711
 20
14.292729
 30
0.0
 10
35.183125
 20
12.727329
 30
0.0
 10
35.180458
 20
12.707859
 30
0.0
 10
35.829556
 20
13.422799
 30
0.0
  0
SPLINE
  5
14a
100
AcDbEntity
  8
Layer_1
 62
7
100
AcDbSpline
 70
8
 71
3
 72
8
 73
4
 74
0
 40
0
 40
0
 40
0
 40
0
 40
1
 40
1
 40
1
 40
1
 10
35.829556
 20
13.422799
 30
0.0
 10
36.194733
 20
13.825009
 30
0.0
 10
36.991450
 20
15.015629
 30
0.0
 10
37.600038
 20
16.068629
 30
0.0
  0
LWPOLYLINE
  5
14b
100
AcDbEntity
  8
Layer_1
 62
7
100
AcDbPolyline
 90
1
 70
1
 10
30.078931
 20
2.098709
 30
0.0
  0
SPLINE
  5
14c
100
AcDbEntity
  8
Layer_1
 62
7
100
AcDbSpline
 70
8
 71
3
 72
8
 73
4
 74
0
 40
0
 40
0
 40
0
 40
0
 40
1
 40
1
 40
1
 40
1
 10
71.504669
 20
17.795359
 30
0.0
 10
67.410063
 20
22.820139
 30
0.0
 10
66.410458
 20
24.288789
 30
0.0
 10
66.410458
 20
25.279919
 30
0.0
  0
SPLINE
  5
14d
100
AcDbEntity
  8
Layer_1
 62
7
100
AcDbSpline
 70
8
 71
3
 72
8
 73
4
 74
0
 40
0
 40
0
 40
0
 40
0
 40
1
 40
1
 40
1
 40
1
 10
66.410458
 20
25.279919
 30
0.0
 10
66.410458
 20
25.583419
 30
0.0
 10
65.904722
 20
26.764919
 30
0.0
 10
65.286600
 20
27.905499
 30
0.0
  0
LWPOLYLINE
  5
14e
100
AcDbEntity
  8
Layer_1
 62
7
100
AcDbPolyline
 90
1
 70
1
 10
37.600038
 20
16.068629
 30
0.0
  0
SPLINE
  5
14f
100
AcDbEntity
  8
Layer_1
 62
7
100
AcDbSpline
 70
8
 71
3
 72
8
 73
4
 74
0
 40
0
 40
0
 40
0
 40
0
 40
1
 40
1
 40
1
 40
1
 10
64.898990
 20
31.480449
 30
0.0
 10
65.360460
 20
32.421369
 30
0.0
 10
65.763142
 20
32.932539
 30
0.0
 10
65.977950
 20
32.850109
 30
0.0
  0
SPLINE
  5
150
100
AcDbEntity
  8
Layer_1
 62
7
100
AcDbSpline
 70
8
 71
3
 72
8
 73
4
 74
0
 40
0
 40
0
 40
0
 40
0
 40
1
 40
1
 40
1
 40
1
 10
65.977950
 20
32.850109
 30
0.0
 10
66.249895
 20
32.745759
 30
0.0
 10
82.102462
 20
22.016789
 30
0.0
 10
82.530359
 20
21.647489
 30
0.0
  0
SPLINE
  5
151
100
AcDbEntity
  8
Layer_1
 62
7
100
AcDbSpline
 70
8
 71
3
 72
8
 73
4
 74
0
 40
0
 40
0
 40
0
 40
0
 40
1
 40
1
 40
1
 40
1
 10
82.530359
 20
21.647489
 30
0.0
 10
82.921901
 20
21.309569
 30
0.0
 10
76.337196
 20
12.796539
 30
0.0
 10
75.713580
 20
12.834419
 30
0.0
  0
SPLINE
  5
152
100
AcDbEntity
  8
Layer_1
 62
7
100
AcDbSpline
 70
8
 71
3
 72
8
 73
4
 74
0
 40
0
 40
0
 40
0
 40
0
 40
1
 40
1
 40
1
 40
1
 10
75.713580
 20
12.834419
 30
0.0
 10
75.617330
 20
12.840419
 30
0.0
 10
73.723322
 20
15.072689
 30
0.0
 10
71.504669
 20
17.795359
 30
0.0
  0
LWPOLYLINE
  5
153
100
AcDbEntity
  8
Layer_1
 62
7
100
AcDbPolyline
 90
3
 70
0
 10
65.286600
 20
27.905499
 30
0.0
 10
64.162743
 20
29.979269
 30
0.0
 10
64.898990
 20
31.480449
 30
0.0
  0
SPLINE
  5
154
100
AcDbEntity
  8
Layer_1
 62
7
100
AcDbSpline
 70
8
 71
3
 72
8
 73
4
 74
0
 40
0
 40
0
 40
0
 40
0
 40
1
 40
1
 40
1
 40
1
 10
109.970133
 20
20.925639
 30
0.0
 10
109.665483
 20
24.953119
 30
0.0
 10
108.111125
 20
73.662649
 30
0.0
 10
108.281809
 20
73.833329
 30
0.0
  0
SPLINE
  5
155
100
AcDbEntity
  8
Layer_1
 62
7
100
AcDbSpline
 70
8
 71
3
 72
8
 73
4
 74
0
 40
0
 40
0
 40
0
 40
0
 40
1
 40
1
 40
1
 40
1
 10
108.281809
 20
73.833329
 30
0.0
 10
108.514481
 20
74.065999
 30
0.0
 10
299.175370
 20
80.713729
 30
0.0
 10
299.392370
 20
80.496739
 30
0.0
  0
SPLINE
  5
156
100
AcDbEntity
  8
Layer_1
 62
7
100
AcDbSpline
 70
8
 71
3
 72
8
 73
4
 74
0
 40
0
 40
0
 40
0
 40
0
 40
1
 40
1
 40
1
 40
1
 10
299.392370
 20
80.496739
 30
0.0
 10
299.585380
 20
80.303729
 30
0.0
 10
301.524150
 20
25.861189
 30
0.0
 10
301.344150
 20
25.688709
 30
0.0
  0
SPLINE
  5
157
100
AcDbEntity
  8
Layer_1
 62
7
100
AcDbSpline
 70
8
 71
3
 72
8
 73
4
 74
0
 40
0
 40
0
 40
0
 40
0
 40
1
 40
1
 40
1
 40
1
 10
301.344150
 20
25.688709
 30
0.0
 10
301.280350
 20
25.627609
 30
0.0
 10
259.794420
 20
24.137459
 30
0.0
 10
209.153170
 20
22.377319
 30
0.0
  0
SPLINE
  5
158
100
AcDbEntity
  8
Layer_1
 62
7
100
AcDbSpline
 70
8
 71
3
 72
8
 73
4
 74
0
 40
0
 40
0
 40
0
 40
0
 40
1
 40
1
 40
1
 40
1
 10
209.153170
 20
22.377319
 30
0.0
 10
158.511920
 20
20.617179
 30
0.0
 10
115.514338
 20
19.101459
 30
0.0
 10
113.602992
 20
19.009049
 30
0.0
  0
LWPOLYLINE
  5
159
100
AcDbEntity
  8
Layer_1
 62
7
100
AcDbPolyline
 90
1
 70
1
 10
71.504669
 20
17.795359
 30
0.0
  0
SPLINE
  5
15a
100
AcDbEntity
  8
Layer_1
 62
7
100
AcDbSpline
 70
8
 71
3
 72
8
 73
4
 74
0
 40
0
 40
0
 40
0
 40
0
 40
1
 40
1
 40
1
 40
1
 10
134.498945
 20
33.659729
 30
0.0
 10
134.658258
 20
33.919279
 30
0.0
 10
133.787441
 20
59.051879
 30
0.0
 10
133.614624
 20
59.182049
 30
0.0
  0
SPLINE
  5
15b
100
AcDbEntity
  8
Layer_1
 62
7
100
AcDbSpline
 70
8
 71
3
 72
8
 73
4
 74
0
 40
0
 40
0
 40
0
 40
0
 40
1
 40
1
 40
1
 40
1
 10
133.614624
 20
59.182049
 30
0.0
 10
133.541864
 20
59.236849
 30
0.0
 10
131.845223
 20
59.234949
 30
0.0
 10
129.844312
 20
59.178049
 30
0.0
  0
LWPOLYLINE
  5
15c
100
AcDbEntity
  8
Layer_1
 62
7
100
AcDbPolyline
 90
3
 70
0
 10
113.602992
 20
19.009049
 30
0.0
 10
110.127818
 20
18.841039
 30
0.0
 10
109.970133
 20
20.925639
 30
0.0
  0
SPLINE
  5
15d
100
AcDbEntity
  8
Layer_1
 62
7
100
AcDbSpline
 70
8
 71
3
 72
8
 73
4
 74
0
 40
0
 40
0
 40
0
 40
0
 40
1
 40
1
 40
1
 40
1
 10
126.213191
 20
57.975659
 30
0.0
 10
126.216991
 20
57.371479
 30
0.0
 10
126.392472
 20
52.293239
 30
0.0
 10
126.603194
 20
46.690679
 30
0.0
  0
SPLINE
  5
15e
100
AcDbEntity
  8
Layer_1
 62
7
100
AcDbSpline
 70
8
 71
3
 72
8
 73
4
 74
0
 40
0
 40
0
 40
0
 40
0
 40
1
 40
1
 40
1
 40
1
 10
126.603194
 20
46.690679
 30
0.0
 10
126.813916
 20
41.088129
 30
0.0
 10
126.989418
 20
35.819619
 30
0.0
 10
126.993197
 20
34.982869
 30
0.0
  0
LWPOLYLINE
  5
15f
100
AcDbEntity
  8
Layer_1
 62
7
100
AcDbPolyline
 90
3
 70
0
 10
129.844312
 20
59.178049
 30
0.0
 10
126.206291
 20
59.074179
 30
0.0
 10
126.213191
 20
57.975659
 30
0.0
  0
SPLINE
  5
160
100
AcDbEntity
  8
Layer_1
 62
7
100
AcDbSpline
 70
8
 71
3
 72
8
 73
4
 74
0
 40
0
 40
0
 40
0
 40
0
 40
1
 40
1
 40
1
 40
1
 10
130.688649
 20
33.461519
 30
0.0
 10
132.717352
 20
33.461519
 30
0.0
 10
134.432011
 20
33.550819
 30
0.0
 10
134.499001
 20
33.659959
 30
0.0
  0
LWPOLYLINE
  5
161
100
AcDbEntity
  8
Layer_1
 62
7
100
AcDbPolyline
 90
3
 70
0
 10
126.993197
 20
34.982869
 30
0.0
 10
127.000097
 20
33.461519
 30
0.0
 10
130.688649
 20
33.461519
 30
0.0
  0
SPLINE
  5
162
100
AcDbEntity
  8
Layer_1
 62
7
100
AcDbSpline
 70
8
 71
3
 72
8
 73
4
 74
0
 40
0
 40
0
 40
0
 40
0
 40
1
 40
1
 40
1
 40
1
 10
148.953626
 20
34.864299
 30
0.0
 10
148.949626
 20
35.329569
 30
0.0
 10
148.773956
 20
40.234619
 30
0.0
 10
148.562716
 20
45.764409
 30
0.0
  0
SPLINE
  5
163
100
AcDbEntity
  8
Layer_1
 62
7
100
AcDbSpline
 70
8
 71
3
 72
8
 73
4
 74
0
 40
0
 40
0
 40
0
 40
0
 40
1
 40
1
 40
1
 40
1
 10
148.562716
 20
45.764409
 30
0.0
 10
148.351476
 20
51.294199
 30
0.0
 10
148.175956
 20
56.685049
 30
0.0
 10
148.172676
 20
57.744069
 30
0.0
  0
LWPOLYLINE
  5
164
100
AcDbEntity
  8
Layer_1
 62
7
100
AcDbPolyline
 90
2
 70
0
 10
134.499001
 20
33.659959
 30
0.0
 10
134.498945
 20
33.659729
 30
0.0
  0
SPLINE
  5
165
100
AcDbEntity
  8
Layer_1
 62
7
100
AcDbSpline
 70
8
 71
3
 72
8
 73
4
 74
0
 40
0
 40
0
 40
0
 40
0
 40
1
 40
1
 40
1
 40
1
 10
140.197579
 20
49.776689
 30
0.0
 10
139.851156
 20
49.683989
 30
0.0
 10
138.627514
 20
49.606489
 30
0.0
 10
137.478375
 20
49.604499
 30
0.0
  0
LWPOLYLINE
  5
166
100
AcDbEntity
  8
Layer_1
 62
7
100
AcDbPolyline
 90
7
 70
0
 10
148.172676
 20
57.744069
 30
0.0
 10
148.166676
 20
59.669569
 30
0.0
 10
144.396365
 20
59.596169
 30
0.0
 10
140.626053
 20
59.522769
 30
0.0
 10
140.726746
 20
54.734009
 30
0.0
 10
140.827439
 20
49.945259
 30
0.0
 10
140.197579
 20
49.776689
 30
0.0
  0
SPLINE
  5
167
100
AcDbEntity
  8
Layer_1
 62
7
100
AcDbSpline
 70
8
 71
3
 72
8
 73
4
 74
0
 40
0
 40
0
 40
0
 40
0
 40
1
 40
1
 40
1
 40
1
 10
135.560146
 20
47.576209
 30
0.0
 10
135.654256
 20
46.462839
 30
0.0
 10
135.731261
 20
45.077709
 30
0.0
 10
135.731261
 20
44.498119
 30
0.0
  0
LWPOLYLINE
  5
168
100
AcDbEntity
  8
Layer_1
 62
7
100
AcDbPolyline
 90
3
 70
0
 10
137.478375
 20
49.604499
 30
0.0
 10
135.389030
 20
49.600499
 30
0.0
 10
135.560146
 20
47.576209
 30
0.0
  0
SPLINE
  5
169
100
AcDbEntity
  8
Layer_1
 62
7
100
AcDbSpline
 70
8
 71
3
 72
8
 73
4
 74
0
 40
0
 40
0
 40
0
 40
0
 40
1
 40
1
 40
1
 40
1
 10
141.119942
 20
41.713409
 30
0.0
 10
141.212102
 20
40.623129
 30
0.0
 10
141.287511
 20
38.459199
 30
0.0
 10
141.287511
 20
36.904679
 30
0.0
  0
SPLINE
  5
16a
100
AcDbEntity
  8
Layer_1
 62
7
100
AcDbSpline
 70
8
 71
3
 72
8
 73
4
 74
0
 40
0
 40
0
 40
0
 40
0
 40
1
 40
1
 40
1
 40
1
 10
141.287511
 20
36.904679
 30
0.0
 10
141.287511
 20
35.350159
 30
0.0
 10
141.336741
 20
34.028669
 30
0.0
 10
141.396904
 20
33.968039
 30
0.0
  0
SPLINE
  5
16b
100
AcDbEntity
  8
Layer_1
 62
7
100
AcDbSpline
 70
8
 71
3
 72
8
 73
4
 74
0
 40
0
 40
0
 40
0
 40
0
 40
1
 40
1
 40
1
 40
1
 10
141.396904
 20
33.968039
 30
0.0
 10
141.457074
 20
33.907439
 30
0.0
 10
143.183476
 20
33.893839
 30
0.0
 10
145.233362
 20
33.937839
 30
0.0
  0
LWPOLYLINE
  5
16c
100
AcDbEntity
  8
Layer_1
 62
7
100
AcDbPolyline
 90
5
 70
0
 10
135.731261
 20
44.498119
 30
0.0
 10
135.731261
 20
43.444339
 30
0.0
 10
138.341817
 20
43.570039
 30
0.0
 10
140.952374
 20
43.695749
 30
0.0
 10
141.119942
 20
41.713409
 30
0.0
  0
SPLINE
  5
16d
100
AcDbEntity
  8
Layer_1
 62
7
100
AcDbSpline
 70
8
 71
3
 72
8
 73
4
 74
0
 40
0
 40
0
 40
0
 40
0
 40
1
 40
1
 40
1
 40
1
 10
160.932860
 20
34.894799
 30
0.0
 10
161.713150
 20
35.408929
 30
0.0
 10
161.793270
 20
35.858019
 30
0.0
 10
161.494120
 20
38.040609
 30
0.0
  0
SPLINE
  5
16e
100
AcDbEntity
  8
Layer_1
 62
7
100
AcDbSpline
 70
8
 71
3
 72
8
 73
4
 74
0
 40
0
 40
0
 40
0
 40
0
 40
1
 40
1
 40
1
 40
1
 10
161.494120
 20
38.040609
 30
0.0
 10
161.334050
 20
39.208419
 30
0.0
 10
161.291620
 20
39.257239
 30
0.0
 10
160.369640
 20
39.334309
 30
0.0
  0
SPLINE
  5
16f
100
AcDbEntity
  8
Layer_1
 62
7
100
AcDbSpline
 70
8
 71
3
 72
8
 73
4
 74
0
 40
0
 40
0
 40
0
 40
0
 40
1
 40
1
 40
1
 40
1
 10
160.369640
 20
39.334309
 30
0.0
 10
159.501320
 20
39.406909
 30
0.0
 10
159.388050
 20
39.509349
 30
0.0
 10
159.161340
 20
40.427299
 30
0.0
  0
SPLINE
  5
170
100
AcDbEntity
  8
Layer_1
 62
7
100
AcDbSpline
 70
8
 71
3
 72
8
 73
4
 74
0
 40
0
 40
0
 40
0
 40
0
 40
1
 40
1
 40
1
 40
1
 10
159.161340
 20
40.427299
 30
0.0
 10
158.834400
 20
41.751089
 30
0.0
 10
159.187040
 20
42.301159
 30
0.0
 10
160.430490
 20
42.406929
 30
0.0
  0
LWPOLYLINE
  5
171
100
AcDbEntity
  8
Layer_1
 62
7
100
AcDbPolyline
 90
3
 70
0
 10
145.233362
 20
33.937839
 30
0.0
 10
148.960426
 20
34.017939
 30
0.0
 10
148.953626
 20
34.864299
 30
0.0
  0
SPLINE
  5
172
100
AcDbEntity
  8
Layer_1
 62
7
100
AcDbSpline
 70
8
 71
3
 72
8
 73
4
 74
0
 40
0
 40
0
 40
0
 40
0
 40
1
 40
1
 40
1
 40
1
 10
161.395880
 20
43.774339
 30
0.0
 10
161.395880
 20
45.859279
 30
0.0
 10
161.353680
 20
45.896669
 30
0.0
 10
158.999340
 20
45.896669
 30
0.0
  0
SPLINE
  5
173
100
AcDbEntity
  8
Layer_1
 62
7
100
AcDbSpline
 70
8
 71
3
 72
8
 73
4
 74
0
 40
0
 40
0
 40
0
 40
0
 40
1
 40
1
 40
1
 40
1
 10
158.999340
 20
45.896669
 30
0.0
 10
155.902520
 20
45.896669
 30
0.0
 10
154.426450
 20
45.503619
 30
0.0
 10
153.481480
 20
44.427349
 30
0.0
  0
SPLINE
  5
174
100
AcDbEntity
  8
Layer_1
 62
7
100
AcDbSpline
 70
8
 71
3
 72
8
 73
4
 74
0
 40
0
 40
0
 40
0
 40
0
 40
1
 40
1
 40
1
 40
1
 10
153.481480
 20
44.427349
 30
0.0
 10
152.523426
 20
43.336189
 30
0.0
 10
152.297016
 20
42.268519
 30
0.0
 10
152.452846
 20
39.576609
 30
0.0
  0
SPLINE
  5
175
100
AcDbEntity
  8
Layer_1
 62
7
100
AcDbSpline
 70
8
 71
3
 72
8
 73
4
 74
0
 40
0
 40
0
 40
0
 40
0
 40
1
 40
1
 40
1
 40
1
 10
152.452846
 20
39.576609
 30
0.0
 10
152.595196
 20
37.117749
 30
0.0
 10
153.373120
 20
35.497499
 30
0.0
 10
154.781300
 20
34.726949
 30
0.0
  0
SPLINE
  5
176
100
AcDbEntity
  8
Layer_1
 62
7
100
AcDbSpline
 70
8
 71
3
 72
8
 73
4
 74
0
 40
0
 40
0
 40
0
 40
0
 40
1
 40
1
 40
1
 40
1
 10
154.781300
 20
34.726949
 30
0.0
 10
156.011220
 20
34.053949
 30
0.0
 10
159.814170
 20
34.157709
 30
0.0
 10
160.932860
 20
34.894789
 30
0.0
  0
LWPOLYLINE
  5
177
100
AcDbEntity
  8
Layer_1
 62
7
100
AcDbPolyline
 90
3
 70
0
 10
160.430490
 20
42.406929
 30
0.0
 10
161.395880
 20
42.489029
 30
0.0
 10
161.395880
 20
43.774339
 30
0.0
  0
SPLINE
  5
178
100
AcDbEntity
  8
Layer_1
 62
7
100
AcDbSpline
 70
8
 71
3
 72
8
 73
4
 74
0
 40
0
 40
0
 40
0
 40
0
 40
1
 40
1
 40
1
 40
1
 10
170.040540
 20
34.884799
 30
0.0
 10
170.205110
 20
35.010449
 30
0.0
 10
169.532170
 20
48.682679
 30
0.0
 10
169.305660
 20
49.815219
 30
0.0
  0
SPLINE
  5
179
100
AcDbEntity
  8
Layer_1
 62
7
100
AcDbSpline
 70
8
 71
3
 72
8
 73
4
 74
0
 40
0
 40
0
 40
0
 40
0
 40
1
 40
1
 40
1
 40
1
 10
169.305660
 20
49.815219
 30
0.0
 10
168.917180
 20
51.757649
 30
0.0
 10
167.851860
 20
52.917939
 30
0.0
 10
165.948990
 20
53.471109
 30
0.0
  0
SPLINE
  5
17a
100
AcDbEntity
  8
Layer_1
 62
7
100
AcDbSpline
 70
8
 71
3
 72
8
 73
4
 74
0
 40
0
 40
0
 40
0
 40
0
 40
1
 40
1
 40
1
 40
1
 10
165.948990
 20
53.471109
 30
0.0
 10
164.753440
 20
53.818669
 30
0.0
 10
163.664970
 20
53.873969
 30
0.0
 10
160.222400
 20
53.762059
 30
0.0
  0
SPLINE
  5
17b
100
AcDbEntity
  8
Layer_1
 62
7
100
AcDbSpline
 70
8
 71
3
 72
8
 73
4
 74
0
 40
0
 40
0
 40
0
 40
0
 40
1
 40
1
 40
1
 40
1
 10
160.222400
 20
53.762059
 30
0.0
 10
157.884630
 20
53.686059
 30
0.0
 10
155.270960
 20
53.472899
 30
0.0
 10
154.414240
 20
53.288349
 30
0.0
  0
LWPOLYLINE
  5
17c
100
AcDbEntity
  8
Layer_1
 62
7
100
AcDbPolyline
 90
1
 70
1
 10
160.932860
 20
34.894789
 30
0.0
  0
SPLINE
  5
17d
100
AcDbEntity
  8
Layer_1
 62
7
100
AcDbSpline
 70
8
 71
3
 72
8
 73
4
 74
0
 40
0
 40
0
 40
0
 40
0
 40
1
 40
1
 40
1
 40
1
 10
153.009860
 20
50.586589
 30
0.0
 10
153.094160
 20
49.285179
 30
0.0
 10
153.201320
 20
48.182229
 30
0.0
 10
153.247950
 20
48.135589
 30
0.0
  0
SPLINE
  5
17e
100
AcDbEntity
  8
Layer_1
 62
7
100
AcDbSpline
 70
8
 71
3
 72
8
 73
4
 74
0
 40
0
 40
0
 40
0
 40
0
 40
1
 40
1
 40
1
 40
1
 10
153.247950
 20
48.135589
 30
0.0
 10
153.294550
 20
48.088989
 30
0.0
 10
154.938590
 20
48.181489
 30
0.0
 10
156.901290
 20
48.341149
 30
0.0
  0
SPLINE
  5
17f
100
AcDbEntity
  8
Layer_1
 62
7
100
AcDbSpline
 70
8
 71
3
 72
8
 73
4
 74
0
 40
0
 40
0
 40
0
 40
0
 40
1
 40
1
 40
1
 40
1
 10
156.901290
 20
48.341149
 30
0.0
 10
161.284010
 20
48.697739
 30
0.0
 10
162.361430
 20
48.545399
 30
0.0
 10
162.553560
 20
47.541949
 30
0.0
  0
SPLINE
  5
180
100
AcDbEntity
  8
Layer_1
 62
7
100
AcDbSpline
 70
8
 71
3
 72
8
 73
4
 74
0
 40
0
 40
0
 40
0
 40
0
 40
1
 40
1
 40
1
 40
1
 10
162.553560
 20
47.541949
 30
0.0
 10
162.629260
 20
47.146379
 30
0.0
 10
162.770410
 20
44.143829
 30
0.0
 10
162.867140
 20
40.869609
 30
0.0
  0
SPLINE
  5
181
100
AcDbEntity
  8
Layer_1
 62
7
100
AcDbSpline
 70
8
 71
3
 72
8
 73
4
 74
0
 40
0
 40
0
 40
0
 40
0
 40
1
 40
1
 40
1
 40
1
 10
162.867140
 20
40.869609
 30
0.0
 10
162.963840
 20
37.595389
 30
0.0
 10
163.084960
 20
34.845299
 30
0.0
 10
163.136230
 20
34.758299
 30
0.0
  0
SPLINE
  5
182
100
AcDbEntity
  8
Layer_1
 62
7
100
AcDbSpline
 70
8
 71
3
 72
8
 73
4
 74
0
 40
0
 40
0
 40
0
 40
0
 40
1
 40
1
 40
1
 40
1
 10
163.136230
 20
34.758299
 30
0.0
 10
163.210430
 20
34.632429
 30
0.0
 10
169.869800
 20
34.754299
 30
0.0
 10
170.040540
 20
34.884799
 30
0.0
  0
LWPOLYLINE
  5
183
100
AcDbEntity
  8
Layer_1
 62
7
100
AcDbPolyline
 90
3
 70
0
 10
154.414240
 20
53.288349
 30
0.0
 10
152.856560
 20
52.952799
 30
0.0
 10
153.009860
 20
50.586589
 30
0.0
  0
SPLINE
  5
184
100
AcDbEntity
  8
Layer_1
 62
7
100
AcDbSpline
 70
8
 71
3
 72
8
 73
4
 74
0
 40
0
 40
0
 40
0
 40
0
 40
1
 40
1
 40
1
 40
1
 10
185.597080
 20
35.331349
 30
0.0
 10
187.992160
 20
35.748439
 30
0.0
 10
187.944230
 20
35.679589
 30
0.0
 10
187.729380
 20
38.394079
 30
0.0
  0
LWPOLYLINE
  5
185
100
AcDbEntity
  8
Layer_1
 62
7
100
AcDbPolyline
 90
1
 70
1
 10
170.040540
 20
34.884799
 30
0.0
  0
SPLINE
  5
186
100
AcDbEntity
  8
Layer_1
 62
7
100
AcDbSpline
 70
8
 71
3
 72
8
 73
4
 74
0
 40
0
 40
0
 40
0
 40
0
 40
1
 40
1
 40
1
 40
1
 10
185.306240
 20
40.498459
 30
0.0
 10
182.536900
 20
40.194159
 30
0.0
 10
181.244510
 20
40.461259
 30
0.0
 10
180.779660
 20
41.433879
 30
0.0
  0
SPLINE
  5
187
100
AcDbEntity
  8
Layer_1
 62
7
100
AcDbSpline
 70
8
 71
3
 72
8
 73
4
 74
0
 40
0
 40
0
 40
0
 40
0
 40
1
 40
1
 40
1
 40
1
 10
180.779660
 20
41.433879
 30
0.0
 10
180.567320
 20
41.878189
 30
0.0
 10
180.360990
 20
44.351179
 30
0.0
 10
180.209920
 20
48.262809
 30
0.0
  0
SPLINE
  5
188
100
AcDbEntity
  8
Layer_1
 62
7
100
AcDbSpline
 70
8
 71
3
 72
8
 73
4
 74
0
 40
0
 40
0
 40
0
 40
0
 40
1
 40
1
 40
1
 40
1
 10
180.209920
 20
48.262809
 30
0.0
 10
180.079660
 20
51.635619
 30
0.0
 10
179.930630
 20
54.434869
 30
0.0
 10
179.878750
 20
54.483369
 30
0.0
  0
SPLINE
  5
189
100
AcDbEntity
  8
Layer_1
 62
7
100
AcDbSpline
 70
8
 71
3
 72
8
 73
4
 74
0
 40
0
 40
0
 40
0
 40
0
 40
1
 40
1
 40
1
 40
1
 10
179.878750
 20
54.483369
 30
0.0
 10
179.826850
 20
54.531869
 30
0.0
 10
178.960220
 20
54.362599
 30
0.0
 10
177.952860
 20
54.107209
 30
0.0
  0
SPLINE
  5
18a
100
AcDbEntity
  8
Layer_1
 62
7
100
AcDbSpline
 70
8
 71
3
 72
8
 73
4
 74
0
 40
0
 40
0
 40
0
 40
0
 40
1
 40
1
 40
1
 40
1
 10
177.952860
 20
54.107209
 30
0.0
 10
176.409140
 20
53.715859
 30
0.0
 10
175.944510
 20
53.455769
 30
0.0
 10
174.996360
 20
52.452259
 30
0.0
  0
SPLINE
  5
18b
100
AcDbEntity
  8
Layer_1
 62
7
100
AcDbSpline
 70
8
 71
3
 72
8
 73
4
 74
0
 40
0
 40
0
 40
0
 40
0
 40
1
 40
1
 40
1
 40
1
 10
174.996360
 20
52.452259
 30
0.0
 10
173.424280
 20
50.788379
 30
0.0
 10
173.226200
 20
49.828289
 30
0.0
 10
173.343380
 20
44.440109
 30
0.0
  0
SPLINE
  5
18c
100
AcDbEntity
  8
Layer_1
 62
7
100
AcDbSpline
 70
8
 71
3
 72
8
 73
4
 74
0
 40
0
 40
0
 40
0
 40
0
 40
1
 40
1
 40
1
 40
1
 10
173.343380
 20
44.440109
 30
0.0
 10
173.436680
 20
40.148889
 30
0.0
 10
173.475480
 20
39.870819
 30
0.0
 10
174.181770
 20
38.427219
 30
0.0
  0
SPLINE
  5
18d
100
AcDbEntity
  8
Layer_1
 62
7
100
AcDbSpline
 70
8
 71
3
 72
8
 73
4
 74
0
 40
0
 40
0
 40
0
 40
0
 40
1
 40
1
 40
1
 40
1
 10
174.181770
 20
38.427219
 30
0.0
 10
175.433330
 20
35.869119
 30
0.0
 10
177.053280
 20
35.095589
 30
0.0
 10
181.217960
 20
35.067419
 30
0.0
  0
SPLINE
  5
18e
100
AcDbEntity
  8
Layer_1
 62
7
100
AcDbSpline
 70
8
 71
3
 72
8
 73
4
 74
0
 40
0
 40
0
 40
0
 40
0
 40
1
 40
1
 40
1
 40
1
 10
181.217960
 20
35.067419
 30
0.0
 10
182.734000
 20
35.057119
 30
0.0
 10
184.704610
 20
35.175939
 30
0.0
 10
185.597080
 20
35.331349
 30
0.0
  0
LWPOLYLINE
  5
18f
100
AcDbEntity
  8
Layer_1
 62
7
100
AcDbPolyline
 90
3
 70
0
 10
187.729380
 20
38.394079
 30
0.0
 10
187.543370
 20
40.744289
 30
0.0
 10
185.306240
 20
40.498459
 30
0.0
  0
SPLINE
  5
190
100
AcDbEntity
  8
Layer_1
 62
7
100
AcDbSpline
 70
8
 71
3
 72
8
 73
4
 74
0
 40
0
 40
0
 40
0
 40
0
 40
1
 40
1
 40
1
 40
1
 10
198.346740
 20
35.936319
 30
0.0
 10
198.426540
 20
36.010419
 30
0.0
 10
197.402290
 20
63.424309
 30
0.0
 10
197.316480
 20
63.510119
 30
0.0
  0
SPLINE
  5
191
100
AcDbEntity
  8
Layer_1
 62
7
100
AcDbSpline
 70
8
 71
3
 72
8
 73
4
 74
0
 40
0
 40
0
 40
0
 40
0
 40
1
 40
1
 40
1
 40
1
 10
197.316480
 20
63.510119
 30
0.0
 10
197.268780
 20
63.557819
 30
0.0
 10
195.715640
 20
63.525219
 30
0.0
 10
193.864940
 20
63.437719
 30
0.0
  0
LWPOLYLINE
  5
192
100
AcDbEntity
  8
Layer_1
 62
7
100
AcDbPolyline
 90
1
 70
1
 10
185.597080
 20
35.331349
 30
0.0
  0
SPLINE
  5
193
100
AcDbEntity
  8
Layer_1
 62
7
100
AcDbSpline
 70
8
 71
3
 72
8
 73
4
 74
0
 40
0
 40
0
 40
0
 40
0
 40
1
 40
1
 40
1
 40
1
 10
190.496050
 20
61.929879
 30
0.0
 10
190.489050
 20
59.286749
 30
0.0
 10
191.330250
 20
36.232789
 30
0.0
 10
191.446900
 20
35.877029
 30
0.0
  0
SPLINE
  5
194
100
AcDbEntity
  8
Layer_1
 62
7
100
AcDbSpline
 70
8
 71
3
 72
8
 73
4
 74
0
 40
0
 40
0
 40
0
 40
0
 40
1
 40
1
 40
1
 40
1
 10
191.446900
 20
35.877029
 30
0.0
 10
191.543600
 20
35.581959
 30
0.0
 10
192.191260
 20
35.550259
 30
0.0
 10
194.935320
 20
35.706239
 30
0.0
  0
SPLINE
  5
195
100
AcDbEntity
  8
Layer_1
 62
7
100
AcDbSpline
 70
8
 71
3
 72
8
 73
4
 74
0
 40
0
 40
0
 40
0
 40
0
 40
1
 40
1
 40
1
 40
1
 10
194.935320
 20
35.706239
 30
0.0
 10
196.788610
 20
35.811589
 30
0.0
 10
198.323600
 20
35.915109
 30
0.0
 10
198.346420
 20
35.936279
 30
0.0
  0
LWPOLYLINE
  5
196
100
AcDbEntity
  8
Layer_1
 62
7
100
AcDbPolyline
 90
3
 70
0
 10
193.864940
 20
63.437719
 30
0.0
 10
190.500050
 20
63.278729
 30
0.0
 10
190.496050
 20
61.929879
 30
0.0
  0
SPLINE
  5
197
100
AcDbEntity
  8
Layer_1
 62
7
100
AcDbSpline
 70
8
 71
3
 72
8
 73
4
 74
0
 40
0
 40
0
 40
0
 40
0
 40
1
 40
1
 40
1
 40
1
 10
210.203480
 20
36.358709
 30
0.0
 10
210.288980
 20
36.497089
 30
0.0
 10
209.043160
 20
38.742839
 30
0.0
 10
207.434930
 20
41.349249
 30
0.0
  0
LWPOLYLINE
  5
198
100
AcDbEntity
  8
Layer_1
 62
7
100
AcDbPolyline
 90
2
 70
0
 10
198.346420
 20
35.936279
 30
0.0
 10
198.346740
 20
35.936319
 30
0.0
  0
SPLINE
  5
199
100
AcDbEntity
  8
Layer_1
 62
7
100
AcDbSpline
 70
8
 71
3
 72
8
 73
4
 74
0
 40
0
 40
0
 40
0
 40
0
 40
1
 40
1
 40
1
 40
1
 10
207.030470
 20
50.482129
 30
0.0
 10
208.416230
 20
52.898789
 30
0.0
 10
209.550050
 20
55.013719
 30
0.0
 10
209.550050
 20
55.181949
 30
0.0
  0
SPLINE
  5
19a
100
AcDbEntity
  8
Layer_1
 62
7
100
AcDbSpline
 70
8
 71
3
 72
8
 73
4
 74
0
 40
0
 40
0
 40
0
 40
0
 40
1
 40
1
 40
1
 40
1
 10
209.550050
 20
55.181949
 30
0.0
 10
209.550050
 20
55.383429
 30
0.0
 10
209.267830
 20
55.431399
 30
0.0
 10
208.723220
 20
55.322469
 30
0.0
  0
SPLINE
  5
19b
100
AcDbEntity
  8
Layer_1
 62
7
100
AcDbSpline
 70
8
 71
3
 72
8
 73
4
 74
0
 40
0
 40
0
 40
0
 40
0
 40
1
 40
1
 40
1
 40
1
 10
208.723220
 20
55.322469
 30
0.0
 10
208.268470
 20
55.231569
 30
0.0
 10
206.671440
 20
55.157109
 30
0.0
 10
205.174260
 20
55.157109
 30
0.0
  0
LWPOLYLINE
  5
19c
100
AcDbEntity
  8
Layer_1
 62
7
100
AcDbPolyline
 90
3
 70
0
 10
207.434930
 20
41.349249
 30
0.0
 10
204.510890
 20
46.088189
 30
0.0
 10
207.030470
 20
50.482129
 30
0.0
  0
SPLINE
  5
19d
100
AcDbEntity
  8
Layer_1
 62
7
100
AcDbSpline
 70
8
 71
3
 72
8
 73
4
 74
0
 40
0
 40
0
 40
0
 40
0
 40
1
 40
1
 40
1
 40
1
 10
206.425570
 20
36.107869
 30
0.0
 10
208.431390
 20
36.107449
 30
0.0
 10
210.117370
 20
36.219389
 30
0.0
 10
210.203470
 20
36.358709
 30
0.0
  0
LWPOLYLINE
  5
19e
100
AcDbEntity
  8
Layer_1
 62
7
100
AcDbPolyline
 90
9
 70
0
 10
205.174260
 20
55.157109
 30
0.0
 10
202.452120
 20
55.157109
 30
0.0
 10
200.935760
 20
52.312839
 30
0.0
 10
199.419410
 20
49.468569
 30
0.0
 10
199.473410
 20
45.499819
 30
0.0
 10
199.527310
 20
41.531069
 30
0.0
 10
201.165240
 20
38.819839
 30
0.0
 10
202.803160
 20
36.108619
 30
0.0
 10
206.425570
 20
36.107869
 30
0.0
  0
SPLINE
  5
19f
100
AcDbEntity
  8
Layer_1
 62
7
100
AcDbSpline
 70
8
 71
3
 72
8
 73
4
 74
0
 40
0
 40
0
 40
0
 40
0
 40
1
 40
1
 40
1
 40
1
 10
220.562390
 20
36.712509
 30
0.0
 10
220.597490
 20
36.747609
 30
0.0
 10
220.426060
 20
42.489619
 30
0.0
 10
220.181380
 20
49.472469
 30
0.0
  0
LWPOLYLINE
  5
1a0
100
AcDbEntity
  8
Layer_1
 62
7
100
AcDbPolyline
 90
1
 70
1
 10
210.203470
 20
36.358709
 30
0.0
  0
SPLINE
  5
1a1
100
AcDbEntity
  8
Layer_1
 62
7
100
AcDbSpline
 70
8
 71
3
 72
8
 73
4
 74
0
 40
0
 40
0
 40
0
 40
0
 40
1
 40
1
 40
1
 40
1
 10
216.033740
 20
62.081769
 30
0.0
 10
213.997220
 20
62.034069
 30
0.0
 10
212.291840
 20
61.955839
 30
0.0
 10
212.244010
 20
61.908009
 30
0.0
  0
SPLINE
  5
1a2
100
AcDbEntity
  8
Layer_1
 62
7
100
AcDbSpline
 70
8
 71
3
 72
8
 73
4
 74
0
 40
0
 40
0
 40
0
 40
0
 40
1
 40
1
 40
1
 40
1
 10
212.244010
 20
61.908009
 30
0.0
 10
212.196210
 20
61.860209
 30
0.0
 10
212.344570
 20
56.720019
 30
0.0
 10
212.573760
 20
50.485429
 30
0.0
  0
SPLINE
  5
1a3
100
AcDbEntity
  8
Layer_1
 62
7
100
AcDbSpline
 70
8
 71
3
 72
8
 73
4
 74
0
 40
0
 40
0
 40
0
 40
0
 40
1
 40
1
 40
1
 40
1
 10
212.573760
 20
50.485429
 30
0.0
 10
212.802940
 20
44.250839
 30
0.0
 10
212.990270
 20
38.506389
 30
0.0
 10
212.990040
 20
37.719999
 30
0.0
  0
LWPOLYLINE
  5
1a4
100
AcDbEntity
  8
Layer_1
 62
7
100
AcDbPolyline
 90
3
 70
0
 10
220.181380
 20
49.472469
 30
0.0
 10
219.736500
 20
62.168569
 30
0.0
 10
216.033740
 20
62.081769
 30
0.0
  0
SPLINE
  5
1a5
100
AcDbEntity
  8
Layer_1
 62
7
100
AcDbSpline
 70
8
 71
3
 72
8
 73
4
 74
0
 40
0
 40
0
 40
0
 40
0
 40
1
 40
1
 40
1
 40
1
 10
216.744080
 20
36.469409
 30
0.0
 10
218.809030
 20
36.568009
 30
0.0
 10
220.527270
 20
36.677379
 30
0.0
 10
220.562390
 20
36.712499
 30
0.0
  0
LWPOLYLINE
  5
1a6
100
AcDbEntity
  8
Layer_1
 62
7
100
AcDbPolyline
 90
3
 70
0
 10
212.990040
 20
37.719999
 30
0.0
 10
212.989630
 20
36.290189
 30
0.0
 10
216.744080
 20
36.469409
 30
0.0
  0
SPLINE
  5
1a7
100
AcDbEntity
  8
Layer_1
 62
7
100
AcDbSpline
 70
8
 71
3
 72
8
 73
4
 74
0
 40
0
 40
0
 40
0
 40
0
 40
1
 40
1
 40
1
 40
1
 10
248.440880
 20
39.083669
 30
0.0
 10
248.438880
 20
40.138699
 30
0.0
 10
248.364180
 20
41.448389
 30
0.0
 10
248.273970
 20
41.994089
 30
0.0
  0
SPLINE
  5
1a8
100
AcDbEntity
  8
Layer_1
 62
7
100
AcDbSpline
 70
8
 71
3
 72
8
 73
4
 74
0
 40
0
 40
0
 40
0
 40
0
 40
1
 40
1
 40
1
 40
1
 10
248.273970
 20
41.994089
 30
0.0
 10
248.119830
 20
42.926659
 30
0.0
 10
248.052440
 20
42.986509
 30
0.0
 10
247.152410
 20
42.990179
 30
0.0
  0
SPLINE
  5
1a9
100
AcDbEntity
  8
Layer_1
 62
7
100
AcDbSpline
 70
8
 71
3
 72
8
 73
4
 74
0
 40
0
 40
0
 40
0
 40
0
 40
1
 40
1
 40
1
 40
1
 10
247.152410
 20
42.990179
 30
0.0
 10
245.793030
 20
42.996179
 30
0.0
 10
244.945900
 20
43.500849
 30
0.0
 10
244.389070
 20
44.637909
 30
0.0
  0
SPLINE
  5
1aa
100
AcDbEntity
  8
Layer_1
 62
7
100
AcDbSpline
 70
8
 71
3
 72
8
 73
4
 74
0
 40
0
 40
0
 40
0
 40
0
 40
1
 40
1
 40
1
 40
1
 10
244.389070
 20
44.637909
 30
0.0
 10
244.000690
 20
45.430989
 30
0.0
 10
243.857130
 20
46.698859
 30
0.0
 10
243.655300
 20
51.118109
 30
0.0
  0
SPLINE
  5
1ab
100
AcDbEntity
  8
Layer_1
 62
7
100
AcDbSpline
 70
8
 71
3
 72
8
 73
4
 74
0
 40
0
 40
0
 40
0
 40
0
 40
1
 40
1
 40
1
 40
1
 10
243.655300
 20
51.118109
 30
0.0
 10
243.517300
 20
54.139919
 30
0.0
 10
243.334860
 20
58.084339
 30
0.0
 10
243.249880
 20
59.883479
 30
0.0
  0
LWPOLYLINE
  5
1ac
100
AcDbEntity
  8
Layer_1
 62
7
100
AcDbPolyline
 90
1
 70
1
 10
220.562390
 20
36.712499
 30
0.0
  0
SPLINE
  5
1ad
100
AcDbEntity
  8
Layer_1
 62
7
100
AcDbSpline
 70
8
 71
3
 72
8
 73
4
 74
0
 40
0
 40
0
 40
0
 40
0
 40
1
 40
1
 40
1
 40
1
 10
242.131570
 20
62.999199
 30
0.0
 10
240.518270
 20
62.739019
 30
0.0
 10
238.345910
 20
61.466379
 30
0.0
 10
237.546550
 20
60.313169
 30
0.0
  0
SPLINE
  5
1ae
100
AcDbEntity
  8
Layer_1
 62
7
100
AcDbSpline
 70
8
 71
3
 72
8
 73
4
 74
0
 40
0
 40
0
 40
0
 40
0
 40
1
 40
1
 40
1
 40
1
 10
237.546550
 20
60.313169
 30
0.0
 10
236.340560
 20
58.573299
 30
0.0
 10
235.987420
 20
56.624129
 30
0.0
 10
235.987080
 20
51.705529
 30
0.0
  0
SPLINE
  5
1af
100
AcDbEntity
  8
Layer_1
 62
7
100
AcDbSpline
 70
8
 71
3
 72
8
 73
4
 74
0
 40
0
 40
0
 40
0
 40
0
 40
1
 40
1
 40
1
 40
1
 10
235.987080
 20
51.705529
 30
0.0
 10
235.986270
 20
40.099789
 30
0.0
 10
237.987180
 20
37.345379
 30
0.0
 10
246.525570
 20
37.198449
 30
0.0
  0
LWPOLYLINE
  5
1b0
100
AcDbEntity
  8
Layer_1
 62
7
100
AcDbPolyline
 90
3
 70
0
 10
243.249880
 20
59.883479
 30
0.0
 10
243.095380
 20
63.154639
 30
0.0
 10
242.131570
 20
62.999199
 30
0.0
  0
SPLINE
  5
1b1
100
AcDbEntity
  8
Layer_1
 62
7
100
AcDbSpline
 70
8
 71
3
 72
8
 73
4
 74
0
 40
0
 40
0
 40
0
 40
0
 40
1
 40
1
 40
1
 40
1
 10
253.582470
 20
37.854259
 30
0.0
 10
255.080570
 20
38.087579
 30
0.0
 10
256.455720
 20
38.370839
 30
0.0
 10
256.638350
 20
38.483709
 30
0.0
  0
SPLINE
  5
1b2
100
AcDbEntity
  8
Layer_1
 62
7
100
AcDbSpline
 70
8
 71
3
 72
8
 73
4
 74
0
 40
0
 40
0
 40
0
 40
0
 40
1
 40
1
 40
1
 40
1
 10
256.638350
 20
38.483709
 30
0.0
 10
256.900680
 20
38.645839
 30
0.0
 10
256.922440
 20
40.206919
 30
0.0
 10
256.741990
 20
45.918849
 30
0.0
  0
LWPOLYLINE
  5
1b3
100
AcDbEntity
  8
Layer_1
 62
7
100
AcDbPolyline
 90
3
 70
0
 10
246.525570
 20
37.198449
 30
0.0
 10
248.443800
 20
37.165449
 30
0.0
 10
248.440880
 20
39.083669
 30
0.0
  0
SPLINE
  5
1b4
100
AcDbEntity
  8
Layer_1
 62
7
100
AcDbSpline
 70
8
 71
3
 72
8
 73
4
 74
0
 40
0
 40
0
 40
0
 40
0
 40
1
 40
1
 40
1
 40
1
 10
252.677130
 20
53.085779
 30
0.0
 10
250.567080
 20
53.051079
 30
0.0
 10
248.364420
 20
52.958419
 30
0.0
 10
247.782340
 20
52.879789
 30
0.0
  0
LWPOLYLINE
  5
1b5
100
AcDbEntity
  8
Layer_1
 62
7
100
AcDbPolyline
 90
3
 70
0
 10
256.741990
 20
45.918849
 30
0.0
 10
256.513590
 20
53.148779
 30
0.0
 10
252.677130
 20
53.085779
 30
0.0
  0
SPLINE
  5
1b6
100
AcDbEntity
  8
Layer_1
 62
7
100
AcDbSpline
 70
8
 71
3
 72
8
 73
4
 74
0
 40
0
 40
0
 40
0
 40
0
 40
1
 40
1
 40
1
 40
1
 10
249.595560
 20
45.459919
 30
0.0
 10
249.689660
 20
44.346559
 30
0.0
 10
249.766670
 20
42.084369
 30
0.0
 10
249.766670
 20
40.432839
 30
0.0
  0
SPLINE
  5
1b7
100
AcDbEntity
  8
Layer_1
 62
7
100
AcDbSpline
 70
8
 71
3
 72
8
 73
4
 74
0
 40
0
 40
0
 40
0
 40
0
 40
1
 40
1
 40
1
 40
1
 10
249.766670
 20
40.432839
 30
0.0
 10
249.766670
 20
36.931839
 30
0.0
 10
249.372030
 20
37.198519
 30
0.0
 10
253.582430
 20
37.854279
 30
0.0
  0
LWPOLYLINE
  5
1b8
100
AcDbEntity
  8
Layer_1
 62
7
100
AcDbPolyline
 90
7
 70
0
 10
247.782340
 20
52.879789
 30
0.0
 10
246.724000
 20
52.736829
 30
0.0
 10
246.807700
 20
50.110519
 30
0.0
 10
246.891400
 20
47.484209
 30
0.0
 10
248.157920
 20
47.484209
 30
0.0
 10
249.424440
 20
47.484209
 30
0.0
 10
249.595560
 20
45.459919
 30
0.0
  0
SPLINE
  5
1b9
100
AcDbEntity
  8
Layer_1
 62
7
100
AcDbSpline
 70
8
 71
3
 72
8
 73
4
 74
0
 40
0
 40
0
 40
0
 40
0
 40
1
 40
1
 40
1
 40
1
 10
269.038270
 20
38.366949
 30
0.0
 10
269.087370
 20
38.410649
 30
0.0
 10
268.938470
 20
43.605309
 30
0.0
 10
268.707380
 20
49.910619
 30
0.0
  0
SPLINE
  5
1ba
100
AcDbEntity
  8
Layer_1
 62
7
100
AcDbSpline
 70
8
 71
3
 72
8
 73
4
 74
0
 40
0
 40
0
 40
0
 40
0
 40
1
 40
1
 40
1
 40
1
 10
268.707380
 20
49.910619
 30
0.0
 10
268.476280
 20
56.215929
 30
0.0
 10
268.287280
 20
61.949359
 30
0.0
 10
268.287380
 20
62.651589
 30
0.0
  0
LWPOLYLINE
  5
1bb
100
AcDbEntity
  8
Layer_1
 62
7
100
AcDbPolyline
 90
1
 70
1
 10
253.582430
 20
37.854279
 30
0.0
  0
SPLINE
  5
1bc
100
AcDbEntity
  8
Layer_1
 62
7
100
AcDbSpline
 70
8
 71
3
 72
8
 73
4
 74
0
 40
0
 40
0
 40
0
 40
0
 40
1
 40
1
 40
1
 40
1
 10
264.604660
 20
63.842159
 30
0.0
 10
262.579080
 20
63.794759
 30
0.0
 10
260.863370
 20
63.696489
 30
0.0
 10
260.791970
 20
63.623729
 30
0.0
  0
SPLINE
  5
1bd
100
AcDbEntity
  8
Layer_1
 62
7
100
AcDbSpline
 70
8
 71
3
 72
8
 73
4
 74
0
 40
0
 40
0
 40
0
 40
0
 40
1
 40
1
 40
1
 40
1
 10
260.791970
 20
63.623729
 30
0.0
 10
260.684990
 20
63.514699
 30
0.0
 10
261.524670
 20
38.135909
 30
0.0
 10
261.637410
 20
38.070959
 30
0.0
  0
SPLINE
  5
1be
100
AcDbEntity
  8
Layer_1
 62
7
100
AcDbSpline
 70
8
 71
3
 72
8
 73
4
 74
0
 40
0
 40
0
 40
0
 40
0
 40
1
 40
1
 40
1
 40
1
 10
261.637410
 20
38.070959
 30
0.0
 10
261.741350
 20
38.011059
 30
0.0
 10
268.962960
 20
38.299849
 30
0.0
 10
269.038270
 20
38.366899
 30
0.0
  0
LWPOLYLINE
  5
1bf
100
AcDbEntity
  8
Layer_1
 62
7
100
AcDbPolyline
 90
3
 70
0
 10
268.287380
 20
62.651589
 30
0.0
 10
268.287550
 20
63.928359
 30
0.0
 10
264.604660
 20
63.842159
 30
0.0
  0
SPLINE
  5
1c0
100
AcDbEntity
  8
Layer_1
 62
7
100
AcDbSpline
 70
8
 71
3
 72
8
 73
4
 74
0
 40
0
 40
0
 40
0
 40
0
 40
1
 40
1
 40
1
 40
1
 10
283.343910
 20
38.919199
 30
0.0
 10
283.448920
 20
39.009799
 30
0.0
 10
282.998880
 20
53.556689
 30
0.0
 10
282.667620
 20
60.779509
 30
0.0
  0
LWPOLYLINE
  5
1c1
100
AcDbEntity
  8
Layer_1
 62
7
100
AcDbPolyline
 90
1
 70
1
 10
269.038270
 20
38.366899
 30
0.0
  0
SPLINE
  5
1c2
100
AcDbEntity
  8
Layer_1
 62
7
100
AcDbSpline
 70
8
 71
3
 72
8
 73
4
 74
0
 40
0
 40
0
 40
0
 40
0
 40
1
 40
1
 40
1
 40
1
 10
279.929000
 20
64.417529
 30
0.0
 10
278.514530
 20
64.417529
 30
0.0
 10
276.794880
 20
64.340429
 30
0.0
 10
276.107550
 20
64.246239
 30
0.0
  0
SPLINE
  5
1c3
100
AcDbEntity
  8
Layer_1
 62
7
100
AcDbSpline
 70
8
 71
3
 72
8
 73
4
 74
0
 40
0
 40
0
 40
0
 40
0
 40
1
 40
1
 40
1
 40
1
 10
276.107550
 20
64.246239
 30
0.0
 10
274.881950
 20
64.078249
 30
0.0
 10
274.860610
 20
64.059129
 30
0.0
 10
275.000280
 20
63.254049
 30
0.0
  0
SPLINE
  5
1c4
100
AcDbEntity
  8
Layer_1
 62
7
100
AcDbSpline
 70
8
 71
3
 72
8
 73
4
 74
0
 40
0
 40
0
 40
0
 40
0
 40
1
 40
1
 40
1
 40
1
 10
275.000280
 20
63.254049
 30
0.0
 10
275.078580
 20
62.802559
 30
0.0
 10
275.171960
 20
60.647209
 30
0.0
 10
275.207720
 20
58.464399
 30
0.0
  0
LWPOLYLINE
  5
1c5
100
AcDbEntity
  8
Layer_1
 62
7
100
AcDbPolyline
 90
3
 70
0
 10
282.667620
 20
60.779509
 30
0.0
 10
282.500770
 20
64.417529
 30
0.0
 10
279.929000
 20
64.417529
 30
0.0
  0
SPLINE
  5
1c6
100
AcDbEntity
  8
Layer_1
 62
7
100
AcDbSpline
 70
8
 71
3
 72
8
 73
4
 74
0
 40
0
 40
0
 40
0
 40
0
 40
1
 40
1
 40
1
 40
1
 10
272.640020
 20
54.363359
 30
0.0
 10
270.760140
 20
54.268859
 30
0.0
 10
270.014880
 20
54.136499
 30
0.0
 10
270.033780
 20
53.900339
 30
0.0
  0
SPLINE
  5
1c7
100
AcDbEntity
  8
Layer_1
 62
7
100
AcDbSpline
 70
8
 71
3
 72
8
 73
4
 74
0
 40
0
 40
0
 40
0
 40
0
 40
1
 40
1
 40
1
 40
1
 10
270.033780
 20
53.900339
 30
0.0
 10
270.048280
 20
53.718439
 30
0.0
 10
270.078080
 20
52.383149
 30
0.0
 10
270.099880
 20
50.933029
 30
0.0
  0
LWPOLYLINE
  5
1c8
100
AcDbEntity
  8
Layer_1
 62
7
100
AcDbPolyline
 90
3
 70
0
 10
275.207720
 20
58.464399
 30
0.0
 10
275.272720
 20
54.495649
 30
0.0
 10
272.640020
 20
54.363359
 30
0.0
  0
SPLINE
  5
1c9
100
AcDbEntity
  8
Layer_1
 62
7
100
AcDbSpline
 70
8
 71
3
 72
8
 73
4
 74
0
 40
0
 40
0
 40
0
 40
0
 40
1
 40
1
 40
1
 40
1
 10
275.725370
 20
43.780039
 30
0.0
 10
275.814370
 20
41.378939
 30
0.0
 10
275.903680
 20
39.206959
 30
0.0
 10
275.923810
 20
38.953399
 30
0.0
  0
SPLINE
  5
1ca
100
AcDbEntity
  8
Layer_1
 62
7
100
AcDbSpline
 70
8
 71
3
 72
8
 73
4
 74
0
 40
0
 40
0
 40
0
 40
0
 40
1
 40
1
 40
1
 40
1
 10
275.923810
 20
38.953399
 30
0.0
 10
275.957410
 20
38.530429
 30
0.0
 10
276.260630
 20
38.506169
 30
0.0
 10
279.598430
 20
38.659469
 30
0.0
  0
SPLINE
  5
1cb
100
AcDbEntity
  8
Layer_1
 62
7
100
AcDbSpline
 70
8
 71
3
 72
8
 73
4
 74
0
 40
0
 40
0
 40
0
 40
0
 40
1
 40
1
 40
1
 40
1
 10
279.598430
 20
38.659469
 30
0.0
 10
281.599340
 20
38.751369
 30
0.0
 10
283.284790
 20
38.868249
 30
0.0
 10
283.343860
 20
38.919209
 30
0.0
  0
LWPOLYLINE
  5
1cc
100
AcDbEntity
  8
Layer_1
 62
7
100
AcDbPolyline
 90
5
 70
0
 10
270.099880
 20
50.933029
 30
0.0
 10
270.139580
 20
48.296459
 30
0.0
 10
272.851560
 20
48.221059
 30
0.0
 10
275.563540
 20
48.145659
 30
0.0
 10
275.725370
 20
43.780039
 30
0.0
  0
SPLINE
  5
1cd
100
AcDbEntity
  8
Layer_1
 62
7
100
AcDbSpline
 70
8
 71
3
 72
8
 73
4
 74
0
 40
0
 40
0
 40
0
 40
0
 40
1
 40
1
 40
1
 40
1
 10
225.993080
 20
44.823969
 30
0.0
 10
229.734290
 20
45.217729
 30
0.0
 10
231.742080
 20
46.365729
 30
0.0
 10
232.728040
 20
48.674819
 30
0.0
  0
SPLINE
  5
1ce
100
AcDbEntity
  8
Layer_1
 62
7
100
AcDbSpline
 70
8
 71
3
 72
8
 73
4
 74
0
 40
0
 40
0
 40
0
 40
0
 40
1
 40
1
 40
1
 40
1
 10
232.728040
 20
48.674819
 30
0.0
 10
233.077460
 20
49.493159
 30
0.0
 10
233.176200
 20
50.483119
 30
0.0
 10
233.163470
 20
53.040439
 30
0.0
  0
SPLINE
  5
1cf
100
AcDbEntity
  8
Layer_1
 62
7
100
AcDbSpline
 70
8
 71
3
 72
8
 73
4
 74
0
 40
0
 40
0
 40
0
 40
0
 40
1
 40
1
 40
1
 40
1
 10
233.163470
 20
53.040439
 30
0.0
 10
233.130470
 20
59.676899
 30
0.0
 10
231.944920
 20
61.574319
 30
0.0
 10
227.373110
 20
62.307969
 30
0.0
  0
SPLINE
  5
1d0
100
AcDbEntity
  8
Layer_1
 62
7
100
AcDbSpline
 70
8
 71
3
 72
8
 73
4
 74
0
 40
0
 40
0
 40
0
 40
0
 40
1
 40
1
 40
1
 40
1
 10
227.373110
 20
62.307969
 30
0.0
 10
226.317620
 20
62.477349
 30
0.0
 10
224.643370
 20
62.523759
 30
0.0
 10
223.374520
 20
62.418809
 30
0.0
  0
LWPOLYLINE
  5
1d1
100
AcDbEntity
  8
Layer_1
 62
7
100
AcDbPolyline
 90
1
 70
1
 10
283.343860
 20
38.919209
 30
0.0
  0
SPLINE
  5
1d2
100
AcDbEntity
  8
Layer_1
 62
7
100
AcDbSpline
 70
8
 71
3
 72
8
 73
4
 74
0
 40
0
 40
0
 40
0
 40
0
 40
1
 40
1
 40
1
 40
1
 10
221.194710
 20
60.351339
 30
0.0
 10
221.196710
 20
59.313519
 30
0.0
 10
221.271410
 20
58.017919
 30
0.0
 10
221.361620
 20
57.472209
 30
0.0
  0
LWPOLYLINE
  5
1d3
100
AcDbEntity
  8
Layer_1
 62
7
100
AcDbPolyline
 90
3
 70
0
 10
223.374520
 20
62.418809
 30
0.0
 10
221.191710
 20
62.238269
 30
0.0
 10
221.194710
 20
60.351339
 30
0.0
  0
SPLINE
  5
1d4
100
AcDbEntity
  8
Layer_1
 62
7
100
AcDbSpline
 70
8
 71
3
 72
8
 73
4
 74
0
 40
0
 40
0
 40
0
 40
0
 40
1
 40
1
 40
1
 40
1
 10
223.012360
 20
56.476029
 30
0.0
 10
223.830060
 20
56.474029
 30
0.0
 10
224.666310
 20
56.366109
 30
0.0
 10
224.870680
 20
56.236719
 30
0.0
  0
SPLINE
  5
1d5
100
AcDbEntity
  8
Layer_1
 62
7
100
AcDbSpline
 70
8
 71
3
 72
8
 73
4
 74
0
 40
0
 40
0
 40
0
 40
0
 40
1
 40
1
 40
1
 40
1
 10
224.870680
 20
56.236719
 30
0.0
 10
225.315720
 20
55.954969
 30
0.0
 10
225.737240
 20
53.252749
 30
0.0
 10
225.522560
 20
52.057729
 30
0.0
  0
SPLINE
  5
1d6
100
AcDbEntity
  8
Layer_1
 62
7
100
AcDbSpline
 70
8
 71
3
 72
8
 73
4
 74
0
 40
0
 40
0
 40
0
 40
0
 40
1
 40
1
 40
1
 40
1
 10
225.522560
 20
52.057729
 30
0.0
 10
225.316510
 20
50.910709
 30
0.0
 10
224.976520
 20
50.687109
 30
0.0
 10
223.149100
 20
50.496759
 30
0.0
  0
LWPOLYLINE
  5
1d7
100
AcDbEntity
  8
Layer_1
 62
7
100
AcDbPolyline
 90
3
 70
0
 10
221.361620
 20
57.472209
 30
0.0
 10
221.525620
 20
56.480029
 30
0.0
 10
223.012360
 20
56.476029
 30
0.0
  0
SPLINE
  5
1d8
100
AcDbEntity
  8
Layer_1
 62
7
100
AcDbSpline
 70
8
 71
3
 72
8
 73
4
 74
0
 40
0
 40
0
 40
0
 40
0
 40
1
 40
1
 40
1
 40
1
 10
222.729760
 20
44.578829
 30
0.0
 10
223.266390
 20
44.581829
 30
0.0
 10
224.734960
 20
44.691889
 30
0.0
 10
225.993270
 20
44.824319
 30
0.0
  0
LWPOLYLINE
  5
1d9
100
AcDbEntity
  8
Layer_1
 62
7
100
AcDbPolyline
 90
5
 70
0
 10
223.149100
 20
50.496759
 30
0.0
 10
221.588680
 20
50.334219
 30
0.0
 10
221.671380
 20
47.454019
 30
0.0
 10
221.754080
 20
44.573829
 30
0.0
 10
222.729760
 20
44.578829
 30
0.0
  0
SPLINE
  5
1da
100
AcDbEntity
  8
Layer_1
 62
7
100
AcDbSpline
 70
8
 71
3
 72
8
 73
4
 74
0
 40
0
 40
0
 40
0
 40
0
 40
1
 40
1
 40
1
 40
1
 10
187.060460
 20
51.706789
 30
0.0
 10
187.060460
 20
54.444139
 30
0.0
 10
187.222300
 20
54.301299
 30
0.0
 10
183.849690
 20
54.540699
 30
0.0
  0
LWPOLYLINE
  5
1db
100
AcDbEntity
  8
Layer_1
 62
7
100
AcDbPolyline
 90
2
 70
0
 10
225.993270
 20
44.824319
 30
0.0
 10
225.993080
 20
44.823969
 30
0.0
  0
SPLINE
  5
1dc
100
AcDbEntity
  8
Layer_1
 62
7
100
AcDbSpline
 70
8
 71
3
 72
8
 73
4
 74
0
 40
0
 40
0
 40
0
 40
0
 40
1
 40
1
 40
1
 40
1
 10
181.504210
 20
52.065829
 30
0.0
 10
181.504210
 20
50.613079
 30
0.0
 10
181.553310
 20
49.374859
 30
0.0
 10
181.613320
 20
49.314229
 30
0.0
  0
SPLINE
  5
1dd
100
AcDbEntity
  8
Layer_1
 62
7
100
AcDbSpline
 70
8
 71
3
 72
8
 73
4
 74
0
 40
0
 40
0
 40
0
 40
0
 40
1
 40
1
 40
1
 40
1
 10
181.613320
 20
49.314229
 30
0.0
 10
181.673320
 20
49.253629
 30
0.0
 10
182.923490
 20
49.241629
 30
0.0
 10
184.391450
 20
49.287729
 30
0.0
  0
LWPOLYLINE
  5
1de
100
AcDbEntity
  8
Layer_1
 62
7
100
AcDbPolyline
 90
3
 70
0
 10
183.849690
 20
54.540699
 30
0.0
 10
181.504210
 20
54.707179
 30
0.0
 10
181.504210
 20
52.065829
 30
0.0
  0
LWPOLYLINE
  5
1df
100
AcDbEntity
  8
Layer_1
 62
7
100
AcDbPolyline
 90
3
 70
0
 10
184.391450
 20
49.287729
 30
0.0
 10
187.060460
 20
49.371429
 30
0.0
 10
187.060460
 20
51.706789
 30
0.0
  0
SPLINE
  5
1e0
100
AcDbEntity
  8
Layer_1
 62
7
100
AcDbSpline
 70
8
 71
3
 72
8
 73
4
 74
0
 40
0
 40
0
 40
0
 40
0
 40
1
 40
1
 40
1
 40
1
 10
254.926110
 20
63.141139
 30
0.0
 10
253.063960
 20
63.469829
 30
0.0
 10
247.544600
 20
63.704569
 30
0.0
 10
246.051560
 20
63.518579
 30
0.0
  0
LWPOLYLINE
  5
1e1
100
AcDbEntity
  8
Layer_1
 62
7
100
AcDbPolyline
 90
5
 70
0
 10
251.561310
 20
57.658189
 30
0.0
 10
256.134040
 20
57.645689
 30
0.0
 10
256.059240
 20
60.300009
 30
0.0
 10
255.984440
 20
62.954329
 30
0.0
 10
254.926110
 20
63.141139
 30
0.0
  0
SPLINE
  5
1e2
100
AcDbEntity
  8
Layer_1
 62
7
100
AcDbSpline
 70
8
 71
3
 72
8
 73
4
 74
0
 40
0
 40
0
 40
0
 40
0
 40
1
 40
1
 40
1
 40
1
 10
245.880220
 20
57.471609
 30
0.0
 10
246.489860
 20
57.581059
 30
0.0
 10
249.046390
 20
57.664999
 30
0.0
 10
251.561390
 20
57.658149
 30
0.0
  0
LWPOLYLINE
  5
1e3
100
AcDbEntity
  8
Layer_1
 62
7
100
AcDbPolyline
 90
5
 70
0
 10
246.051560
 20
63.518579
 30
0.0
 10
244.607360
 20
63.338669
 30
0.0
 10
244.689560
 20
60.305639
 30
0.0
 10
244.771760
 20
57.272609
 30
0.0
 10
245.880220
 20
57.471609
 30
0.0
  0
SPLINE
  5
1e4
100
AcDbEntity
  8
Layer_1
 62
7
100
AcDbSpline
 70
8
 71
3
 72
8
 73
4
 74
0
 40
0
 40
0
 40
0
 40
0
 40
1
 40
1
 40
1
 40
1
 10
6.651641
 20
20.703589
 30
0.0
 10
5.614869
 20
22.319259
 30
0.0
 10
3.647449
 20
26.258709
 30
0.0
 10
2.948164
 20
28.119229
 30
0.0
  0
SPLINE
  5
1e5
100
AcDbEntity
  8
Layer_1
 62
7
100
AcDbSpline
 70
8
 71
3
 72
8
 73
4
 74
0
 40
0
 40
0
 40
0
 40
0
 40
1
 40
1
 40
1
 40
1
 10
2.948164
 20
28.119229
 30
0.0
 10
2.569814
 20
29.125859
 30
0.0
 10
2.508388
 20
29.554989
 30
0.0
 10
2.731451
 20
29.633199
 30
0.0
  0
SPLINE
  5
1e6
100
AcDbEntity
  8
Layer_1
 62
7
100
AcDbSpline
 70
8
 71
3
 72
8
 73
4
 74
0
 40
0
 40
0
 40
0
 40
0
 40
1
 40
1
 40
1
 40
1
 10
2.731451
 20
29.633199
 30
0.0
 10
3.099586
 20
29.762279
 30
0.0
 10
22.761538
 20
35.604939
 30
0.0
 10
31.053851
 20
38.049359
 30
0.0
  0
LWPOLYLINE
  5
1e7
100
AcDbEntity
  8
Layer_1
 62
7
100
AcDbPolyline
 90
1
 70
1
 10
251.561390
 20
57.658149
 30
0.0
  0
SPLINE
  5
1e8
100
AcDbEntity
  8
Layer_1
 62
7
100
AcDbSpline
 70
8
 71
3
 72
8
 73
4
 74
0
 40
0
 40
0
 40
0
 40
0
 40
1
 40
1
 40
1
 40
1
 10
36.653872
 20
37.864909
 30
0.0
 10
36.551528
 20
36.825359
 30
0.0
 10
36.444699
 20
35.951579
 30
0.0
 10
36.416474
 20
35.923179
 30
0.0
  0
SPLINE
  5
1e9
100
AcDbEntity
  8
Layer_1
 62
7
100
AcDbSpline
 70
8
 71
3
 72
8
 73
4
 74
0
 40
0
 40
0
 40
0
 40
0
 40
1
 40
1
 40
1
 40
1
 10
36.416474
 20
35.923179
 30
0.0
 10
36.304428
 20
35.810419
 30
0.0
 10
8.050335
 20
19.634739
 30
0.0
 10
7.775811
 20
19.526189
 30
0.0
  0
SPLINE
  5
1ea
100
AcDbEntity
  8
Layer_1
 62
7
100
AcDbSpline
 70
8
 71
3
 72
8
 73
4
 74
0
 40
0
 40
0
 40
0
 40
0
 40
1
 40
1
 40
1
 40
1
 10
7.775811
 20
19.526189
 30
0.0
 10
7.614099
 20
19.462289
 30
0.0
 10
7.108223
 20
19.992069
 30
0.0
 10
6.651641
 20
20.703589
 30
0.0
  0
LWPOLYLINE
  5
1eb
100
AcDbEntity
  8
Layer_1
 62
7
100
AcDbPolyline
 90
3
 70
0
 10
31.053851
 20
38.049359
 30
0.0
 10
36.839953
 20
39.754999
 30
0.0
 10
36.653872
 20
37.864909
 30
0.0
  0
SPLINE
  5
1ec
100
AcDbEntity
  8
Layer_1
 62
7
100
AcDbSpline
 70
8
 71
3
 72
8
 73
4
 74
0
 40
0
 40
0
 40
0
 40
0
 40
1
 40
1
 40
1
 40
1
 10
63.048387
 20
24.267009
 30
0.0
 10
62.749245
 20
24.594429
 30
0.0
 10
61.781352
 20
25.993409
 30
0.0
 10
60.897514
 20
27.375859
 30
0.0
  0
LWPOLYLINE
  5
1ed
100
AcDbEntity
  8
Layer_1
 62
7
100
AcDbPolyline
 90
1
 70
1
 10
6.651641
 20
20.703589
 30
0.0
  0
SPLINE
  5
1ee
100
AcDbEntity
  8
Layer_1
 62
7
100
AcDbSpline
 70
8
 71
3
 72
8
 73
4
 74
0
 40
0
 40
0
 40
0
 40
0
 40
1
 40
1
 40
1
 40
1
 10
64.052775
 20
28.854019
 30
0.0
 10
66.063609
 20
25.231019
 30
0.0
 10
66.070481
 20
25.200839
 30
0.0
 10
65.075421
 20
24.363559
 30
0.0
  0
SPLINE
  5
1ef
100
AcDbEntity
  8
Layer_1
 62
7
100
AcDbSpline
 70
8
 71
3
 72
8
 73
4
 74
0
 40
0
 40
0
 40
0
 40
0
 40
1
 40
1
 40
1
 40
1
 10
65.075421
 20
24.363559
 30
0.0
 10
64.070054
 20
23.517599
 30
0.0
 10
63.747125
 20
23.502209
 30
0.0
 10
63.048387
 20
24.266959
 30
0.0
  0
LWPOLYLINE
  5
1f0
100
AcDbEntity
  8
Layer_1
 62
7
100
AcDbPolyline
 90
5
 70
0
 10
60.897514
 20
27.375859
 30
0.0
 10
59.290535
 20
29.889399
 30
0.0
 10
60.925132
 20
30.716749
 30
0.0
 10
62.559728
 20
31.544099
 30
0.0
 10
64.052775
 20
28.854019
 30
0.0
  0
SPLINE
  5
1f1
100
AcDbEntity
  8
Layer_1
 62
7
100
AcDbSpline
 70
8
 71
3
 72
8
 73
4
 74
0
 40
0
 40
0
 40
0
 40
0
 40
1
 40
1
 40
1
 40
1
 10
43.970501
 20
29.507379
 30
0.0
 10
43.342953
 20
29.786039
 30
0.0
 10
42.489820
 20
30.353709
 30
0.0
 10
42.074652
 20
30.768879
 30
0.0
  0
LWPOLYLINE
  5
1f2
100
AcDbEntity
  8
Layer_1
 62
7
100
AcDbPolyline
 90
1
 70
1
 10
63.048387
 20
24.266959
 30
0.0
  0
SPLINE
  5
1f3
100
AcDbEntity
  8
Layer_1
 62
7
100
AcDbSpline
 70
8
 71
3
 72
8
 73
4
 74
0
 40
0
 40
0
 40
0
 40
0
 40
1
 40
1
 40
1
 40
1
 10
42.335129
 20
31.252719
 30
0.0
 10
43.099544
 20
31.048689
 30
0.0
 10
43.627268
 20
31.073069
 30
0.0
 10
44.470572
 20
31.351419
 30
0.0
  0
SPLINE
  5
1f4
100
AcDbEntity
  8
Layer_1
 62
7
100
AcDbSpline
 70
8
 71
3
 72
8
 73
4
 74
0
 40
0
 40
0
 40
0
 40
0
 40
1
 40
1
 40
1
 40
1
 10
44.470572
 20
31.351419
 30
0.0
 10
45.490319
 20
31.687959
 30
0.0
 10
46.831291
 20
32.769899
 30
0.0
 10
46.831291
 20
33.256109
 30
0.0
  0
SPLINE
  5
1f5
100
AcDbEntity
  8
Layer_1
 62
7
100
AcDbSpline
 70
8
 71
3
 72
8
 73
4
 74
0
 40
0
 40
0
 40
0
 40
0
 40
1
 40
1
 40
1
 40
1
 10
46.831291
 20
33.256109
 30
0.0
 10
46.831291
 20
33.364509
 30
0.0
 10
46.087150
 20
33.390889
 30
0.0
 10
45.177645
 20
33.314709
 30
0.0
  0
SPLINE
  5
1f6
100
AcDbEntity
  8
Layer_1
 62
7
100
AcDbSpline
 70
8
 71
3
 72
8
 73
4
 74
0
 40
0
 40
0
 40
0
 40
0
 40
1
 40
1
 40
1
 40
1
 10
45.177645
 20
33.314709
 30
0.0
 10
43.775400
 20
33.197299
 30
0.0
 10
43.598834
 20
33.228109
 30
0.0
 10
44.016241
 20
33.517209
 30
0.0
  0
SPLINE
  5
1f7
100
AcDbEntity
  8
Layer_1
 62
7
100
AcDbSpline
 70
8
 71
3
 72
8
 73
4
 74
0
 40
0
 40
0
 40
0
 40
0
 40
1
 40
1
 40
1
 40
1
 10
44.016241
 20
33.517209
 30
0.0
 10
46.079271
 20
34.946189
 30
0.0
 10
46.566707
 20
35.365629
 30
0.0
 10
46.566707
 20
35.711909
 30
0.0
  0
SPLINE
  5
1f8
100
AcDbEntity
  8
Layer_1
 62
7
100
AcDbSpline
 70
8
 71
3
 72
8
 73
4
 74
0
 40
0
 40
0
 40
0
 40
0
 40
1
 40
1
 40
1
 40
1
 10
46.566707
 20
35.711909
 30
0.0
 10
46.566707
 20
35.929269
 30
0.0
 10
46.358348
 20
36.111399
 30
0.0
 10
46.103687
 20
36.116639
 30
0.0
  0
SPLINE
  5
1f9
100
AcDbEntity
  8
Layer_1
 62
7
100
AcDbSpline
 70
8
 71
3
 72
8
 73
4
 74
0
 40
0
 40
0
 40
0
 40
0
 40
1
 40
1
 40
1
 40
1
 10
46.103687
 20
36.116639
 30
0.0
 10
45.739395
 20
36.123639
 30
0.0
 10
45.797978
 20
36.254909
 30
0.0
 10
46.378427
 20
36.729989
 30
0.0
  0
SPLINE
  5
1fa
100
AcDbEntity
  8
Layer_1
 62
7
100
AcDbSpline
 70
8
 71
3
 72
8
 73
4
 74
0
 40
0
 40
0
 40
0
 40
0
 40
1
 40
1
 40
1
 40
1
 10
46.378427
 20
36.729989
 30
0.0
 10
47.250836
 20
37.444029
 30
0.0
 10
47.136674
 20
38.033099
 30
0.0
 10
46.037657
 20
38.488319
 30
0.0
  0
SPLINE
  5
1fb
100
AcDbEntity
  8
Layer_1
 62
7
100
AcDbSpline
 70
8
 71
3
 72
8
 73
4
 74
0
 40
0
 40
0
 40
0
 40
0
 40
1
 40
1
 40
1
 40
1
 10
46.037657
 20
38.488319
 30
0.0
 10
45.622071
 20
38.660459
 30
0.0
 10
45.075603
 20
39.029419
 30
0.0
 10
44.823283
 20
39.308229
 30
0.0
  0
SPLINE
  5
1fc
100
AcDbEntity
  8
Layer_1
 62
7
100
AcDbSpline
 70
8
 71
3
 72
8
 73
4
 74
0
 40
0
 40
0
 40
0
 40
0
 40
1
 40
1
 40
1
 40
1
 10
44.823283
 20
39.308229
 30
0.0
 10
44.379195
 20
39.798949
 30
0.0
 10
44.390251
 20
39.810019
 30
0.0
 10
45.168941
 20
39.654279
 30
0.0
  0
SPLINE
  5
1fd
100
AcDbEntity
  8
Layer_1
 62
7
100
AcDbSpline
 70
8
 71
3
 72
8
 73
4
 74
0
 40
0
 40
0
 40
0
 40
0
 40
1
 40
1
 40
1
 40
1
 10
45.168941
 20
39.654279
 30
0.0
 10
46.184080
 20
39.451249
 30
0.0
 10
46.485316
 20
39.889169
 30
0.0
 10
45.921956
 20
40.748959
 30
0.0
  0
SPLINE
  5
1fe
100
AcDbEntity
  8
Layer_1
 62
7
100
AcDbSpline
 70
8
 71
3
 72
8
 73
4
 74
0
 40
0
 40
0
 40
0
 40
0
 40
1
 40
1
 40
1
 40
1
 10
45.921956
 20
40.748959
 30
0.0
 10
45.530637
 20
41.346189
 30
0.0
 10
45.530637
 20
41.451379
 30
0.0
 10
45.921956
 20
42.048609
 30
0.0
  0
SPLINE
  5
1ff
100
AcDbEntity
  8
Layer_1
 62
7
100
AcDbSpline
 70
8
 71
3
 72
8
 73
4
 74
0
 40
0
 40
0
 40
0
 40
0
 40
1
 40
1
 40
1
 40
1
 10
45.921956
 20
42.048609
 30
0.0
 10
46.501998
 20
42.933869
 30
0.0
 10
46.218540
 20
43.250869
 30
0.0
 10
44.846916
 20
43.250869
 30
0.0
  0
SPLINE
  5
200
100
AcDbEntity
  8
Layer_1
 62
7
100
AcDbSpline
 70
8
 71
3
 72
8
 73
4
 74
0
 40
0
 40
0
 40
0
 40
0
 40
1
 40
1
 40
1
 40
1
 10
44.846916
 20
43.250869
 30
0.0
 10
43.485979
 20
43.250869
 30
0.0
 10
42.995556
 20
43.707689
 30
0.0
 10
44.226204
 20
43.829039
 30
0.0
  0
SPLINE
  5
201
100
AcDbEntity
  8
Layer_1
 62
7
100
AcDbSpline
 70
8
 71
3
 72
8
 73
4
 74
0
 40
0
 40
0
 40
0
 40
0
 40
1
 40
1
 40
1
 40
1
 10
44.226204
 20
43.829039
 30
0.0
 10
44.690703
 20
43.874839
 30
0.0
 10
45.119604
 20
44.061159
 30
0.0
 10
45.179318
 20
44.243059
 30
0.0
  0
SPLINE
  5
202
100
AcDbEntity
  8
Layer_1
 62
7
100
AcDbSpline
 70
8
 71
3
 72
8
 73
4
 74
0
 40
0
 40
0
 40
0
 40
0
 40
1
 40
1
 40
1
 40
1
 10
45.179318
 20
44.243059
 30
0.0
 10
45.259190
 20
44.486359
 30
0.0
 10
44.801056
 20
44.573789
 30
0.0
 10
43.446153
 20
44.573789
 30
0.0
  0
SPLINE
  5
203
100
AcDbEntity
  8
Layer_1
 62
7
100
AcDbSpline
 70
8
 71
3
 72
8
 73
4
 74
0
 40
0
 40
0
 40
0
 40
0
 40
1
 40
1
 40
1
 40
1
 10
43.446153
 20
44.573789
 30
0.0
 10
42.131834
 20
44.573789
 30
0.0
 10
41.510094
 20
44.687439
 30
0.0
 10
41.275041
 20
44.970659
 30
0.0
  0
SPLINE
  5
204
100
AcDbEntity
  8
Layer_1
 62
7
100
AcDbSpline
 70
8
 71
3
 72
8
 73
4
 74
0
 40
0
 40
0
 40
0
 40
0
 40
1
 40
1
 40
1
 40
1
 10
41.275041
 20
44.970659
 30
0.0
 10
40.888453
 20
45.436469
 30
0.0
 10
41.099592
 20
45.480049
 30
0.0
 10
41.835312
 20
45.086309
 30
0.0
  0
SPLINE
  5
205
100
AcDbEntity
  8
Layer_1
 62
7
100
AcDbSpline
 70
8
 71
3
 72
8
 73
4
 74
0
 40
0
 40
0
 40
0
 40
0
 40
1
 40
1
 40
1
 40
1
 10
41.835312
 20
45.086309
 30
0.0
 10
42.230250
 20
44.874939
 30
0.0
 10
42.653176
 20
44.916739
 30
0.0
 10
43.537710
 20
45.254539
 30
0.0
  0
SPLINE
  5
206
100
AcDbEntity
  8
Layer_1
 62
7
100
AcDbSpline
 70
8
 71
3
 72
8
 73
4
 74
0
 40
0
 40
0
 40
0
 40
0
 40
1
 40
1
 40
1
 40
1
 10
43.537710
 20
45.254539
 30
0.0
 10
44.185013
 20
45.501749
 30
0.0
 10
44.714624
 20
45.783769
 30
0.0
 10
44.714624
 20
45.881249
 30
0.0
  0
SPLINE
  5
207
100
AcDbEntity
  8
Layer_1
 62
7
100
AcDbSpline
 70
8
 71
3
 72
8
 73
4
 74
0
 40
0
 40
0
 40
0
 40
0
 40
1
 40
1
 40
1
 40
1
 10
44.714624
 20
45.881249
 30
0.0
 10
44.714624
 20
45.978749
 30
0.0
 10
44.416968
 20
46.461929
 30
0.0
 10
44.053166
 20
46.955039
 30
0.0
  0
SPLINE
  5
208
100
AcDbEntity
  8
Layer_1
 62
7
100
AcDbSpline
 70
8
 71
3
 72
8
 73
4
 74
0
 40
0
 40
0
 40
0
 40
0
 40
1
 40
1
 40
1
 40
1
 10
44.053166
 20
46.955039
 30
0.0
 10
43.175797
 20
48.144239
 30
0.0
 10
43.216622
 20
48.256759
 30
0.0
 10
44.159319
 20
47.247599
 30
0.0
  0
SPLINE
  5
209
100
AcDbEntity
  8
Layer_1
 62
7
100
AcDbSpline
 70
8
 71
3
 72
8
 73
4
 74
0
 40
0
 40
0
 40
0
 40
0
 40
1
 40
1
 40
1
 40
1
 10
44.159319
 20
47.247599
 30
0.0
 10
45.182273
 20
46.152529
 30
0.0
 10
45.771867
 20
46.166439
 30
0.0
 10
45.776570
 20
47.285799
 30
0.0
  0
SPLINE
  5
20a
100
AcDbEntity
  8
Layer_1
 62
7
100
AcDbSpline
 70
8
 71
3
 72
8
 73
4
 74
0
 40
0
 40
0
 40
0
 40
0
 40
1
 40
1
 40
1
 40
1
 10
45.776570
 20
47.285799
 30
0.0
 10
45.780820
 20
48.297279
 30
0.0
 10
46.029210
 20
49.336249
 30
0.0
 10
46.266837
 20
49.336479
 30
0.0
  0
SPLINE
  5
20b
100
AcDbEntity
  8
Layer_1
 62
7
100
AcDbSpline
 70
8
 71
3
 72
8
 73
4
 74
0
 40
0
 40
0
 40
0
 40
0
 40
1
 40
1
 40
1
 40
1
 10
46.266837
 20
49.336479
 30
0.0
 10
46.359005
 20
49.336569
 30
0.0
 10
46.392526
 20
48.731869
 30
0.0
 10
46.341327
 20
47.992699
 30
0.0
  0
LWPOLYLINE
  5
20c
100
AcDbEntity
  8
Layer_1
 62
7
100
AcDbPolyline
 90
3
 70
0
 10
42.074652
 20
30.768879
 30
0.0
 10
41.319800
 20
31.523729
 30
0.0
 10
42.335129
 20
31.252719
 30
0.0
  0
SPLINE
  5
20d
100
AcDbEntity
  8
Layer_1
 62
7
100
AcDbSpline
 70
8
 71
3
 72
8
 73
4
 74
0
 40
0
 40
0
 40
0
 40
0
 40
1
 40
1
 40
1
 40
1
 10
48.291611
 20
44.751389
 30
0.0
 10
50.864023
 20
42.362789
 30
0.0
 10
51.517268
 20
42.057959
 30
0.0
 10
53.198975
 20
42.461389
 30
0.0
  0
SPLINE
  5
20e
100
AcDbEntity
  8
Layer_1
 62
7
100
AcDbSpline
 70
8
 71
3
 72
8
 73
4
 74
0
 40
0
 40
0
 40
0
 40
0
 40
1
 40
1
 40
1
 40
1
 10
53.198975
 20
42.461389
 30
0.0
 10
54.646857
 20
42.808729
 30
0.0
 10
55.451786
 20
43.529099
 30
0.0
 10
55.178822
 20
44.233229
 30
0.0
  0
SPLINE
  5
20f
100
AcDbEntity
  8
Layer_1
 62
7
100
AcDbSpline
 70
8
 71
3
 72
8
 73
4
 74
0
 40
0
 40
0
 40
0
 40
0
 40
1
 40
1
 40
1
 40
1
 10
55.178822
 20
44.233229
 30
0.0
 10
55.077999
 20
44.493319
 30
0.0
 10
54.942700
 20
45.112789
 30
0.0
 10
54.878157
 20
45.609849
 30
0.0
  0
SPLINE
  5
210
100
AcDbEntity
  8
Layer_1
 62
7
100
AcDbSpline
 70
8
 71
3
 72
8
 73
4
 74
0
 40
0
 40
0
 40
0
 40
0
 40
1
 40
1
 40
1
 40
1
 10
54.878157
 20
45.609849
 30
0.0
 10
54.757733
 20
46.537259
 30
0.0
 10
54.358586
 20
47.219649
 30
0.0
 10
53.936545
 20
47.219649
 30
0.0
  0
SPLINE
  5
211
100
AcDbEntity
  8
Layer_1
 62
7
100
AcDbSpline
 70
8
 71
3
 72
8
 73
4
 74
0
 40
0
 40
0
 40
0
 40
0
 40
1
 40
1
 40
1
 40
1
 10
53.936545
 20
47.219649
 30
0.0
 10
53.805488
 20
47.219649
 30
0.0
 10
53.904597
 20
46.892229
 30
0.0
 10
54.156788
 20
46.492049
 30
0.0
  0
LWPOLYLINE
  5
212
100
AcDbEntity
  8
Layer_1
 62
7
100
AcDbPolyline
 90
3
 70
0
 10
46.341327
 20
47.992699
 30
0.0
 10
46.248238
 20
46.648749
 30
0.0
 10
48.291611
 20
44.751389
 30
0.0
  0
SPLINE
  5
213
100
AcDbEntity
  8
Layer_1
 62
7
100
AcDbSpline
 70
8
 71
3
 72
8
 73
4
 74
0
 40
0
 40
0
 40
0
 40
0
 40
1
 40
1
 40
1
 40
1
 10
53.888429
 20
46.465839
 30
0.0
 10
53.002299
 20
47.320899
 30
0.0
 10
52.119872
 20
47.570559
 30
0.0
 10
51.208497
 20
47.224049
 30
0.0
  0
SPLINE
  5
214
100
AcDbEntity
  8
Layer_1
 62
7
100
AcDbSpline
 70
8
 71
3
 72
8
 73
4
 74
0
 40
0
 40
0
 40
0
 40
0
 40
1
 40
1
 40
1
 40
1
 10
51.208497
 20
47.224049
 30
0.0
 10
50.164436
 20
46.827099
 30
0.0
 10
50.088517
 20
46.216319
 30
0.0
 10
50.897287
 20
44.720319
 30
0.0
  0
SPLINE
  5
215
100
AcDbEntity
  8
Layer_1
 62
7
100
AcDbSpline
 70
8
 71
3
 72
8
 73
4
 74
0
 40
0
 40
0
 40
0
 40
0
 40
1
 40
1
 40
1
 40
1
 10
50.897287
 20
44.720319
 30
0.0
 10
51.388032
 20
43.812589
 30
0.0
 10
51.449259
 20
43.595609
 30
0.0
 10
51.087950
 20
44.044649
 30
0.0
  0
SPLINE
  5
216
100
AcDbEntity
  8
Layer_1
 62
7
100
AcDbSpline
 70
8
 71
3
 72
8
 73
4
 74
0
 40
0
 40
0
 40
0
 40
0
 40
1
 40
1
 40
1
 40
1
 10
51.087950
 20
44.044649
 30
0.0
 10
50.795228
 20
44.408449
 30
0.0
 10
50.343526
 20
45.096719
 30
0.0
 10
50.084168
 20
45.574139
 30
0.0
  0
LWPOLYLINE
  5
217
100
AcDbEntity
  8
Layer_1
 62
7
100
AcDbPolyline
 90
3
 70
0
 10
54.156788
 20
46.492049
 30
0.0
 10
54.615317
 20
45.764439
 30
0.0
 10
53.888429
 20
46.465839
 30
0.0
  0
SPLINE
  5
218
100
AcDbEntity
  8
Layer_1
 62
7
100
AcDbSpline
 70
8
 71
3
 72
8
 73
4
 74
0
 40
0
 40
0
 40
0
 40
0
 40
1
 40
1
 40
1
 40
1
 10
50.603199
 20
47.376739
 30
0.0
 10
51.148025
 20
47.890759
 30
0.0
 10
51.591968
 20
48.393109
 30
0.0
 10
51.589740
 20
48.493079
 30
0.0
  0
SPLINE
  5
219
100
AcDbEntity
  8
Layer_1
 62
7
100
AcDbSpline
 70
8
 71
3
 72
8
 73
4
 74
0
 40
0
 40
0
 40
0
 40
0
 40
1
 40
1
 40
1
 40
1
 10
51.589740
 20
48.493079
 30
0.0
 10
51.580780
 20
48.894909
 30
0.0
 10
51.149992
 20
49.316959
 30
0.0
 10
50.494384
 20
49.566219
 30
0.0
  0
SPLINE
  5
21a
100
AcDbEntity
  8
Layer_1
 62
7
100
AcDbSpline
 70
8
 71
3
 72
8
 73
4
 74
0
 40
0
 40
0
 40
0
 40
0
 40
1
 40
1
 40
1
 40
1
 10
50.494384
 20
49.566219
 30
0.0
 10
49.855948
 20
49.808949
 30
0.0
 10
49.813106
 20
49.922239
 30
0.0
 10
49.938626
 20
51.035839
 30
0.0
  0
SPLINE
  5
21b
100
AcDbEntity
  8
Layer_1
 62
7
100
AcDbSpline
 70
8
 71
3
 72
8
 73
4
 74
0
 40
0
 40
0
 40
0
 40
0
 40
1
 40
1
 40
1
 40
1
 10
49.938626
 20
51.035839
 30
0.0
 10
50.111624
 20
52.570679
 30
0.0
 10
49.697107
 20
53.145119
 30
0.0
 10
48.565903
 20
52.938179
 30
0.0
  0
LWPOLYLINE
  5
21c
100
AcDbEntity
  8
Layer_1
 62
7
100
AcDbPolyline
 90
3
 70
0
 10
50.084168
 20
45.574139
 30
0.0
 10
49.612608
 20
46.442179
 30
0.0
 10
50.603199
 20
47.376739
 30
0.0
  0
SPLINE
  5
21d
100
AcDbEntity
  8
Layer_1
 62
7
100
AcDbSpline
 70
8
 71
3
 72
8
 73
4
 74
0
 40
0
 40
0
 40
0
 40
0
 40
1
 40
1
 40
1
 40
1
 10
48.503775
 20
53.198279
 30
0.0
 10
48.914318
 20
53.422689
 30
0.0
 10
49.866818
 20
54.073779
 30
0.0
 10
50.620441
 20
54.645169
 30
0.0
  0
SPLINE
  5
21e
100
AcDbEntity
  8
Layer_1
 62
7
100
AcDbSpline
 70
8
 71
3
 72
8
 73
4
 74
0
 40
0
 40
0
 40
0
 40
0
 40
1
 40
1
 40
1
 40
1
 10
50.620441
 20
54.645169
 30
0.0
 10
51.390902
 20
55.229309
 30
0.0
 10
52.289427
 20
55.684539
 30
0.0
 10
52.673216
 20
55.685179
 30
0.0
  0
SPLINE
  5
21f
100
AcDbEntity
  8
Layer_1
 62
7
100
AcDbSpline
 70
8
 71
3
 72
8
 73
4
 74
0
 40
0
 40
0
 40
0
 40
0
 40
1
 40
1
 40
1
 40
1
 10
52.673216
 20
55.685179
 30
0.0
 10
53.510856
 20
55.686179
 30
0.0
 10
57.777043
 20
53.203639
 30
0.0
 10
58.486331
 20
52.301929
 30
0.0
  0
SPLINE
  5
220
100
AcDbEntity
  8
Layer_1
 62
7
100
AcDbSpline
 70
8
 71
3
 72
8
 73
4
 74
0
 40
0
 40
0
 40
0
 40
0
 40
1
 40
1
 40
1
 40
1
 10
58.486331
 20
52.301929
 30
0.0
 10
58.770017
 20
51.941279
 30
0.0
 10
59.002124
 20
51.433869
 30
0.0
 10
59.002124
 20
51.174359
 30
0.0
  0
SPLINE
  5
221
100
AcDbEntity
  8
Layer_1
 62
7
100
AcDbSpline
 70
8
 71
3
 72
8
 73
4
 74
0
 40
0
 40
0
 40
0
 40
0
 40
1
 40
1
 40
1
 40
1
 10
59.002124
 20
51.174359
 30
0.0
 10
59.002124
 20
50.345469
 30
0.0
 10
59.311059
 20
49.856139
 30
0.0
 10
60.088042
 20
49.454339
 30
0.0
  0
SPLINE
  5
222
100
AcDbEntity
  8
Layer_1
 62
7
100
AcDbSpline
 70
8
 71
3
 72
8
 73
4
 74
0
 40
0
 40
0
 40
0
 40
0
 40
1
 40
1
 40
1
 40
1
 10
60.088042
 20
49.454339
 30
0.0
 10
61.172144
 20
48.893729
 30
0.0
 10
61.735603
 20
47.668029
 30
0.0
 10
61.532334
 20
46.312529
 30
0.0
  0
SPLINE
  5
223
100
AcDbEntity
  8
Layer_1
 62
7
100
AcDbSpline
 70
8
 71
3
 72
8
 73
4
 74
0
 40
0
 40
0
 40
0
 40
0
 40
1
 40
1
 40
1
 40
1
 10
61.532334
 20
46.312529
 30
0.0
 10
61.387597
 20
45.347359
 30
0.0
 10
61.454444
 20
45.129949
 30
0.0
 10
62.070784
 20
44.561449
 30
0.0
  0
SPLINE
  5
224
100
AcDbEntity
  8
Layer_1
 62
7
100
AcDbSpline
 70
8
 71
3
 72
8
 73
4
 74
0
 40
0
 40
0
 40
0
 40
0
 40
1
 40
1
 40
1
 40
1
 10
62.070784
 20
44.561449
 30
0.0
 10
62.970461
 20
43.731599
 30
0.0
 10
63.500041
 20
42.483209
 30
0.0
 10
63.500041
 20
41.192229
 30
0.0
  0
SPLINE
  5
225
100
AcDbEntity
  8
Layer_1
 62
7
100
AcDbSpline
 70
8
 71
3
 72
8
 73
4
 74
0
 40
0
 40
0
 40
0
 40
0
 40
1
 40
1
 40
1
 40
1
 10
63.500041
 20
41.192229
 30
0.0
 10
63.500041
 20
40.395219
 30
0.0
 10
63.678996
 20
40.006609
 30
0.0
 10
64.326377
 20
39.397799
 30
0.0
  0
SPLINE
  5
226
100
AcDbEntity
  8
Layer_1
 62
7
100
AcDbSpline
 70
8
 71
3
 72
8
 73
4
 74
0
 40
0
 40
0
 40
0
 40
0
 40
1
 40
1
 40
1
 40
1
 10
64.326377
 20
39.397799
 30
0.0
 10
65.965476
 20
37.856349
 30
0.0
 10
66.089753
 20
36.738189
 30
0.0
 10
64.884544
 20
34.375789
 30
0.0
  0
SPLINE
  5
227
100
AcDbEntity
  8
Layer_1
 62
7
100
AcDbSpline
 70
8
 71
3
 72
8
 73
4
 74
0
 40
0
 40
0
 40
0
 40
0
 40
1
 40
1
 40
1
 40
1
 10
64.884544
 20
34.375789
 30
0.0
 10
64.453686
 20
33.531229
 30
0.0
 10
63.906010
 20
33.075269
 30
0.0
 10
62.137286
 20
32.088559
 30
0.0
  0
SPLINE
  5
228
100
AcDbEntity
  8
Layer_1
 62
7
100
AcDbSpline
 70
8
 71
3
 72
8
 73
4
 74
0
 40
0
 40
0
 40
0
 40
0
 40
1
 40
1
 40
1
 40
1
 10
62.137286
 20
32.088559
 30
0.0
 10
60.922270
 20
31.410749
 30
0.0
 10
59.233553
 20
30.657069
 30
0.0
 10
58.384582
 20
30.413719
 30
0.0
  0
SPLINE
  5
229
100
AcDbEntity
  8
Layer_1
 62
7
100
AcDbSpline
 70
8
 71
3
 72
8
 73
4
 74
0
 40
0
 40
0
 40
0
 40
0
 40
1
 40
1
 40
1
 40
1
 10
58.384582
 20
30.413719
 30
0.0
 10
56.847060
 20
29.972999
 30
0.0
 10
56.838423
 20
29.973679
 30
0.0
 10
56.185258
 20
30.587299
 30
0.0
  0
SPLINE
  5
22a
100
AcDbEntity
  8
Layer_1
 62
7
100
AcDbSpline
 70
8
 71
3
 72
8
 73
4
 74
0
 40
0
 40
0
 40
0
 40
0
 40
1
 40
1
 40
1
 40
1
 10
56.185258
 20
30.587299
 30
0.0
 10
55.824601
 20
30.926119
 30
0.0
 10
55.296771
 20
31.579919
 30
0.0
 10
55.012303
 20
32.040199
 30
0.0
  0
SPLINE
  5
22b
100
AcDbEntity
  8
Layer_1
 62
7
100
AcDbSpline
 70
8
 71
3
 72
8
 73
4
 74
0
 40
0
 40
0
 40
0
 40
0
 40
1
 40
1
 40
1
 40
1
 10
55.012303
 20
32.040199
 30
0.0
 10
54.727835
 20
32.500479
 30
0.0
 10
54.208661
 20
32.948959
 30
0.0
 10
53.858582
 20
33.036829
 30
0.0
  0
SPLINE
  5
22c
100
AcDbEntity
  8
Layer_1
 62
7
100
AcDbSpline
 70
8
 71
3
 72
8
 73
4
 74
0
 40
0
 40
0
 40
0
 40
0
 40
1
 40
1
 40
1
 40
1
 10
53.858582
 20
33.036829
 30
0.0
 10
52.882985
 20
33.281689
 30
0.0
 10
51.741904
 20
34.369419
 30
0.0
 10
51.200030
 20
35.571079
 30
0.0
  0
SPLINE
  5
22d
100
AcDbEntity
  8
Layer_1
 62
7
100
AcDbSpline
 70
8
 71
3
 72
8
 73
4
 74
0
 40
0
 40
0
 40
0
 40
0
 40
1
 40
1
 40
1
 40
1
 10
51.200030
 20
35.571079
 30
0.0
 10
50.698643
 20
36.682959
 30
0.0
 10
50.283509
 20
36.609509
 30
0.0
 10
50.274926
 20
35.407419
 30
0.0
  0
SPLINE
  5
22e
100
AcDbEntity
  8
Layer_1
 62
7
100
AcDbSpline
 70
8
 71
3
 72
8
 73
4
 74
0
 40
0
 40
0
 40
0
 40
0
 40
1
 40
1
 40
1
 40
1
 10
50.274926
 20
35.407419
 30
0.0
 10
50.272696
 20
35.095319
 30
0.0
 10
50.026643
 20
34.049239
 30
0.0
 10
49.728137
 20
33.082799
 30
0.0
  0
SPLINE
  5
22f
100
AcDbEntity
  8
Layer_1
 62
7
100
AcDbSpline
 70
8
 71
3
 72
8
 73
4
 74
0
 40
0
 40
0
 40
0
 40
0
 40
1
 40
1
 40
1
 40
1
 10
49.728137
 20
33.082799
 30
0.0
 10
49.332181
 20
31.800839
 30
0.0
 10
48.879337
 20
31.006189
 30
0.0
 10
48.053700
 20
30.144509
 30
0.0
  0
SPLINE
  5
230
100
AcDbEntity
  8
Layer_1
 62
7
100
AcDbSpline
 70
8
 71
3
 72
8
 73
4
 74
0
 40
0
 40
0
 40
0
 40
0
 40
1
 40
1
 40
1
 40
1
 10
48.053700
 20
30.144509
 30
0.0
 10
46.750280
 20
28.784179
 30
0.0
 10
45.898565
 20
28.651289
 30
0.0
 10
43.970502
 20
29.507419
 30
0.0
  0
LWPOLYLINE
  5
231
100
AcDbEntity
  8
Layer_1
 62
7
100
AcDbPolyline
 90
3
 70
0
 10
48.565903
 20
52.938179
 30
0.0
 10
47.757333
 20
52.790269
 30
0.0
 10
48.503775
 20
53.198279
 30
0.0
  0
SPLINE
  5
232
100
AcDbEntity
  8
Layer_1
 62
7
100
AcDbSpline
 70
8
 71
3
 72
8
 73
4
 74
0
 40
0
 40
0
 40
0
 40
0
 40
1
 40
1
 40
1
 40
1
 10
58.825741
 20
31.209599
 30
0.0
 10
59.922065
 20
31.358809
 30
0.0
 10
60.289473
 20
31.579099
 30
0.0
 10
61.400256
 20
32.753189
 30
0.0
  0
SPLINE
  5
233
100
AcDbEntity
  8
Layer_1
 62
7
100
AcDbSpline
 70
8
 71
3
 72
8
 73
4
 74
0
 40
0
 40
0
 40
0
 40
0
 40
1
 40
1
 40
1
 40
1
 10
61.400256
 20
32.753189
 30
0.0
 10
62.112885
 20
33.506439
 30
0.0
 10
62.698274
 20
34.256989
 30
0.0
 10
62.701119
 20
34.421069
 30
0.0
  0
SPLINE
  5
234
100
AcDbEntity
  8
Layer_1
 62
7
100
AcDbSpline
 70
8
 71
3
 72
8
 73
4
 74
0
 40
0
 40
0
 40
0
 40
0
 40
1
 40
1
 40
1
 40
1
 10
62.701119
 20
34.421069
 30
0.0
 10
62.703919
 20
34.585149
 30
0.0
 10
62.884885
 20
34.867619
 30
0.0
 10
63.103166
 20
35.048779
 30
0.0
  0
SPLINE
  5
235
100
AcDbEntity
  8
Layer_1
 62
7
100
AcDbSpline
 70
8
 71
3
 72
8
 73
4
 74
0
 40
0
 40
0
 40
0
 40
0
 40
1
 40
1
 40
1
 40
1
 10
63.103166
 20
35.048779
 30
0.0
 10
63.647248
 20
35.500329
 30
0.0
 10
63.600775
 20
36.198519
 30
0.0
 10
62.989835
 20
36.751409
 30
0.0
  0
SPLINE
  5
236
100
AcDbEntity
  8
Layer_1
 62
7
100
AcDbSpline
 70
8
 71
3
 72
8
 73
4
 74
0
 40
0
 40
0
 40
0
 40
0
 40
1
 40
1
 40
1
 40
1
 10
62.989835
 20
36.751409
 30
0.0
 10
62.368503
 20
37.313709
 30
0.0
 10
62.154380
 20
37.255689
 30
0.0
 10
58.426713
 20
35.514999
 30
0.0
  0
SPLINE
  5
237
100
AcDbEntity
  8
Layer_1
 62
7
100
AcDbSpline
 70
8
 71
3
 72
8
 73
4
 74
0
 40
0
 40
0
 40
0
 40
0
 40
1
 40
1
 40
1
 40
1
 10
58.426713
 20
35.514999
 30
0.0
 10
56.145278
 20
34.449659
 30
0.0
 10
55.540947
 20
34.047909
 30
0.0
 10
55.282962
 20
33.425069
 30
0.0
  0
SPLINE
  5
238
100
AcDbEntity
  8
Layer_1
 62
7
100
AcDbSpline
 70
8
 71
3
 72
8
 73
4
 74
0
 40
0
 40
0
 40
0
 40
0
 40
1
 40
1
 40
1
 40
1
 10
55.282962
 20
33.425069
 30
0.0
 10
55.009309
 20
32.764419
 30
0.0
 10
55.033971
 20
32.569749
 30
0.0
 10
55.455211
 20
32.065459
 30
0.0
  0
SPLINE
  5
239
100
AcDbEntity
  8
Layer_1
 62
7
100
AcDbSpline
 70
8
 71
3
 72
8
 73
4
 74
0
 40
0
 40
0
 40
0
 40
0
 40
1
 40
1
 40
1
 40
1
 10
55.455211
 20
32.065459
 30
0.0
 10
56.254219
 20
31.108919
 30
0.0
 10
56.700208
 20
30.806129
 30
0.0
 10
57.136162
 20
30.924249
 30
0.0
  0
SPLINE
  5
23a
100
AcDbEntity
  8
Layer_1
 62
7
100
AcDbSpline
 70
8
 71
3
 72
8
 73
4
 74
0
 40
0
 40
0
 40
0
 40
0
 40
1
 40
1
 40
1
 40
1
 10
57.136162
 20
30.924249
 30
0.0
 10
57.362077
 20
30.985449
 30
0.0
 10
58.122387
 20
31.113869
 30
0.0
 10
58.825741
 20
31.209599
 30
0.0
  0
LWPOLYLINE
  5
23b
100
AcDbEntity
  8
Layer_1
 62
7
100
AcDbPolyline
 90
1
 70
1
 10
43.970502
 20
29.507419
 30
0.0
  0
SPLINE
  5
23c
100
AcDbEntity
  8
Layer_1
 62
7
100
AcDbSpline
 70
8
 71
3
 72
8
 73
4
 74
0
 40
0
 40
0
 40
0
 40
0
 40
1
 40
1
 40
1
 40
1
 10
52.663872
 20
36.129059
 30
0.0
 10
52.934828
 20
36.635349
 30
0.0
 10
52.996468
 20
36.646109
 30
0.0
 10
53.421618
 20
36.261349
 30
0.0
  0
SPLINE
  5
23d
100
AcDbEntity
  8
Layer_1
 62
7
100
AcDbSpline
 70
8
 71
3
 72
8
 73
4
 74
0
 40
0
 40
0
 40
0
 40
0
 40
1
 40
1
 40
1
 40
1
 10
53.421618
 20
36.261349
 30
0.0
 10
54.350734
 20
35.420519
 30
0.0
 10
55.246424
 20
35.730729
 30
0.0
 10
56.826599
 20
37.440629
 30
0.0
  0
LWPOLYLINE
  5
23e
100
AcDbEntity
  8
Layer_1
 62
7
100
AcDbPolyline
 90
1
 70
1
 10
58.825741
 20
31.209599
 30
0.0
  0
SPLINE
  5
23f
100
AcDbEntity
  8
Layer_1
 62
7
100
AcDbSpline
 70
8
 71
3
 72
8
 73
4
 74
0
 40
0
 40
0
 40
0
 40
0
 40
1
 40
1
 40
1
 40
1
 10
61.334113
 20
39.746709
 30
0.0
 10
61.388863
 20
40.314829
 30
0.0
 10
61.218166
 20
40.887639
 30
0.0
 10
60.832844
 20
41.428769
 30
0.0
  0
SPLINE
  5
240
100
AcDbEntity
  8
Layer_1
 62
7
100
AcDbSpline
 70
8
 71
3
 72
8
 73
4
 74
0
 40
0
 40
0
 40
0
 40
0
 40
1
 40
1
 40
1
 40
1
 10
60.832844
 20
41.428769
 30
0.0
 10
60.323398
 20
42.144219
 30
0.0
 10
60.132957
 20
42.230579
 30
0.0
 10
59.346230
 20
42.102919
 30
0.0
  0
SPLINE
  5
241
100
AcDbEntity
  8
Layer_1
 62
7
100
AcDbSpline
 70
8
 71
3
 72
8
 73
4
 74
0
 40
0
 40
0
 40
0
 40
0
 40
1
 40
1
 40
1
 40
1
 10
59.346230
 20
42.102919
 30
0.0
 10
58.849955
 20
42.022419
 30
0.0
 10
57.646775
 20
41.374699
 30
0.0
 10
56.672498
 20
40.663619
 30
0.0
  0
SPLINE
  5
242
100
AcDbEntity
  8
Layer_1
 62
7
100
AcDbSpline
 70
8
 71
3
 72
8
 73
4
 74
0
 40
0
 40
0
 40
0
 40
0
 40
1
 40
1
 40
1
 40
1
 10
56.672498
 20
40.663619
 30
0.0
 10
55.698220
 20
39.952539
 30
0.0
 10
54.424834
 20
39.090559
 30
0.0
 10
53.842751
 20
38.748099
 30
0.0
  0
SPLINE
  5
243
100
AcDbEntity
  8
Layer_1
 62
7
100
AcDbSpline
 70
8
 71
3
 72
8
 73
4
 74
0
 40
0
 40
0
 40
0
 40
0
 40
1
 40
1
 40
1
 40
1
 10
53.842751
 20
38.748099
 30
0.0
 10
52.856185
 20
38.167679
 30
0.0
 10
52.816985
 20
38.162889
 30
0.0
 10
53.264674
 20
38.677499
 30
0.0
  0
SPLINE
  5
244
100
AcDbEntity
  8
Layer_1
 62
7
100
AcDbSpline
 70
8
 71
3
 72
8
 73
4
 74
0
 40
0
 40
0
 40
0
 40
0
 40
1
 40
1
 40
1
 40
1
 10
53.264674
 20
38.677499
 30
0.0
 10
53.781131
 20
39.271169
 30
0.0
 10
53.705519
 20
39.379859
 30
0.0
 10
52.590793
 20
39.646219
 30
0.0
  0
SPLINE
  5
245
100
AcDbEntity
  8
Layer_1
 62
7
100
AcDbSpline
 70
8
 71
3
 72
8
 73
4
 74
0
 40
0
 40
0
 40
0
 40
0
 40
1
 40
1
 40
1
 40
1
 10
52.590793
 20
39.646219
 30
0.0
 10
52.155785
 20
39.750159
 30
0.0
 10
51.701887
 20
40.140149
 30
0.0
 10
51.450793
 20
40.625719
 30
0.0
  0
SPLINE
  5
246
100
AcDbEntity
  8
Layer_1
 62
7
100
AcDbSpline
 70
8
 71
3
 72
8
 73
4
 74
0
 40
0
 40
0
 40
0
 40
0
 40
1
 40
1
 40
1
 40
1
 10
51.450793
 20
40.625719
 30
0.0
 10
51.015283
 20
41.467899
 30
0.0
 10
50.624390
 20
41.525749
 30
0.0
 10
50.175695
 20
40.814419
 30
0.0
  0
SPLINE
  5
247
100
AcDbEntity
  8
Layer_1
 62
7
100
AcDbSpline
 70
8
 71
3
 72
8
 73
4
 74
0
 40
0
 40
0
 40
0
 40
0
 40
1
 40
1
 40
1
 40
1
 10
50.175695
 20
40.814419
 30
0.0
 10
49.807965
 20
40.231439
 30
0.0
 10
50.576955
 20
39.115329
 30
0.0
 10
51.722830
 20
38.568899
 30
0.0
  0
LWPOLYLINE
  5
248
100
AcDbEntity
  8
Layer_1
 62
7
100
AcDbPolyline
 90
5
 70
0
 10
56.826599
 20
37.440629
 30
0.0
 10
58.303456
 20
39.038729
 30
0.0
 10
59.777269
 20
38.961929
 30
0.0
 10
61.251083
 20
38.885229
 30
0.0
 10
61.334113
 20
39.746709
 30
0.0
  0
SPLINE
  5
249
100
AcDbEntity
  8
Layer_1
 62
7
100
AcDbSpline
 70
8
 71
3
 72
8
 73
4
 74
0
 40
0
 40
0
 40
0
 40
0
 40
1
 40
1
 40
1
 40
1
 10
51.807131
 20
37.382139
 30
0.0
 10
51.020238
 20
36.647069
 30
0.0
 10
51.009499
 20
36.606549
 30
0.0
 10
51.467468
 20
36.100499
 30
0.0
  0
SPLINE
  5
24a
100
AcDbEntity
  8
Layer_1
 62
7
100
AcDbSpline
 70
8
 71
3
 72
8
 73
4
 74
0
 40
0
 40
0
 40
0
 40
0
 40
1
 40
1
 40
1
 40
1
 10
51.467468
 20
36.100499
 30
0.0
 10
52.067370
 20
35.437609
 30
0.0
 10
52.296762
 20
35.443089
 30
0.0
 10
52.663874
 20
36.128999
 30
0.0
  0
LWPOLYLINE
  5
24b
100
AcDbEntity
  8
Layer_1
 62
7
100
AcDbPolyline
 90
3
 70
0
 10
51.722830
 20
38.568899
 30
0.0
 10
52.619715
 20
38.141199
 30
0.0
 10
51.807131
 20
37.382139
 30
0.0
  0
SPLINE
  5
24c
100
AcDbEntity
  8
Layer_1
 62
7
100
AcDbSpline
 70
8
 71
3
 72
8
 73
4
 74
0
 40
0
 40
0
 40
0
 40
0
 40
1
 40
1
 40
1
 40
1
 10
57.342427
 20
45.367529
 30
0.0
 10
57.712427
 20
45.658569
 30
0.0
 10
58.292115
 20
45.896689
 30
0.0
 10
58.630624
 20
45.896689
 30
0.0
  0
SPLINE
  5
24d
100
AcDbEntity
  8
Layer_1
 62
7
100
AcDbSpline
 70
8
 71
3
 72
8
 73
4
 74
0
 40
0
 40
0
 40
0
 40
0
 40
1
 40
1
 40
1
 40
1
 10
58.630624
 20
45.896689
 30
0.0
 10
58.969132
 20
45.896689
 30
0.0
 10
59.487534
 20
46.155849
 30
0.0
 10
59.782628
 20
46.472599
 30
0.0
  0
SPLINE
  5
24e
100
AcDbEntity
  8
Layer_1
 62
7
100
AcDbSpline
 70
8
 71
3
 72
8
 73
4
 74
0
 40
0
 40
0
 40
0
 40
0
 40
1
 40
1
 40
1
 40
1
 10
59.782628
 20
46.472599
 30
0.0
 10
60.304425
 20
47.032679
 30
0.0
 10
60.306131
 20
47.070809
 30
0.0
 10
59.844758
 20
47.860789
 30
0.0
  0
SPLINE
  5
24f
100
AcDbEntity
  8
Layer_1
 62
7
100
AcDbSpline
 70
8
 71
3
 72
8
 73
4
 74
0
 40
0
 40
0
 40
0
 40
0
 40
1
 40
1
 40
1
 40
1
 10
59.844758
 20
47.860789
 30
0.0
 10
59.583834
 20
48.307559
 30
0.0
 10
59.185934
 20
48.708599
 30
0.0
 10
58.960534
 20
48.752009
 30
0.0
  0
SPLINE
  5
250
100
AcDbEntity
  8
Layer_1
 62
7
100
AcDbSpline
 70
8
 71
3
 72
8
 73
4
 74
0
 40
0
 40
0
 40
0
 40
0
 40
1
 40
1
 40
1
 40
1
 10
58.960534
 20
48.752009
 30
0.0
 10
58.283261
 20
48.882439
 30
0.0
 10
55.562543
 20
46.496329
 30
0.0
 10
55.562543
 20
45.771909
 30
0.0
  0
SPLINE
  5
251
100
AcDbEntity
  8
Layer_1
 62
7
100
AcDbSpline
 70
8
 71
3
 72
8
 73
4
 74
0
 40
0
 40
0
 40
0
 40
0
 40
1
 40
1
 40
1
 40
1
 10
55.562543
 20
45.771909
 30
0.0
 10
55.562543
 20
45.204209
 30
0.0
 10
55.841842
 20
44.915959
 30
0.0
 10
56.446852
 20
44.859249
 30
0.0
  0
SPLINE
  5
252
100
AcDbEntity
  8
Layer_1
 62
7
100
AcDbSpline
 70
8
 71
3
 72
8
 73
4
 74
0
 40
0
 40
0
 40
0
 40
0
 40
1
 40
1
 40
1
 40
1
 10
56.446852
 20
44.859249
 30
0.0
 10
56.569420
 20
44.847749
 30
0.0
 10
56.972430
 20
45.076489
 30
0.0
 10
57.342429
 20
45.367529
 30
0.0
  0
LWPOLYLINE
  5
253
100
AcDbEntity
  8
Layer_1
 62
7
100
AcDbPolyline
 90
1
 70
1
 10
52.663874
 20
36.128999
 30
0.0
  0
SPLINE
  5
254
100
AcDbEntity
  8
Layer_1
 62
7
100
AcDbSpline
 70
8
 71
3
 72
8
 73
4
 74
0
 40
0
 40
0
 40
0
 40
0
 40
1
 40
1
 40
1
 40
1
 10
54.504207
 20
49.351889
 30
0.0
 10
54.504207
 20
50.478749
 30
0.0
 10
54.900256
 20
51.007969
 30
0.0
 10
56.314854
 20
51.771369
 30
0.0
  0
SPLINE
  5
255
100
AcDbEntity
  8
Layer_1
 62
7
100
AcDbSpline
 70
8
 71
3
 72
8
 73
4
 74
0
 40
0
 40
0
 40
0
 40
0
 40
1
 40
1
 40
1
 40
1
 10
56.314854
 20
51.771369
 30
0.0
 10
57.983132
 20
52.671669
 30
0.0
 10
57.082767
 20
53.603729
 30
0.0
 10
54.107332
 20
54.056599
 30
0.0
  0
SPLINE
  5
256
100
AcDbEntity
  8
Layer_1
 62
7
100
AcDbSpline
 70
8
 71
3
 72
8
 73
4
 74
0
 40
0
 40
0
 40
0
 40
0
 40
1
 40
1
 40
1
 40
1
 10
54.107332
 20
54.056599
 30
0.0
 10
53.088686
 20
54.211639
 30
0.0
 10
52.010291
 20
54.411509
 30
0.0
 10
51.710899
 20
54.500749
 30
0.0
  0
SPLINE
  5
257
100
AcDbEntity
  8
Layer_1
 62
7
100
AcDbSpline
 70
8
 71
3
 72
8
 73
4
 74
0
 40
0
 40
0
 40
0
 40
0
 40
1
 40
1
 40
1
 40
1
 10
51.710899
 20
54.500749
 30
0.0
 10
51.363277
 20
54.604369
 30
0.0
 10
50.932985
 20
54.468649
 30
0.0
 10
50.520274
 20
54.125109
 30
0.0
  0
LWPOLYLINE
  5
258
100
AcDbEntity
  8
Layer_1
 62
7
100
AcDbPolyline
 90
1
 70
1
 10
57.342429
 20
45.367529
 30
0.0
  0
SPLINE
  5
259
100
AcDbEntity
  8
Layer_1
 62
7
100
AcDbSpline
 70
8
 71
3
 72
8
 73
4
 74
0
 40
0
 40
0
 40
0
 40
0
 40
1
 40
1
 40
1
 40
1
 10
50.586849
 20
53.578219
 30
0.0
 10
51.846816
 20
53.562619
 30
0.0
 10
52.634330
 20
52.586899
 30
0.0
 10
52.940256
 20
50.662259
 30
0.0
  0
SPLINE
  5
25a
100
AcDbEntity
  8
Layer_1
 62
7
100
AcDbSpline
 70
8
 71
3
 72
8
 73
4
 74
0
 40
0
 40
0
 40
0
 40
0
 40
1
 40
1
 40
1
 40
1
 10
52.940256
 20
50.662259
 30
0.0
 10
53.348274
 20
48.095329
 30
0.0
 10
54.504207
 20
47.126679
 30
0.0
 10
54.504207
 20
49.351699
 30
0.0
  0
LWPOLYLINE
  5
25b
100
AcDbEntity
  8
Layer_1
 62
7
100
AcDbPolyline
 90
3
 70
0
 10
50.520274
 20
54.125109
 30
0.0
 10
49.873999
 20
53.587219
 30
0.0
 10
50.586849
 20
53.578219
 30
0.0
  0
SPLINE
  5
25c
100
AcDbEntity
  8
Layer_1
 62
7
100
AcDbSpline
 70
8
 71
3
 72
8
 73
4
 74
0
 40
0
 40
0
 40
0
 40
0
 40
1
 40
1
 40
1
 40
1
 10
39.499243
 20
31.925769
 30
0.0
 10
37.393484
 20
34.031529
 30
0.0
 10
37.315586
 20
34.080869
 30
0.0
 10
36.813707
 20
33.626679
 30
0.0
  0
SPLINE
  5
25d
100
AcDbEntity
  8
Layer_1
 62
7
100
AcDbSpline
 70
8
 71
3
 72
8
 73
4
 74
0
 40
0
 40
0
 40
0
 40
0
 40
1
 40
1
 40
1
 40
1
 10
36.813707
 20
33.626679
 30
0.0
 10
36.304811
 20
33.166129
 30
0.0
 10
36.302290
 20
33.174749
 30
0.0
 10
36.650346
 20
34.184989
 30
0.0
  0
SPLINE
  5
25e
100
AcDbEntity
  8
Layer_1
 62
7
100
AcDbSpline
 70
8
 71
3
 72
8
 73
4
 74
0
 40
0
 40
0
 40
0
 40
0
 40
1
 40
1
 40
1
 40
1
 10
36.650346
 20
34.184989
 30
0.0
 10
36.844777
 20
34.749329
 30
0.0
 10
37.101074
 20
35.978219
 30
0.0
 10
37.219896
 20
36.915859
 30
0.0
  0
LWPOLYLINE
  5
25f
100
AcDbEntity
  8
Layer_1
 62
7
100
AcDbPolyline
 90
2
 70
0
 10
54.504207
 20
49.351699
 30
0.0
 10
54.504207
 20
49.351889
 30
0.0
  0
SPLINE
  5
260
100
AcDbEntity
  8
Layer_1
 62
7
100
AcDbSpline
 70
8
 71
3
 72
8
 73
4
 74
0
 40
0
 40
0
 40
0
 40
0
 40
1
 40
1
 40
1
 40
1
 10
37.621654
 20
36.503989
 30
0.0
 10
37.723799
 20
35.339819
 30
0.0
 10
37.833536
 20
34.231679
 30
0.0
 10
37.865512
 20
34.041459
 30
0.0
  0
SPLINE
  5
261
100
AcDbEntity
  8
Layer_1
 62
7
100
AcDbSpline
 70
8
 71
3
 72
8
 73
4
 74
0
 40
0
 40
0
 40
0
 40
0
 40
1
 40
1
 40
1
 40
1
 10
37.865512
 20
34.041459
 30
0.0
 10
37.897492
 20
33.851239
 30
0.0
 10
38.490679
 20
33.185799
 30
0.0
 10
39.183713
 20
32.562699
 30
0.0
  0
SPLINE
  5
262
100
AcDbEntity
  8
Layer_1
 62
7
100
AcDbSpline
 70
8
 71
3
 72
8
 73
4
 74
0
 40
0
 40
0
 40
0
 40
0
 40
1
 40
1
 40
1
 40
1
 10
39.183713
 20
32.562699
 30
0.0
 10
40.361573
 20
31.503699
 30
0.0
 10
41.965152
 20
29.757109
 30
0.0
 10
41.759577
 20
29.757109
 30
0.0
  0
SPLINE
  5
263
100
AcDbEntity
  8
Layer_1
 62
7
100
AcDbSpline
 70
8
 71
3
 72
8
 73
4
 74
0
 40
0
 40
0
 40
0
 40
0
 40
1
 40
1
 40
1
 40
1
 10
41.759577
 20
29.757109
 30
0.0
 10
41.709157
 20
29.757109
 30
0.0
 10
40.692008
 20
30.733009
 30
0.0
 10
39.499243
 20
31.925769
 30
0.0
  0
LWPOLYLINE
  5
264
100
AcDbEntity
  8
Layer_1
 62
7
100
AcDbPolyline
 90
3
 70
0
 10
37.219896
 20
36.915859
 30
0.0
 10
37.435935
 20
38.620649
 30
0.0
 10
37.621654
 20
36.503989
 30
0.0
  0
SPLINE
  5
265
100
AcDbEntity
  8
Layer_1
 62
7
100
AcDbSpline
 70
8
 71
3
 72
8
 73
4
 74
0
 40
0
 40
0
 40
0
 40
0
 40
1
 40
1
 40
1
 40
1
 10
63.361421
 20
31.364549
 30
0.0
 10
63.265571
 20
31.666559
 30
0.0
 10
63.227778
 20
31.943239
 30
0.0
 10
63.277451
 20
31.979399
 30
0.0
  0
SPLINE
  5
266
100
AcDbEntity
  8
Layer_1
 62
7
100
AcDbSpline
 70
8
 71
3
 72
8
 73
4
 74
0
 40
0
 40
0
 40
0
 40
0
 40
1
 40
1
 40
1
 40
1
 10
63.277451
 20
31.979399
 30
0.0
 10
63.327121
 20
32.015599
 30
0.0
 10
63.749907
 20
32.308929
 30
0.0
 10
64.216982
 20
32.631339
 30
0.0
  0
LWPOLYLINE
  5
267
100
AcDbEntity
  8
Layer_1
 62
7
100
AcDbPolyline
 90
1
 70
1
 10
39.499243
 20
31.925769
 30
0.0
  0
SPLINE
  5
268
100
AcDbEntity
  8
Layer_1
 62
7
100
AcDbSpline
 70
8
 71
3
 72
8
 73
4
 74
0
 40
0
 40
0
 40
0
 40
0
 40
1
 40
1
 40
1
 40
1
 10
64.481566
 20
32.017319
 30
0.0
 10
63.830970
 20
30.681709
 30
0.0
 10
63.617613
 20
30.557379
 30
0.0
 10
63.361426
 20
31.364549
 30
0.0
  0
LWPOLYLINE
  5
269
100
AcDbEntity
  8
Layer_1
 62
7
100
AcDbPolyline
 90
3
 70
0
 10
64.216982
 20
32.631339
 30
0.0
 10
65.066210
 20
33.217529
 30
0.0
 10
64.481566
 20
32.017319
 30
0.0
  0
SPLINE
  5
26a
100
AcDbEntity
  8
Layer_1
 62
7
100
AcDbSpline
 70
8
 71
3
 72
8
 73
4
 74
0
 40
0
 40
0
 40
0
 40
0
 40
1
 40
1
 40
1
 40
1
 10
76.444976
 20
34.499729
 30
0.0
 10
66.523107
 20
38.018509
 30
0.0
 10
66.210586
 20
38.150629
 30
0.0
 10
65.223294
 20
39.243439
 30
0.0
  0
SPLINE
  5
26b
100
AcDbEntity
  8
Layer_1
 62
7
100
AcDbSpline
 70
8
 71
3
 72
8
 73
4
 74
0
 40
0
 40
0
 40
0
 40
0
 40
1
 40
1
 40
1
 40
1
 10
65.223294
 20
39.243439
 30
0.0
 10
64.557099
 20
39.980839
 30
0.0
 10
64.199768
 20
40.635969
 30
0.0
 10
64.184609
 20
41.147769
 30
0.0
  0
SPLINE
  5
26c
100
AcDbEntity
  8
Layer_1
 62
7
100
AcDbSpline
 70
8
 71
3
 72
8
 73
4
 74
0
 40
0
 40
0
 40
0
 40
0
 40
1
 40
1
 40
1
 40
1
 10
64.184609
 20
41.147769
 30
0.0
 10
64.171899
 20
41.576889
 30
0.0
 10
64.197499
 20
41.927969
 30
0.0
 10
64.241499
 20
41.927959
 30
0.0
  0
SPLINE
  5
26d
100
AcDbEntity
  8
Layer_1
 62
7
100
AcDbSpline
 70
8
 71
3
 72
8
 73
4
 74
0
 40
0
 40
0
 40
0
 40
0
 40
1
 40
1
 40
1
 40
1
 10
64.241499
 20
41.927959
 30
0.0
 10
64.285499
 20
41.927949
 30
0.0
 10
69.601970
 20
41.273099
 30
0.0
 10
76.055879
 20
40.472739
 30
0.0
  0
SPLINE
  5
26e
100
AcDbEntity
  8
Layer_1
 62
7
100
AcDbSpline
 70
8
 71
3
 72
8
 73
4
 74
0
 40
0
 40
0
 40
0
 40
0
 40
1
 40
1
 40
1
 40
1
 10
76.055879
 20
40.472739
 30
0.0
 10
82.509788
 20
39.672369
 30
0.0
 10
87.936236
 20
39.017529
 30
0.0
 10
88.114654
 20
39.017529
 30
0.0
  0
SPLINE
  5
26f
100
AcDbEntity
  8
Layer_1
 62
7
100
AcDbSpline
 70
8
 71
3
 72
8
 73
4
 74
0
 40
0
 40
0
 40
0
 40
0
 40
1
 40
1
 40
1
 40
1
 10
88.114654
 20
39.017529
 30
0.0
 10
88.352361
 20
39.017529
 30
0.0
 10
88.391145
 20
38.646329
 30
0.0
 10
88.259790
 20
37.628459
 30
0.0
  0
SPLINE
  5
270
100
AcDbEntity
  8
Layer_1
 62
7
100
AcDbSpline
 70
8
 71
3
 72
8
 73
4
 74
0
 40
0
 40
0
 40
0
 40
0
 40
1
 40
1
 40
1
 40
1
 10
88.259790
 20
37.628459
 30
0.0
 10
88.054778
 20
36.039849
 30
0.0
 10
87.067972
 20
31.625139
 30
0.0
 10
86.818053
 20
31.178519
 30
0.0
  0
SPLINE
  5
271
100
AcDbEntity
  8
Layer_1
 62
7
100
AcDbSpline
 70
8
 71
3
 72
8
 73
4
 74
0
 40
0
 40
0
 40
0
 40
0
 40
1
 40
1
 40
1
 40
1
 10
86.818053
 20
31.178519
 30
0.0
 10
86.705935
 20
30.978159
 30
0.0
 10
83.298289
 20
32.069199
 30
0.0
 10
76.444977
 20
34.499729
 30
0.0
  0
LWPOLYLINE
  5
272
100
AcDbEntity
  8
Layer_1
 62
7
100
AcDbPolyline
 90
1
 70
1
 10
63.361426
 20
31.364549
 30
0.0
  0
SPLINE
  5
273
100
AcDbEntity
  8
Layer_1
 62
7
100
AcDbSpline
 70
8
 71
3
 72
8
 73
4
 74
0
 40
0
 40
0
 40
0
 40
0
 40
1
 40
1
 40
1
 40
1
 10
35.189624
 20
31.973669
 30
0.0
 10
35.189624
 20
32.028569
 30
0.0
 10
35.397984
 20
32.236969
 30
0.0
 10
35.652645
 20
32.436689
 30
0.0
  0
SPLINE
  5
274
100
AcDbEntity
  8
Layer_1
 62
7
100
AcDbSpline
 70
8
 71
3
 72
8
 73
4
 74
0
 40
0
 40
0
 40
0
 40
0
 40
1
 40
1
 40
1
 40
1
 10
35.652645
 20
32.436689
 30
0.0
 10
36.072289
 20
32.765799
 30
0.0
 10
36.081647
 20
32.756439
 30
0.0
 10
35.752535
 20
32.336789
 30
0.0
  0
SPLINE
  5
275
100
AcDbEntity
  8
Layer_1
 62
7
100
AcDbSpline
 70
8
 71
3
 72
8
 73
4
 74
0
 40
0
 40
0
 40
0
 40
0
 40
1
 40
1
 40
1
 40
1
 10
35.752535
 20
32.336789
 30
0.0
 10
35.406891
 20
31.896059
 30
0.0
 10
35.189619
 20
31.755899
 30
0.0
 10
35.189619
 20
31.973659
 30
0.0
  0
LWPOLYLINE
  5
276
100
AcDbEntity
  8
Layer_1
 62
7
100
AcDbPolyline
 90
1
 70
1
 10
76.444977
 20
34.499729
 30
0.0
  0
SPLINE
  5
277
100
AcDbEntity
  8
Layer_1
 62
7
100
AcDbSpline
 70
8
 71
3
 72
8
 73
4
 74
0
 40
0
 40
0
 40
0
 40
0
 40
1
 40
1
 40
1
 40
1
 10
0.008698
 20
43.885009
 30
0.0
 10
0.016498
 20
46.776169
 30
0.0
 10
0.329101
 20
50.547279
 30
0.0
 10
0.581886
 20
50.800069
 30
0.0
  0
SPLINE
  5
278
100
AcDbEntity
  8
Layer_1
 62
7
100
AcDbSpline
 70
8
 71
3
 72
8
 73
4
 74
0
 40
0
 40
0
 40
0
 40
0
 40
1
 40
1
 40
1
 40
1
 10
0.581886
 20
50.800069
 30
0.0
 10
0.672816
 20
50.890969
 30
0.0
 10
24.270001
 20
47.524719
 30
0.0
 10
33.469833
 20
46.108399
 30
0.0
  0
LWPOLYLINE
  5
279
100
AcDbEntity
  8
Layer_1
 62
7
100
AcDbPolyline
 90
1
 70
1
 10
35.189619
 20
31.973659
 30
0.0
  0
SPLINE
  5
27a
100
AcDbEntity
  8
Layer_1
 62
7
100
AcDbSpline
 70
8
 71
3
 72
8
 73
4
 74
0
 40
0
 40
0
 40
0
 40
0
 40
1
 40
1
 40
1
 40
1
 10
37.348262
 20
44.307989
 30
0.0
 10
37.298582
 20
43.653809
 30
0.0
 10
37.226842
 20
43.086519
 30
0.0
 10
37.188837
 20
43.047339
 30
0.0
  0
SPLINE
  5
27b
100
AcDbEntity
  8
Layer_1
 62
7
100
AcDbSpline
 70
8
 71
3
 72
8
 73
4
 74
0
 40
0
 40
0
 40
0
 40
0
 40
1
 40
1
 40
1
 40
1
 10
37.188837
 20
43.047339
 30
0.0
 10
37.150827
 20
43.008139
 30
0.0
 10
33.262416
 20
42.742979
 30
0.0
 10
28.547913
 20
42.458049
 30
0.0
  0
SPLINE
  5
27c
100
AcDbEntity
  8
Layer_1
 62
7
100
AcDbSpline
 70
8
 71
3
 72
8
 73
4
 74
0
 40
0
 40
0
 40
0
 40
0
 40
1
 40
1
 40
1
 40
1
 10
28.547913
 20
42.458049
 30
0.0
 10
8.262697
 20
41.232059
 30
0.0
 10
2.439964
 20
40.874339
 30
0.0
 10
1.256817
 20
40.781409
 30
0.0
  0
LWPOLYLINE
  5
27d
100
AcDbEntity
  8
Layer_1
 62
7
100
AcDbPolyline
 90
3
 70
0
 10
33.469833
 20
46.108399
 30
0.0
 10
37.438582
 20
45.497399
 30
0.0
 10
37.348262
 20
44.307989
 30
0.0
  0
SPLINE
  5
27e
100
AcDbEntity
  8
Layer_1
 62
7
100
AcDbSpline
 70
8
 71
3
 72
8
 73
4
 74
0
 40
0
 40
0
 40
0
 40
0
 40
1
 40
1
 40
1
 40
1
 10
37.887038
 20
42.060239
 30
0.0
 10
37.892438
 20
42.496799
 30
0.0
 10
37.951728
 20
42.643359
 30
0.0
 10
38.018811
 20
42.385929
 30
0.0
  0
SPLINE
  5
27f
100
AcDbEntity
  8
Layer_1
 62
7
100
AcDbSpline
 70
8
 71
3
 72
8
 73
4
 74
0
 40
0
 40
0
 40
0
 40
0
 40
1
 40
1
 40
1
 40
1
 10
38.018811
 20
42.385929
 30
0.0
 10
38.085891
 20
42.128499
 30
0.0
 10
38.081481
 20
41.771309
 30
0.0
 10
38.009011
 20
41.592179
 30
0.0
  0
SPLINE
  5
280
100
AcDbEntity
  8
Layer_1
 62
7
100
AcDbSpline
 70
8
 71
3
 72
8
 73
4
 74
0
 40
0
 40
0
 40
0
 40
0
 40
1
 40
1
 40
1
 40
1
 10
38.009011
 20
41.592179
 30
0.0
 10
37.936531
 20
41.413049
 30
0.0
 10
37.881649
 20
41.623679
 30
0.0
 10
37.887041
 20
42.060239
 30
0.0
  0
LWPOLYLINE
  5
281
100
AcDbEntity
  8
Layer_1
 62
7
100
AcDbPolyline
 90
3
 70
0
 10
1.256817
 20
40.781409
 30
0.0
 10
0.000046
 20
40.682709
 30
0.0
 10
0.008698
 20
43.885009
 30
0.0
  0
SPLINE
  5
282
100
AcDbEntity
  8
Layer_1
 62
7
100
AcDbSpline
 70
8
 71
3
 72
8
 73
4
 74
0
 40
0
 40
0
 40
0
 40
0
 40
1
 40
1
 40
1
 40
1
 10
38.145670
 20
46.371739
 30
0.0
 10
38.104210
 20
48.606249
 30
0.0
 10
38.154770
 20
48.885899
 30
0.0
 10
38.698595
 20
49.429719
 30
0.0
  0
SPLINE
  5
283
100
AcDbEntity
  8
Layer_1
 62
7
100
AcDbSpline
 70
8
 71
3
 72
8
 73
4
 74
0
 40
0
 40
0
 40
0
 40
0
 40
1
 40
1
 40
1
 40
1
 10
38.698595
 20
49.429719
 30
0.0
 10
39.367021
 20
50.098139
 30
0.0
 10
42.758370
 20
51.575409
 30
0.0
 10
44.185457
 20
51.819789
 30
0.0
  0
SPLINE
  5
284
100
AcDbEntity
  8
Layer_1
 62
7
100
AcDbSpline
 70
8
 71
3
 72
8
 73
4
 74
0
 40
0
 40
0
 40
0
 40
0
 40
1
 40
1
 40
1
 40
1
 10
44.185457
 20
51.819789
 30
0.0
 10
44.741076
 20
51.914989
 30
0.0
 10
44.423571
 20
51.730089
 30
0.0
 10
43.391707
 20
51.357669
 30
0.0
  0
SPLINE
  5
285
100
AcDbEntity
  8
Layer_1
 62
7
100
AcDbSpline
 70
8
 71
3
 72
8
 73
4
 74
0
 40
0
 40
0
 40
0
 40
0
 40
1
 40
1
 40
1
 40
1
 10
43.391707
 20
51.357669
 30
0.0
 10
40.942079
 20
50.473559
 30
0.0
 10
38.995359
 20
49.438469
 30
0.0
 10
38.742304
 20
48.885529
 30
0.0
  0
SPLINE
  5
286
100
AcDbEntity
  8
Layer_1
 62
7
100
AcDbSpline
 70
8
 71
3
 72
8
 73
4
 74
0
 40
0
 40
0
 40
0
 40
0
 40
1
 40
1
 40
1
 40
1
 10
38.742304
 20
48.885529
 30
0.0
 10
38.622667
 20
48.624119
 30
0.0
 10
38.449748
 20
47.398199
 30
0.0
 10
38.358040
 20
46.161279
 30
0.0
  0
LWPOLYLINE
  5
287
100
AcDbEntity
  8
Layer_1
 62
7
100
AcDbPolyline
 90
1
 70
1
 10
37.887041
 20
42.060239
 30
0.0
  0
LWPOLYLINE
  5
288
100
AcDbEntity
  8
Layer_1
 62
7
100
AcDbPolyline
 90
3
 70
0
 10
38.358040
 20
46.161279
 30
0.0
 10
38.191299
 20
43.912319
 30
0.0
 10
38.145670
 20
46.371739
 30
0.0
  0
SPLINE
  5
289
100
AcDbEntity
  8
Layer_1
 62
7
100
AcDbSpline
 70
8
 71
3
 72
8
 73
4
 74
0
 40
0
 40
0
 40
0
 40
0
 40
1
 40
1
 40
1
 40
1
 10
68.791705
 20
49.683579
 30
0.0
 10
72.356965
 20
50.827929
 30
0.0
 10
77.801461
 20
52.587159
 30
0.0
 10
80.890585
 20
53.592969
 30
0.0
  0
SPLINE
  5
28a
100
AcDbEntity
  8
Layer_1
 62
7
100
AcDbSpline
 70
8
 71
3
 72
8
 73
4
 74
0
 40
0
 40
0
 40
0
 40
0
 40
1
 40
1
 40
1
 40
1
 10
80.890585
 20
53.592969
 30
0.0
 10
83.979708
 20
54.598769
 30
0.0
 10
86.682783
 20
55.421699
 30
0.0
 10
86.897419
 20
55.421699
 30
0.0
  0
SPLINE
  5
28b
100
AcDbEntity
  8
Layer_1
 62
7
100
AcDbSpline
 70
8
 71
3
 72
8
 73
4
 74
0
 40
0
 40
0
 40
0
 40
0
 40
1
 40
1
 40
1
 40
1
 10
86.897419
 20
55.421699
 30
0.0
 10
87.122947
 20
55.421699
 30
0.0
 10
87.404084
 20
55.002909
 30
0.0
 10
87.563483
 20
54.429519
 30
0.0
  0
SPLINE
  5
28c
100
AcDbEntity
  8
Layer_1
 62
7
100
AcDbSpline
 70
8
 71
3
 72
8
 73
4
 74
0
 40
0
 40
0
 40
0
 40
0
 40
1
 40
1
 40
1
 40
1
 10
87.563483
 20
54.429519
 30
0.0
 10
87.888918
 20
53.258839
 30
0.0
 10
88.723467
 20
47.744809
 30
0.0
 10
88.593092
 20
47.626679
 30
0.0
  0
SPLINE
  5
28d
100
AcDbEntity
  8
Layer_1
 62
7
100
AcDbSpline
 70
8
 71
3
 72
8
 73
4
 74
0
 40
0
 40
0
 40
0
 40
0
 40
1
 40
1
 40
1
 40
1
 10
88.593092
 20
47.626679
 30
0.0
 10
88.475980
 20
47.520559
 30
0.0
 10
63.847724
 20
45.102949
 30
0.0
 10
62.883857
 20
45.102949
 30
0.0
  0
SPLINE
  5
28e
100
AcDbEntity
  8
Layer_1
 62
7
100
AcDbSpline
 70
8
 71
3
 72
8
 73
4
 74
0
 40
0
 40
0
 40
0
 40
0
 40
1
 40
1
 40
1
 40
1
 10
62.883857
 20
45.102949
 30
0.0
 10
62.171715
 20
45.102949
 30
0.0
 10
62.150713
 20
45.143049
 30
0.0
 10
62.228770
 20
46.352939
 30
0.0
  0
LWPOLYLINE
  5
28f
100
AcDbEntity
  8
Layer_1
 62
7
100
AcDbPolyline
 90
3
 70
0
 10
62.228773
 20
46.352939
 30
0.0
 10
62.309413
 20
47.602919
 30
0.0
 10
68.791705
 20
49.683579
 30
0.0
  0
SPLINE
  5
290
100
AcDbEntity
  8
Layer_1
 62
7
100
AcDbSpline
 70
8
 71
3
 72
8
 73
4
 74
0
 40
0
 40
0
 40
0
 40
0
 40
1
 40
1
 40
1
 40
1
 10
20.657988
 20
55.449149
 30
0.0
 10
11.574182
 20
59.073839
 30
0.0
 10
4.079342
 20
62.102119
 30
0.0
 10
4.002787
 20
62.178679
 30
0.0
  0
SPLINE
  5
291
100
AcDbEntity
  8
Layer_1
 62
7
100
AcDbSpline
 70
8
 71
3
 72
8
 73
4
 74
0
 40
0
 40
0
 40
0
 40
0
 40
1
 40
1
 40
1
 40
1
 10
4.002787
 20
62.178679
 30
0.0
 10
3.626670
 20
62.554799
 30
0.0
 10
8.682226
 20
71.061599
 30
0.0
 10
9.865470
 20
72.043609
 30
0.0
  0
SPLINE
  5
292
100
AcDbEntity
  8
Layer_1
 62
7
100
AcDbSpline
 70
8
 71
3
 72
8
 73
4
 74
0
 40
0
 40
0
 40
0
 40
0
 40
1
 40
1
 40
1
 40
1
 10
9.865470
 20
72.043609
 30
0.0
 10
10.177001
 20
72.302149
 30
0.0
 10
11.980405
 20
71.116219
 30
0.0
 10
19.748544
 20
65.544429
 30
0.0
  0
SPLINE
  5
293
100
AcDbEntity
  8
Layer_1
 62
7
100
AcDbSpline
 70
8
 71
3
 72
8
 73
4
 74
0
 40
0
 40
0
 40
0
 40
0
 40
1
 40
1
 40
1
 40
1
 10
19.748544
 20
65.544429
 30
0.0
 10
41.184530
 20
50.169199
 30
0.0
 10
39.970813
 20
51.076539
 30
0.0
 10
39.483073
 20
50.791499
 30
0.0
  0
SPLINE
  5
294
100
AcDbEntity
  8
Layer_1
 62
7
100
AcDbSpline
 70
8
 71
3
 72
8
 73
4
 74
0
 40
0
 40
0
 40
0
 40
0
 40
1
 40
1
 40
1
 40
1
 10
39.483073
 20
50.791499
 30
0.0
 10
39.234073
 20
50.645969
 30
0.0
 10
38.650428
 20
50.139959
 30
0.0
 10
38.186085
 20
49.667019
 30
0.0
  0
SPLINE
  5
295
100
AcDbEntity
  8
Layer_1
 62
7
100
AcDbSpline
 70
8
 71
3
 72
8
 73
4
 74
0
 40
0
 40
0
 40
0
 40
0
 40
1
 40
1
 40
1
 40
1
 10
38.186085
 20
49.667019
 30
0.0
 10
37.721742
 20
49.194069
 30
0.0
 10
37.304064
 20
48.818749
 30
0.0
 10
37.257912
 20
48.832959
 30
0.0
  0
SPLINE
  5
296
100
AcDbEntity
  8
Layer_1
 62
7
100
AcDbSpline
 70
8
 71
3
 72
8
 73
4
 74
0
 40
0
 40
0
 40
0
 40
0
 40
1
 40
1
 40
1
 40
1
 10
37.257912
 20
48.832959
 30
0.0
 10
37.211762
 20
48.847159
 30
0.0
 10
29.741794
 20
51.824459
 30
0.0
 10
20.657988
 20
55.449149
 30
0.0
  0
LWPOLYLINE
  5
297
100
AcDbEntity
  8
Layer_1
 62
7
100
AcDbPolyline
 90
1
 70
1
 10
62.228770
 20
46.352939
 30
0.0
  0
SPLINE
  5
298
100
AcDbEntity
  8
Layer_1
 62
7
100
AcDbSpline
 70
8
 71
3
 72
8
 73
4
 74
0
 40
0
 40
0
 40
0
 40
0
 40
1
 40
1
 40
1
 40
1
 10
59.795874
 20
50.661019
 30
0.0
 10
59.795874
 20
50.984199
 30
0.0
 10
59.535300
 20
51.712239
 30
0.0
 10
59.216819
 20
52.278899
 30
0.0
  0
LWPOLYLINE
  5
299
100
AcDbEntity
  8
Layer_1
 62
7
100
AcDbPolyline
 90
1
 70
1
 10
20.657988
 20
55.449149
 30
0.0
  0
SPLINE
  5
29a
100
AcDbEntity
  8
Layer_1
 62
7
100
AcDbSpline
 70
8
 71
3
 72
8
 73
4
 74
0
 40
0
 40
0
 40
0
 40
0
 40
1
 40
1
 40
1
 40
1
 10
59.438557
 20
54.167009
 30
0.0
 10
59.878994
 20
54.638809
 30
0.0
 10
63.789137
 20
59.013419
 30
0.0
 10
68.127765
 20
63.888369
 30
0.0
  0
SPLINE
  5
29b
100
AcDbEntity
  8
Layer_1
 62
7
100
AcDbSpline
 70
8
 71
3
 72
8
 73
4
 74
0
 40
0
 40
0
 40
0
 40
0
 40
1
 40
1
 40
1
 40
1
 10
68.127765
 20
63.888369
 30
0.0
 10
72.466393
 20
68.763319
 30
0.0
 10
76.289468
 20
73.040659
 30
0.0
 10
76.623487
 20
73.393569
 30
0.0
  0
LWPOLYLINE
  5
29c
100
AcDbEntity
  8
Layer_1
 62
7
100
AcDbPolyline
 90
3
 70
0
 10
59.216819
 20
52.278899
 30
0.0
 10
58.637764
 20
53.309189
 30
0.0
 10
59.438557
 20
54.167009
 30
0.0
  0
SPLINE
  5
29d
100
AcDbEntity
  8
Layer_1
 62
7
100
AcDbSpline
 70
8
 71
3
 72
8
 73
4
 74
0
 40
0
 40
0
 40
0
 40
0
 40
1
 40
1
 40
1
 40
1
 10
77.775927
 20
73.393569
 30
0.0
 10
80.279750
 20
70.446419
 30
0.0
 10
83.732570
 20
65.228419
 30
0.0
 10
83.394511
 20
64.902619
 30
0.0
  0
SPLINE
  5
29e
100
AcDbEntity
  8
Layer_1
 62
7
100
AcDbSpline
 70
8
 71
3
 72
8
 73
4
 74
0
 40
0
 40
0
 40
0
 40
0
 40
1
 40
1
 40
1
 40
1
 10
83.394511
 20
64.902619
 30
0.0
 10
83.123913
 20
64.641829
 30
0.0
 10
60.513825
 20
50.360279
 30
0.0
 10
60.126604
 20
50.205569
 30
0.0
  0
SPLINE
  5
29f
100
AcDbEntity
  8
Layer_1
 62
7
100
AcDbSpline
 70
8
 71
3
 72
8
 73
4
 74
0
 40
0
 40
0
 40
0
 40
0
 40
1
 40
1
 40
1
 40
1
 10
60.126604
 20
50.205569
 30
0.0
 10
59.921633
 20
50.123669
 30
0.0
 10
59.795874
 20
50.296869
 30
0.0
 10
59.795874
 20
50.661019
 30
0.0
  0
LWPOLYLINE
  5
2a0
100
AcDbEntity
  8
Layer_1
 62
7
100
AcDbPolyline
 90
3
 70
0
 10
76.623487
 20
73.393569
 30
0.0
 10
77.230794
 20
74.035219
 30
0.0
 10
77.775927
 20
73.393569
 30
0.0
  0
SPLINE
  5
2a1
100
AcDbEntity
  8
Layer_1
 62
7
100
AcDbSpline
 70
8
 71
3
 72
8
 73
4
 74
0
 40
0
 40
0
 40
0
 40
0
 40
1
 40
1
 40
1
 40
1
 10
42.210371
 20
52.931119
 30
0.0
 10
41.963726
 20
53.307549
 30
0.0
 10
41.811305
 20
53.664909
 30
0.0
 10
41.871657
 20
53.725259
 30
0.0
  0
SPLINE
  5
2a2
100
AcDbEntity
  8
Layer_1
 62
7
100
AcDbSpline
 70
8
 71
3
 72
8
 73
4
 74
0
 40
0
 40
0
 40
0
 40
0
 40
1
 40
1
 40
1
 40
1
 10
41.871657
 20
53.725259
 30
0.0
 10
42.341890
 20
54.195499
 30
0.0
 10
49.855190
 20
58.293209
 30
0.0
 10
50.038931
 20
58.179659
 30
0.0
  0
SPLINE
  5
2a3
100
AcDbEntity
  8
Layer_1
 62
7
100
AcDbSpline
 70
8
 71
3
 72
8
 73
4
 74
0
 40
0
 40
0
 40
0
 40
0
 40
1
 40
1
 40
1
 40
1
 10
50.038931
 20
58.179659
 30
0.0
 10
50.168570
 20
58.099559
 30
0.0
 10
50.452066
 20
57.690869
 30
0.0
 10
50.668923
 20
57.271519
 30
0.0
  0
SPLINE
  5
2a4
100
AcDbEntity
  8
Layer_1
 62
7
100
AcDbSpline
 70
8
 71
3
 72
8
 73
4
 74
0
 40
0
 40
0
 40
0
 40
0
 40
1
 40
1
 40
1
 40
1
 10
50.668923
 20
57.271519
 30
0.0
 10
51.036526
 20
56.560649
 30
0.0
 10
51.025505
 20
56.482639
 30
0.0
 10
50.506067
 20
56.118809
 30
0.0
  0
SPLINE
  5
2a5
100
AcDbEntity
  8
Layer_1
 62
7
100
AcDbSpline
 70
8
 71
3
 72
8
 73
4
 74
0
 40
0
 40
0
 40
0
 40
0
 40
1
 40
1
 40
1
 40
1
 10
50.506067
 20
56.118809
 30
0.0
 10
50.199638
 20
55.904179
 30
0.0
 10
50.018555
 20
55.615909
 30
0.0
 10
50.103660
 20
55.478209
 30
0.0
  0
SPLINE
  5
2a6
100
AcDbEntity
  8
Layer_1
 62
7
100
AcDbSpline
 70
8
 71
3
 72
8
 73
4
 74
0
 40
0
 40
0
 40
0
 40
0
 40
1
 40
1
 40
1
 40
1
 10
50.103660
 20
55.478209
 30
0.0
 10
50.469879
 20
54.885649
 30
0.0
 10
48.114991
 20
53.589299
 30
0.0
 10
45.210019
 20
52.784299
 30
0.0
  0
SPLINE
  5
2a7
100
AcDbEntity
  8
Layer_1
 62
7
100
AcDbSpline
 70
8
 71
3
 72
8
 73
4
 74
0
 40
0
 40
0
 40
0
 40
0
 40
1
 40
1
 40
1
 40
1
 10
45.210019
 20
52.784299
 30
0.0
 10
42.766603
 20
52.107189
 30
0.0
 10
42.749687
 20
52.108019
 30
0.0
 10
42.210371
 20
52.931119
 30
0.0
  0
LWPOLYLINE
  5
2a8
100
AcDbEntity
  8
Layer_1
 62
7
100
AcDbPolyline
 90
1
 70
1
 10
59.795874
 20
50.661019
 30
0.0
  0
SPLINE
  5
2a9
100
AcDbEntity
  8
Layer_1
 62
7
100
AcDbSpline
 70
8
 71
3
 72
8
 73
4
 74
0
 40
0
 40
0
 40
0
 40
0
 40
1
 40
1
 40
1
 40
1
 10
47.046265
 20
52.692029
 30
0.0
 10
47.237261
 20
52.768429
 30
0.0
 10
47.465464
 20
52.759029
 30
0.0
 10
47.553383
 20
52.671129
 30
0.0
  0
SPLINE
  5
2aa
100
AcDbEntity
  8
Layer_1
 62
7
100
AcDbSpline
 70
8
 71
3
 72
8
 73
4
 74
0
 40
0
 40
0
 40
0
 40
0
 40
1
 40
1
 40
1
 40
1
 10
47.553383
 20
52.671129
 30
0.0
 10
47.641302
 20
52.583229
 30
0.0
 10
47.485032
 20
52.520679
 30
0.0
 10
47.206117
 20
52.532169
 30
0.0
  0
SPLINE
  5
2ab
100
AcDbEntity
  8
Layer_1
 62
7
100
AcDbSpline
 70
8
 71
3
 72
8
 73
4
 74
0
 40
0
 40
0
 40
0
 40
0
 40
1
 40
1
 40
1
 40
1
 10
47.206117
 20
52.532169
 30
0.0
 10
46.897893
 20
52.544869
 30
0.0
 10
46.835198
 20
52.607569
 30
0.0
 10
47.046265
 20
52.692019
 30
0.0
  0
LWPOLYLINE
  5
2ac
100
AcDbEntity
  8
Layer_1
 62
7
100
AcDbPolyline
 90
1
 70
1
 10
42.210371
 20
52.931119
 30
0.0
  0
SPLINE
  5
2ad
100
AcDbEntity
  8
Layer_1
 62
7
100
AcDbSpline
 70
8
 71
3
 72
8
 73
4
 74
0
 40
0
 40
0
 40
0
 40
0
 40
1
 40
1
 40
1
 40
1
 10
42.257667
 20
55.077949
 30
0.0
 10
42.357913
 20
55.339769
 30
0.0
 10
42.668856
 20
55.739699
 30
0.0
 10
42.948653
 20
55.966659
 30
0.0
  0
SPLINE
  5
2ae
100
AcDbEntity
  8
Layer_1
 62
7
100
AcDbSpline
 70
8
 71
3
 72
8
 73
4
 74
0
 40
0
 40
0
 40
0
 40
0
 40
1
 40
1
 40
1
 40
1
 10
42.948653
 20
55.966659
 30
0.0
 10
43.428554
 20
56.355959
 30
0.0
 10
43.433136
 20
56.426199
 30
0.0
 10
43.029538
 20
57.206669
 30
0.0
  0
SPLINE
  5
2af
100
AcDbEntity
  8
Layer_1
 62
7
100
AcDbSpline
 70
8
 71
3
 72
8
 73
4
 74
0
 40
0
 40
0
 40
0
 40
0
 40
1
 40
1
 40
1
 40
1
 10
43.029538
 20
57.206669
 30
0.0
 10
42.794228
 20
57.661709
 30
0.0
 10
42.671622
 20
58.249919
 30
0.0
 10
42.757080
 20
58.513799
 30
0.0
  0
SPLINE
  5
2b0
100
AcDbEntity
  8
Layer_1
 62
7
100
AcDbSpline
 70
8
 71
3
 72
8
 73
4
 74
0
 40
0
 40
0
 40
0
 40
0
 40
1
 40
1
 40
1
 40
1
 10
42.757080
 20
58.513799
 30
0.0
 10
42.861869
 20
58.837369
 30
0.0
 10
42.835463
 20
58.887229
 30
0.0
 10
42.675977
 20
58.666939
 30
0.0
  0
SPLINE
  5
2b1
100
AcDbEntity
  8
Layer_1
 62
7
100
AcDbSpline
 70
8
 71
3
 72
8
 73
4
 74
0
 40
0
 40
0
 40
0
 40
0
 40
1
 40
1
 40
1
 40
1
 10
42.675977
 20
58.666939
 30
0.0
 10
42.407935
 20
58.296719
 30
0.0
 10
33.602123
 20
74.145709
 30
0.0
 10
33.602123
 20
74.998369
 30
0.0
  0
SPLINE
  5
2b2
100
AcDbEntity
  8
Layer_1
 62
7
100
AcDbSpline
 70
8
 71
3
 72
8
 73
4
 74
0
 40
0
 40
0
 40
0
 40
0
 40
1
 40
1
 40
1
 40
1
 10
33.602123
 20
74.998369
 30
0.0
 10
33.602123
 20
75.273609
 30
0.0
 10
33.716651
 20
75.569589
 30
0.0
 10
33.856628
 20
75.656099
 30
0.0
  0
SPLINE
  5
2b3
100
AcDbEntity
  8
Layer_1
 62
7
100
AcDbSpline
 70
8
 71
3
 72
8
 73
4
 74
0
 40
0
 40
0
 40
0
 40
0
 40
1
 40
1
 40
1
 40
1
 10
33.856628
 20
75.656099
 30
0.0
 10
33.997373
 20
75.743099
 30
0.0
 10
33.345897
 20
77.317069
 30
0.0
 10
32.399138
 20
79.177439
 30
0.0
  0
SPLINE
  5
2b4
100
AcDbEntity
  8
Layer_1
 62
7
100
AcDbSpline
 70
8
 71
3
 72
8
 73
4
 74
0
 40
0
 40
0
 40
0
 40
0
 40
1
 40
1
 40
1
 40
1
 10
32.399138
 20
79.177439
 30
0.0
 10
31.457541
 20
81.027669
 30
0.0
 10
30.620733
 20
82.898679
 30
0.0
 10
30.539564
 20
83.335239
 30
0.0
  0
LWPOLYLINE
  5
2b5
100
AcDbEntity
  8
Layer_1
 62
7
100
AcDbPolyline
 90
1
 70
1
 10
47.046265
 20
52.692019
 30
0.0
  0
SPLINE
  5
2b6
100
AcDbEntity
  8
Layer_1
 62
7
100
AcDbSpline
 70
8
 71
3
 72
8
 73
4
 74
0
 40
0
 40
0
 40
0
 40
0
 40
1
 40
1
 40
1
 40
1
 10
31.068455
 20
83.335239
 30
0.0
 10
31.440514
 20
82.898679
 30
0.0
 10
32.535806
 20
81.202039
 30
0.0
 10
33.502438
 20
79.564929
 30
0.0
  0
SPLINE
  5
2b7
100
AcDbEntity
  8
Layer_1
 62
7
100
AcDbSpline
 70
8
 71
3
 72
8
 73
4
 74
0
 40
0
 40
0
 40
0
 40
0
 40
1
 40
1
 40
1
 40
1
 10
33.502438
 20
79.564929
 30
0.0
 10
34.709451
 20
77.520709
 30
0.0
 10
35.409571
 20
76.588369
 30
0.0
 10
35.737624
 20
76.588369
 30
0.0
  0
SPLINE
  5
2b8
100
AcDbEntity
  8
Layer_1
 62
7
100
AcDbSpline
 70
8
 71
3
 72
8
 73
4
 74
0
 40
0
 40
0
 40
0
 40
0
 40
1
 40
1
 40
1
 40
1
 10
35.737624
 20
76.588369
 30
0.0
 10
36.423399
 20
76.588369
 30
0.0
 10
37.819457
 20
75.225059
 30
0.0
 10
37.772468
 20
74.601249
 30
0.0
  0
SPLINE
  5
2b9
100
AcDbEntity
  8
Layer_1
 62
7
100
AcDbSpline
 70
8
 71
3
 72
8
 73
4
 74
0
 40
0
 40
0
 40
0
 40
0
 40
1
 40
1
 40
1
 40
1
 10
37.772468
 20
74.601249
 30
0.0
 10
37.739968
 20
74.169759
 30
0.0
 10
45.744803
 20
59.542849
 30
0.0
 10
46.643104
 20
58.392309
 30
0.0
  0
SPLINE
  5
2ba
100
AcDbEntity
  8
Layer_1
 62
7
100
AcDbSpline
 70
8
 71
3
 72
8
 73
4
 74
0
 40
0
 40
0
 40
0
 40
0
 40
1
 40
1
 40
1
 40
1
 10
46.643104
 20
58.392309
 30
0.0
 10
46.853737
 20
58.122529
 30
0.0
 10
47.028160
 20
58.135669
 30
0.0
 10
47.520784
 20
58.458409
 30
0.0
  0
SPLINE
  5
2bb
100
AcDbEntity
  8
Layer_1
 62
7
100
AcDbSpline
 70
8
 71
3
 72
8
 73
4
 74
0
 40
0
 40
0
 40
0
 40
0
 40
1
 40
1
 40
1
 40
1
 10
47.520784
 20
58.458409
 30
0.0
 10
48.195306
 20
58.900369
 30
0.0
 10
49.068500
 20
59.005759
 30
0.0
 10
48.827703
 20
58.616139
 30
0.0
  0
SPLINE
  5
2bc
100
AcDbEntity
  8
Layer_1
 62
7
100
AcDbSpline
 70
8
 71
3
 72
8
 73
4
 74
0
 40
0
 40
0
 40
0
 40
0
 40
1
 40
1
 40
1
 40
1
 10
48.827703
 20
58.616139
 30
0.0
 10
48.744387
 20
58.481329
 30
0.0
 10
47.695563
 20
57.830299
 30
0.0
 10
46.496984
 20
57.169389
 30
0.0
  0
SPLINE
  5
2bd
100
AcDbEntity
  8
Layer_1
 62
7
100
AcDbSpline
 70
8
 71
3
 72
8
 73
4
 74
0
 40
0
 40
0
 40
0
 40
0
 40
1
 40
1
 40
1
 40
1
 10
46.496984
 20
57.169389
 30
0.0
 10
45.298404
 20
56.508489
 30
0.0
 10
43.813221
 20
55.660429
 30
0.0
 10
43.196575
 20
55.284809
 30
0.0
  0
SPLINE
  5
2be
100
AcDbEntity
  8
Layer_1
 62
7
100
AcDbSpline
 70
8
 71
3
 72
8
 73
4
 74
0
 40
0
 40
0
 40
0
 40
0
 40
1
 40
1
 40
1
 40
1
 10
43.196575
 20
55.284809
 30
0.0
 10
42.255363
 20
54.711479
 30
0.0
 10
42.104657
 20
54.678269
 30
0.0
 10
42.257667
 20
55.077909
 30
0.0
  0
LWPOLYLINE
  5
2bf
100
AcDbEntity
  8
Layer_1
 62
7
100
AcDbPolyline
 90
3
 70
0
 10
30.539564
 20
83.335239
 30
0.0
 10
30.391984
 20
84.128989
 30
0.0
 10
31.068455
 20
83.335239
 30
0.0
  0
SPLINE
  5
2c0
100
AcDbEntity
  8
Layer_1
 62
7
100
AcDbSpline
 70
8
 71
3
 72
8
 73
4
 74
0
 40
0
 40
0
 40
0
 40
0
 40
1
 40
1
 40
1
 40
1
 10
44.714624
 20
58.464409
 30
0.0
 10
44.714624
 20
58.682689
 30
0.0
 10
44.536030
 20
58.861289
 30
0.0
 10
44.317749
 20
58.861289
 30
0.0
  0
SPLINE
  5
2c1
100
AcDbEntity
  8
Layer_1
 62
7
100
AcDbSpline
 70
8
 71
3
 72
8
 73
4
 74
0
 40
0
 40
0
 40
0
 40
0
 40
1
 40
1
 40
1
 40
1
 10
44.317749
 20
58.861289
 30
0.0
 10
44.099468
 20
58.861289
 30
0.0
 10
43.920874
 20
58.682689
 30
0.0
 10
43.920874
 20
58.464409
 30
0.0
  0
SPLINE
  5
2c2
100
AcDbEntity
  8
Layer_1
 62
7
100
AcDbSpline
 70
8
 71
3
 72
8
 73
4
 74
0
 40
0
 40
0
 40
0
 40
0
 40
1
 40
1
 40
1
 40
1
 10
43.920874
 20
58.464409
 30
0.0
 10
43.920874
 20
58.246129
 30
0.0
 10
44.099468
 20
58.067539
 30
0.0
 10
44.317749
 20
58.067539
 30
0.0
  0
SPLINE
  5
2c3
100
AcDbEntity
  8
Layer_1
 62
7
100
AcDbSpline
 70
8
 71
3
 72
8
 73
4
 74
0
 40
0
 40
0
 40
0
 40
0
 40
1
 40
1
 40
1
 40
1
 10
44.317749
 20
58.067539
 30
0.0
 10
44.536030
 20
58.067539
 30
0.0
 10
44.714624
 20
58.246129
 30
0.0
 10
44.714624
 20
58.464409
 30
0.0
  0
LWPOLYLINE
  5
2c4
100
AcDbEntity
  8
Layer_1
 62
7
100
AcDbPolyline
 90
1
 70
1
 10
42.257667
 20
55.077909
 30
0.0
  0
SPLINE
  5
2c5
100
AcDbEntity
  8
Layer_1
 62
7
100
AcDbSpline
 70
8
 71
3
 72
8
 73
4
 74
0
 40
0
 40
0
 40
0
 40
0
 40
1
 40
1
 40
1
 40
1
 10
43.656291
 20
60.206249
 30
0.0
 10
43.656291
 20
60.851049
 30
0.0
 10
43.038019
 20
60.759909
 30
0.0
 10
42.909286
 20
60.096129
 30
0.0
  0
SPLINE
  5
2c6
100
AcDbEntity
  8
Layer_1
 62
7
100
AcDbSpline
 70
8
 71
3
 72
8
 73
4
 74
0
 40
0
 40
0
 40
0
 40
0
 40
1
 40
1
 40
1
 40
1
 10
42.909286
 20
60.096129
 30
0.0
 10
42.858652
 20
59.835049
 30
0.0
 10
42.993625
 20
59.655039
 30
0.0
 10
43.240015
 20
59.655039
 30
0.0
  0
SPLINE
  5
2c7
100
AcDbEntity
  8
Layer_1
 62
7
100
AcDbSpline
 70
8
 71
3
 72
8
 73
4
 74
0
 40
0
 40
0
 40
0
 40
0
 40
1
 40
1
 40
1
 40
1
 10
43.240015
 20
59.655039
 30
0.0
 10
43.485452
 20
59.655039
 30
0.0
 10
43.656291
 20
59.881249
 30
0.0
 10
43.656291
 20
60.206249
 30
0.0
  0
LWPOLYLINE
  5
2c8
100
AcDbEntity
  8
Layer_1
 62
7
100
AcDbPolyline
 90
1
 70
1
 10
44.714624
 20
58.464409
 30
0.0
  0
SPLINE
  5
2c9
100
AcDbEntity
  8
Layer_1
 62
7
100
AcDbSpline
 70
8
 71
3
 72
8
 73
4
 74
0
 40
0
 40
0
 40
0
 40
0
 40
1
 40
1
 40
1
 40
1
 10
45.508374
 20
59.904009
 30
0.0
 10
45.508374
 20
60.216179
 30
0.0
 10
44.992343
 20
60.550119
 30
0.0
 10
44.802818
 20
60.360589
 30
0.0
  0
SPLINE
  5
2ca
100
AcDbEntity
  8
Layer_1
 62
7
100
AcDbSpline
 70
8
 71
3
 72
8
 73
4
 74
0
 40
0
 40
0
 40
0
 40
0
 40
1
 40
1
 40
1
 40
1
 10
44.802818
 20
60.360589
 30
0.0
 10
44.613294
 20
60.171069
 30
0.0
 10
44.947234
 20
59.655039
 30
0.0
 10
45.259406
 20
59.655039
 30
0.0
  0
SPLINE
  5
2cb
100
AcDbEntity
  8
Layer_1
 62
7
100
AcDbSpline
 70
8
 71
3
 72
8
 73
4
 74
0
 40
0
 40
0
 40
0
 40
0
 40
1
 40
1
 40
1
 40
1
 10
45.259406
 20
59.655039
 30
0.0
 10
45.396338
 20
59.655039
 30
0.0
 10
45.508374
 20
59.767069
 30
0.0
 10
45.508374
 20
59.904009
 30
0.0
  0
LWPOLYLINE
  5
2cc
100
AcDbEntity
  8
Layer_1
 62
7
100
AcDbPolyline
 90
1
 70
1
 10
43.656291
 20
60.206249
 30
0.0
  0
SPLINE
  5
2cd
100
AcDbEntity
  8
Layer_1
 62
7
100
AcDbSpline
 70
8
 71
3
 72
8
 73
4
 74
0
 40
0
 40
0
 40
0
 40
0
 40
1
 40
1
 40
1
 40
1
 10
41.852714
 20
60.506109
 30
0.0
 10
41.662859
 20
60.695969
 30
0.0
 10
41.539624
 20
60.711589
 30
0.0
 10
41.539624
 20
60.545809
 30
0.0
  0
SPLINE
  5
2ce
100
AcDbEntity
  8
Layer_1
 62
7
100
AcDbSpline
 70
8
 71
3
 72
8
 73
4
 74
0
 40
0
 40
0
 40
0
 40
0
 40
1
 40
1
 40
1
 40
1
 10
41.539624
 20
60.545809
 30
0.0
 10
41.539624
 20
60.192649
 30
0.0
 10
41.852523
 20
59.879749
 30
0.0
 10
42.029103
 20
60.056329
 30
0.0
  0
SPLINE
  5
2cf
100
AcDbEntity
  8
Layer_1
 62
7
100
AcDbSpline
 70
8
 71
3
 72
8
 73
4
 74
0
 40
0
 40
0
 40
0
 40
0
 40
1
 40
1
 40
1
 40
1
 10
42.029103
 20
60.056329
 30
0.0
 10
42.104293
 20
60.131529
 30
0.0
 10
42.024903
 20
60.333919
 30
0.0
 10
41.852714
 20
60.506119
 30
0.0
  0
LWPOLYLINE
  5
2d0
100
AcDbEntity
  8
Layer_1
 62
7
100
AcDbPolyline
 90
1
 70
1
 10
45.508374
 20
59.904009
 30
0.0
  0
SPLINE
  5
2d1
100
AcDbEntity
  8
Layer_1
 62
7
100
AcDbSpline
 70
8
 71
3
 72
8
 73
4
 74
0
 40
0
 40
0
 40
0
 40
0
 40
1
 40
1
 40
1
 40
1
 10
42.804941
 20
61.995409
 30
0.0
 10
42.880764
 20
62.223119
 30
0.0
 10
42.753545
 20
62.318459
 30
0.0
 10
42.451916
 20
62.259989
 30
0.0
  0
SPLINE
  5
2d2
100
AcDbEntity
  8
Layer_1
 62
7
100
AcDbSpline
 70
8
 71
3
 72
8
 73
4
 74
0
 40
0
 40
0
 40
0
 40
0
 40
1
 40
1
 40
1
 40
1
 10
42.451916
 20
62.259989
 30
0.0
 10
42.192554
 20
62.209689
 30
0.0
 10
41.927005
 20
62.008379
 30
0.0
 10
41.861807
 20
61.812579
 30
0.0
  0
SPLINE
  5
2d3
100
AcDbEntity
  8
Layer_1
 62
7
100
AcDbSpline
 70
8
 71
3
 72
8
 73
4
 74
0
 40
0
 40
0
 40
0
 40
0
 40
1
 40
1
 40
1
 40
1
 10
41.861807
 20
61.812579
 30
0.0
 10
41.785987
 20
61.584869
 30
0.0
 10
41.913207
 20
61.489529
 30
0.0
 10
42.214832
 20
61.547999
 30
0.0
  0
SPLINE
  5
2d4
100
AcDbEntity
  8
Layer_1
 62
7
100
AcDbSpline
 70
8
 71
3
 72
8
 73
4
 74
0
 40
0
 40
0
 40
0
 40
0
 40
1
 40
1
 40
1
 40
1
 10
42.214832
 20
61.547999
 30
0.0
 10
42.474194
 20
61.598299
 30
0.0
 10
42.739743
 20
61.799609
 30
0.0
 10
42.804941
 20
61.995409
 30
0.0
  0
LWPOLYLINE
  5
2d5
100
AcDbEntity
  8
Layer_1
 62
7
100
AcDbPolyline
 90
1
 70
1
 10
41.852714
 20
60.506119
 30
0.0
  0
SPLINE
  5
2d6
100
AcDbEntity
  8
Layer_1
 62
7
100
AcDbSpline
 70
8
 71
3
 72
8
 73
4
 74
0
 40
0
 40
0
 40
0
 40
0
 40
1
 40
1
 40
1
 40
1
 10
44.317749
 20
61.771699
 30
0.0
 10
44.227812
 20
61.917219
 30
0.0
 10
44.035165
 20
62.036289
 30
0.0
 10
43.889644
 20
62.036289
 30
0.0
  0
SPLINE
  5
2d7
100
AcDbEntity
  8
Layer_1
 62
7
100
AcDbSpline
 70
8
 71
3
 72
8
 73
4
 74
0
 40
0
 40
0
 40
0
 40
0
 40
1
 40
1
 40
1
 40
1
 10
43.889644
 20
62.036289
 30
0.0
 10
43.744123
 20
62.036289
 30
0.0
 10
43.698646
 20
61.917219
 30
0.0
 10
43.788582
 20
61.771699
 30
0.0
  0
SPLINE
  5
2d8
100
AcDbEntity
  8
Layer_1
 62
7
100
AcDbSpline
 70
8
 71
3
 72
8
 73
4
 74
0
 40
0
 40
0
 40
0
 40
0
 40
1
 40
1
 40
1
 40
1
 10
43.788582
 20
61.771699
 30
0.0
 10
43.878519
 20
61.626179
 30
0.0
 10
44.071166
 20
61.507119
 30
0.0
 10
44.216687
 20
61.507119
 30
0.0
  0
SPLINE
  5
2d9
100
AcDbEntity
  8
Layer_1
 62
7
100
AcDbSpline
 70
8
 71
3
 72
8
 73
4
 74
0
 40
0
 40
0
 40
0
 40
0
 40
1
 40
1
 40
1
 40
1
 10
44.216687
 20
61.507119
 30
0.0
 10
44.362208
 20
61.507119
 30
0.0
 10
44.407686
 20
61.626179
 30
0.0
 10
44.317749
 20
61.771699
 30
0.0
  0
LWPOLYLINE
  5
2da
100
AcDbEntity
  8
Layer_1
 62
7
100
AcDbPolyline
 90
1
 70
1
 10
42.804941
 20
61.995409
 30
0.0
  0
SPLINE
  5
2db
100
AcDbEntity
  8
Layer_1
 62
7
100
AcDbSpline
 70
8
 71
3
 72
8
 73
4
 74
0
 40
0
 40
0
 40
0
 40
0
 40
1
 40
1
 40
1
 40
1
 10
43.286976
 20
63.816709
 30
0.0
 10
43.018023
 20
64.085669
 30
0.0
 10
42.796109
 20
63.680739
 30
0.0
 10
43.016779
 20
63.323689
 30
0.0
  0
SPLINE
  5
2dc
100
AcDbEntity
  8
Layer_1
 62
7
100
AcDbSpline
 70
8
 71
3
 72
8
 73
4
 74
0
 40
0
 40
0
 40
0
 40
0
 40
1
 40
1
 40
1
 40
1
 10
43.016779
 20
63.323689
 30
0.0
 10
43.183476
 20
63.053969
 30
0.0
 10
43.245797
 20
63.053759
 30
0.0
 10
43.335418
 20
63.322689
 30
0.0
  0
SPLINE
  5
2dd
100
AcDbEntity
  8
Layer_1
 62
7
100
AcDbSpline
 70
8
 71
3
 72
8
 73
4
 74
0
 40
0
 40
0
 40
0
 40
0
 40
1
 40
1
 40
1
 40
1
 10
43.335418
 20
63.322689
 30
0.0
 10
43.396694
 20
63.506509
 30
0.0
 10
43.374896
 20
63.728849
 30
0.0
 10
43.286977
 20
63.816769
 30
0.0
  0
LWPOLYLINE
  5
2de
100
AcDbEntity
  8
Layer_1
 62
7
100
AcDbPolyline
 90
1
 70
1
 10
44.317749
 20
61.771699
 30
0.0
  0
SPLINE
  5
2df
100
AcDbEntity
  8
Layer_1
 62
7
100
AcDbSpline
 70
8
 71
3
 72
8
 73
4
 74
0
 40
0
 40
0
 40
0
 40
0
 40
1
 40
1
 40
1
 40
1
 10
37.764684
 20
60.493769
 30
0.0
 10
32.275464
 20
67.885969
 30
0.0
 10
22.103013
 20
81.695519
 30
0.0
 10
21.883070
 20
82.053759
 30
0.0
  0
SPLINE
  5
2e0
100
AcDbEntity
  8
Layer_1
 62
7
100
AcDbSpline
 70
8
 71
3
 72
8
 73
4
 74
0
 40
0
 40
0
 40
0
 40
0
 40
1
 40
1
 40
1
 40
1
 10
21.883070
 20
82.053759
 30
0.0
 10
21.460668
 20
82.741769
 30
0.0
 10
28.790138
 20
85.943089
 30
0.0
 10
33.598577
 20
87.170799
 30
0.0
  0
SPLINE
  5
2e1
100
AcDbEntity
  8
Layer_1
 62
7
100
AcDbSpline
 70
8
 71
3
 72
8
 73
4
 74
0
 40
0
 40
0
 40
0
 40
0
 40
1
 40
1
 40
1
 40
1
 10
33.598577
 20
87.170799
 30
0.0
 10
36.144306
 20
87.820779
 30
0.0
 10
36.704867
 20
87.832269
 30
0.0
 10
36.870426
 20
87.237799
 30
0.0
  0
SPLINE
  5
2e2
100
AcDbEntity
  8
Layer_1
 62
7
100
AcDbSpline
 70
8
 71
3
 72
8
 73
4
 74
0
 40
0
 40
0
 40
0
 40
0
 40
1
 40
1
 40
1
 40
1
 10
36.870426
 20
87.237799
 30
0.0
 10
37.130125
 20
86.305379
 30
0.0
 10
39.532224
 20
78.406439
 30
0.0
 10
41.431386
 20
72.239759
 30
0.0
  0
SPLINE
  5
2e3
100
AcDbEntity
  8
Layer_1
 62
7
100
AcDbSpline
 70
8
 71
3
 72
8
 73
4
 74
0
 40
0
 40
0
 40
0
 40
0
 40
1
 40
1
 40
1
 40
1
 10
41.431386
 20
72.239759
 30
0.0
 10
42.504086
 20
68.756649
 30
0.0
 10
43.339467
 20
65.864549
 30
0.0
 10
43.287787
 20
65.812869
 30
0.0
  0
SPLINE
  5
2e4
100
AcDbEntity
  8
Layer_1
 62
7
100
AcDbSpline
 70
8
 71
3
 72
8
 73
4
 74
0
 40
0
 40
0
 40
0
 40
0
 40
1
 40
1
 40
1
 40
1
 10
43.287787
 20
65.812869
 30
0.0
 10
43.236107
 20
65.761169
 30
0.0
 10
42.116776
 20
67.622529
 30
0.0
 10
40.800383
 20
69.949179
 30
0.0
  0
SPLINE
  5
2e5
100
AcDbEntity
  8
Layer_1
 62
7
100
AcDbSpline
 70
8
 71
3
 72
8
 73
4
 74
0
 40
0
 40
0
 40
0
 40
0
 40
1
 40
1
 40
1
 40
1
 10
40.800383
 20
69.949179
 30
0.0
 10
39.175682
 20
72.820749
 30
0.0
 10
38.452366
 20
74.353149
 30
0.0
 10
38.548368
 20
74.720269
 30
0.0
  0
SPLINE
  5
2e6
100
AcDbEntity
  8
Layer_1
 62
7
100
AcDbSpline
 70
8
 71
3
 72
8
 73
4
 74
0
 40
0
 40
0
 40
0
 40
0
 40
1
 40
1
 40
1
 40
1
 10
38.548368
 20
74.720269
 30
0.0
 10
38.713650
 20
75.352299
 30
0.0
 10
37.437626
 20
76.678829
 30
0.0
 10
36.138064
 20
77.225969
 30
0.0
  0
SPLINE
  5
2e7
100
AcDbEntity
  8
Layer_1
 62
7
100
AcDbSpline
 70
8
 71
3
 72
8
 73
4
 74
0
 40
0
 40
0
 40
0
 40
0
 40
1
 40
1
 40
1
 40
1
 10
36.138064
 20
77.225969
 30
0.0
 10
35.519855
 20
77.486249
 30
0.0
 10
35.045278
 20
78.091209
 30
0.0
 10
34.181272
 20
79.720379
 30
0.0
  0
SPLINE
  5
2e8
100
AcDbEntity
  8
Layer_1
 62
7
100
AcDbSpline
 70
8
 71
3
 72
8
 73
4
 74
0
 40
0
 40
0
 40
0
 40
0
 40
1
 40
1
 40
1
 40
1
 10
34.181272
 20
79.720379
 30
0.0
 10
32.924700
 20
82.089759
 30
0.0
 10
30.861851
 20
84.790399
 30
0.0
 10
30.308604
 20
84.790399
 30
0.0
  0
SPLINE
  5
2e9
100
AcDbEntity
  8
Layer_1
 62
7
100
AcDbSpline
 70
8
 71
3
 72
8
 73
4
 74
0
 40
0
 40
0
 40
0
 40
0
 40
1
 40
1
 40
1
 40
1
 10
30.308604
 20
84.790399
 30
0.0
 10
29.249626
 20
84.790399
 30
0.0
 10
29.823972
 20
82.521219
 30
0.0
 10
31.830293
 20
78.778379
 30
0.0
  0
SPLINE
  5
2ea
100
AcDbEntity
  8
Layer_1
 62
7
100
AcDbSpline
 70
8
 71
3
 72
8
 73
4
 74
0
 40
0
 40
0
 40
0
 40
0
 40
1
 40
1
 40
1
 40
1
 10
31.830293
 20
78.778379
 30
0.0
 10
33.013091
 20
76.571829
 30
0.0
 10
33.180883
 20
76.085919
 30
0.0
 10
32.968541
 20
75.482129
 30
0.0
  0
SPLINE
  5
2eb
100
AcDbEntity
  8
Layer_1
 62
7
100
AcDbSpline
 70
8
 71
3
 72
8
 73
4
 74
0
 40
0
 40
0
 40
0
 40
0
 40
1
 40
1
 40
1
 40
1
 10
32.968541
 20
75.482129
 30
0.0
 10
32.746757
 20
74.851489
 30
0.0
 10
33.260686
 20
73.784519
 30
0.0
 10
37.661676
 20
65.738599
 30
0.0
  0
LWPOLYLINE
  5
2ec
100
AcDbEntity
  8
Layer_1
 62
7
100
AcDbPolyline
 90
1
 70
1
 10
43.286977
 20
63.816769
 30
0.0
  0
SPLINE
  5
2ed
100
AcDbEntity
  8
Layer_1
 62
7
100
AcDbSpline
 70
8
 71
3
 72
8
 73
4
 74
0
 40
0
 40
0
 40
0
 40
0
 40
1
 40
1
 40
1
 40
1
 10
53.874883
 20
56.129299
 30
0.0
 10
53.455994
 20
56.351099
 30
0.0
 10
52.801151
 20
56.474809
 30
0.0
 10
52.419675
 20
56.404209
 30
0.0
  0
SPLINE
  5
2ee
100
AcDbEntity
  8
Layer_1
 62
7
100
AcDbSpline
 70
8
 71
3
 72
8
 73
4
 74
0
 40
0
 40
0
 40
0
 40
0
 40
1
 40
1
 40
1
 40
1
 10
52.419675
 20
56.404209
 30
0.0
 10
51.794701
 20
56.288549
 30
0.0
 10
51.654099
 20
56.426309
 30
0.0
 10
50.998478
 20
57.796319
 30
0.0
  0
LWPOLYLINE
  5
2ef
100
AcDbEntity
  8
Layer_1
 62
7
100
AcDbPolyline
 90
5
 70
0
 10
37.661676
 20
65.738599
 30
0.0
 10
42.603869
 20
56.703259
 30
0.0
 10
42.083171
 20
56.041299
 30
0.0
 10
41.562472
 20
55.379339
 30
0.0
 10
37.764684
 20
60.493769
 30
0.0
  0
SPLINE
  5
2f0
100
AcDbEntity
  8
Layer_1
 62
7
100
AcDbSpline
 70
8
 71
3
 72
8
 73
4
 74
0
 40
0
 40
0
 40
0
 40
0
 40
1
 40
1
 40
1
 40
1
 10
50.998478
 20
87.959449
 30
0.0
 10
53.242480
 20
87.941749
 30
0.0
 10
59.640447
 20
86.015709
 30
0.0
 10
63.424298
 20
84.218719
 30
0.0
  0
SPLINE
  5
2f1
100
AcDbEntity
  8
Layer_1
 62
7
100
AcDbSpline
 70
8
 71
3
 72
8
 73
4
 74
0
 40
0
 40
0
 40
0
 40
0
 40
1
 40
1
 40
1
 40
1
 10
63.424298
 20
84.218719
 30
0.0
 10
65.561941
 20
83.203529
 30
0.0
 10
65.593083
 20
83.174859
 30
0.0
 10
65.326836
 20
82.467049
 30
0.0
  0
SPLINE
  5
2f2
100
AcDbEntity
  8
Layer_1
 62
7
100
AcDbSpline
 70
8
 71
3
 72
8
 73
4
 74
0
 40
0
 40
0
 40
0
 40
0
 40
1
 40
1
 40
1
 40
1
 10
65.326836
 20
82.467049
 30
0.0
 10
63.942434
 20
78.786659
 30
0.0
 10
54.931270
 20
56.041089
 30
0.0
 10
54.803417
 20
55.904309
 30
0.0
  0
SPLINE
  5
2f3
100
AcDbEntity
  8
Layer_1
 62
7
100
AcDbSpline
 70
8
 71
3
 72
8
 73
4
 74
0
 40
0
 40
0
 40
0
 40
0
 40
1
 40
1
 40
1
 40
1
 10
54.803417
 20
55.904309
 30
0.0
 10
54.711612
 20
55.806109
 30
0.0
 10
54.293772
 20
55.907309
 30
0.0
 10
53.874883
 20
56.129019
 30
0.0
  0
LWPOLYLINE
  5
2f4
100
AcDbEntity
  8
Layer_1
 62
7
100
AcDbPolyline
 90
5
 70
0
 10
50.998478
 20
57.796319
 30
0.0
 10
50.270874
 20
59.316799
 30
0.0
 10
50.270874
 20
73.641129
 30
0.0
 10
50.270874
 20
87.965449
 30
0.0
 10
50.998478
 20
87.959449
 30
0.0
  0
LWPOLYLINE
  5
2f5
100
AcDbEntity
  8
Layer_1
 62
7
100
AcDbPolyline
 90
2
 70
0
 10
53.874883
 20
56.129019
 30
0.0
 10
53.874883
 20
56.129299
 30
0.0
  0
ENDSEC
  0
SECTION
  2
OBJECTS
  0
DICTIONARY
  5
C
330
0
100
AcDbDictionary
  3
ACAD_GROUP
350
D
  3
ACAD_MLINESTYLE
350
17
  0
DICTIONARY
  5
D
330
C
100
AcDbDictionary
  0
DICTIONARY
  5
1A
330
C
100
AcDbDictionary
  0
DICTIONARY
  5
17
330
C
100
AcDbDictionary
  3
STANDARD
350
18
  0
DICTIONARY
  5
19
330
C
100
AcDbDictionary
  0
ENDSEC
  0
EOF
